<svg width="250" height="250" viewBox="0 0 250 250" fill="none" xmlns="http://www.w3.org/2000/svg">
<g clip-path="url(#clip0)">
<path d="M193.653 195.455H193.397C192.223 195.392 191.122 194.866 190.336 193.992C189.549 193.118 189.141 191.967 189.202 190.793L195.429 74.0769C195.492 72.8993 196.021 71.7952 196.898 71.0072C197.775 70.2193 198.93 69.8123 200.107 69.8756C201.285 69.9388 202.389 70.4673 203.177 71.3447C203.965 72.2222 204.372 73.3766 204.309 74.5542L198.082 191.259C198.019 192.392 197.526 193.458 196.702 194.238C195.878 195.018 194.787 195.454 193.653 195.455V195.455Z" fill="#231F20"/>
<path d="M46.6894 152.875C44.5037 152.912 42.3308 152.535 40.2848 151.765C32.1818 148.591 29.5511 143.341 28.7741 139.555C25.9325 125.614 42.7823 108.609 44.7137 106.722C45.1263 106.297 45.6197 105.96 46.1647 105.729C46.7097 105.498 47.2954 105.378 47.8873 105.377C48.4792 105.376 49.0654 105.493 49.6114 105.722C50.1574 105.95 50.6522 106.286 51.0666 106.708C51.4811 107.131 51.8069 107.632 52.0248 108.182C52.2427 108.733 52.3484 109.321 52.3357 109.913C52.3229 110.505 52.1919 111.088 51.9505 111.628C51.709 112.169 51.3619 112.656 50.9296 113.06C44.9689 118.921 36.0446 130.82 37.4765 137.791C37.6652 138.701 38.2313 141.476 43.526 143.551C53.083 147.303 72.4746 132.019 82.4535 121.507C83.2756 120.709 84.3744 120.26 85.52 120.253C86.6657 120.246 87.7696 120.683 88.6009 121.471C89.4323 122.26 89.9267 123.339 89.9808 124.483C90.035 125.628 89.6447 126.749 88.8915 127.612C86.1831 130.376 64.3051 152.875 46.6894 152.875Z" fill="#231F20"/>
<path d="M67.9676 58.0818C67.9676 58.0818 57.9777 53.3199 55.4136 61.7115C52.8495 70.103 52.35 95.1334 49.9968 98.0083C47.4974 100.712 44.8121 103.238 41.9604 105.567L52.7274 126.957L76.6145 116.212C76.6145 116.212 68.2895 69.6368 67.9676 58.0818Z" fill="white"/>
<path d="M52.6723 127.501C52.5644 127.499 52.459 127.468 52.3672 127.412C52.2754 127.355 52.2005 127.275 52.1506 127.179L41.3947 105.801C41.3348 105.685 41.3165 105.553 41.3427 105.425C41.369 105.298 41.4383 105.183 41.539 105.101C44.3587 102.787 47.0177 100.284 49.4977 97.6087C50.6077 96.2545 51.3625 88.4624 52.084 80.9588C52.8055 73.4552 53.5603 65.6298 54.8146 61.545C55.0726 60.5142 55.5573 59.554 56.2331 58.7341C56.909 57.9142 57.7592 57.2553 58.7218 56.8053C62.7733 55.0293 67.9458 57.4602 68.1678 57.5712C68.2609 57.6156 68.34 57.6845 68.3968 57.7706C68.4535 57.8567 68.4856 57.9566 68.4897 58.0596C68.856 69.4482 77.0478 115.646 77.1255 116.101C77.1492 116.229 77.1292 116.361 77.0688 116.475C77.0083 116.59 76.911 116.681 76.7925 116.734L52.9054 127.501C52.8284 127.516 52.7493 127.516 52.6723 127.501V127.501ZM42.6157 105.69L52.9276 126.18L75.9156 115.835C75.0831 111.106 67.857 69.8366 67.3575 58.4259C66.2475 57.9597 62.2183 56.4834 59.1769 57.8265C58.3686 58.2118 57.6563 58.7724 57.0918 59.4674C56.5273 60.1625 56.1248 60.9746 55.9135 61.8447C54.6925 65.8185 53.9488 73.5551 53.2273 81.0365C52.2949 90.7823 51.6289 96.8206 50.3857 98.3413C47.9787 100.988 45.3818 103.455 42.6157 105.723V105.69Z" fill="#231F20"/>
<path d="M122.358 219.952C121.288 219.965 120.251 219.591 119.435 218.9C118.619 218.209 118.081 217.246 117.918 216.19L103.943 124.826C103.765 123.661 104.056 122.474 104.754 121.525C105.451 120.576 106.497 119.942 107.661 119.764C108.825 119.586 110.013 119.878 110.962 120.575C111.911 121.273 112.545 122.318 112.723 123.483L126.797 214.846C126.886 215.423 126.86 216.011 126.721 216.578C126.582 217.144 126.332 217.678 125.987 218.148C125.642 218.618 125.207 219.015 124.708 219.317C124.209 219.619 123.656 219.82 123.079 219.908C122.84 219.942 122.599 219.956 122.358 219.952V219.952Z" fill="#231F20"/>
<path d="M148.753 219.953H148.243C147.663 219.886 147.103 219.707 146.593 219.424C146.083 219.141 145.633 218.76 145.27 218.303C144.908 217.847 144.638 217.323 144.478 216.762C144.317 216.202 144.269 215.615 144.336 215.035C147.588 186.853 152.594 140.799 152.416 135.26C152.184 134.253 152.311 133.197 152.774 132.274C153.236 131.351 154.007 130.617 154.952 130.201C155.897 129.784 156.958 129.71 157.952 129.991C158.946 130.272 159.81 130.891 160.397 131.741C161.685 133.595 162.073 134.15 157.6 176.019C155.48 195.91 153.16 215.857 153.16 216.057C153.027 217.132 152.506 218.121 151.694 218.839C150.883 219.557 149.837 219.953 148.753 219.953V219.953Z" fill="#231F20"/>
<path d="M133.724 250C172.976 250 204.797 246.218 204.797 241.553C204.797 236.888 172.976 233.106 133.724 233.106C94.4713 233.106 62.6509 236.888 62.6509 241.553C62.6509 246.218 94.4713 250 133.724 250Z" fill="#E6E7E8"/>
<path d="M131.892 160.512C172.015 160.512 204.542 127.986 204.542 87.8631C204.542 47.74 172.015 15.2139 131.892 15.2139C91.7693 15.2139 59.2432 47.74 59.2432 87.8631C59.2432 127.986 91.7693 160.512 131.892 160.512Z" fill="#754EE4"/>
<path d="M131.97 15.1918C150.646 15.1805 168.61 22.3518 182.144 35.2207C195.678 48.0897 203.745 65.6706 204.673 84.3231C205.602 102.976 199.322 121.271 187.133 135.421C174.945 149.57 157.781 158.491 139.197 160.335C120.613 162.178 102.031 156.805 87.2996 145.326C72.5682 133.847 62.8155 117.143 60.0609 98.6713C57.3062 80.2 61.7607 61.3768 72.502 46.0993C83.2432 30.8218 99.4485 20.2602 117.762 16.6015C122.44 15.6664 127.199 15.1942 131.97 15.1918ZM131.97 14.0818C112.393 14.0612 93.61 21.8183 79.7524 35.6467C65.8949 49.4751 58.0983 68.2419 58.0777 87.8188C58.0571 107.396 65.8142 126.179 79.6426 140.036C93.4709 153.894 112.238 161.691 131.815 161.711C141.508 161.721 151.109 159.822 160.068 156.122C169.028 152.422 177.171 146.993 184.032 140.146C190.894 133.299 196.34 125.168 200.059 116.216C203.777 107.264 205.697 97.6677 205.707 87.9742C205.717 78.2807 203.818 68.6802 200.118 59.7206C196.418 50.7611 190.989 42.6181 184.142 35.7566C177.295 28.895 169.164 23.4493 160.212 19.7304C151.26 16.0114 141.664 14.092 131.97 14.0818V14.0818Z" fill="#231F20"/>
<path d="M106.722 88.5421C109.846 87.9364 111.213 81.4356 109.776 74.022C108.339 66.6085 104.641 61.0896 101.517 61.6953C98.3929 62.301 97.0255 68.8018 98.4628 76.2154C99.9002 83.6289 103.598 89.1478 106.722 88.5421Z" fill="#231F20"/>
<path d="M153.633 79.4606C156.757 78.8549 158.124 72.354 156.687 64.9405C155.25 57.527 151.552 52.0081 148.428 52.6138C145.304 53.2195 143.937 59.7203 145.374 67.1338C146.811 74.5474 150.509 80.0662 153.633 79.4606Z" fill="#231F20"/>
<path d="M101.123 142.397C100.738 142.397 100.365 142.262 100.067 142.018C99.7697 141.773 99.5663 141.432 99.4918 141.054C97.7935 132.496 100.602 123.627 107.262 116.057C113.922 108.487 123.579 103.325 134.568 101.161C157.356 96.6319 178.712 107.177 182.186 124.659C182.272 125.101 182.178 125.558 181.926 125.931C181.675 126.304 181.285 126.561 180.843 126.646C180.402 126.732 179.944 126.638 179.572 126.386C179.199 126.134 178.942 125.745 178.856 125.303C175.748 109.63 156.146 100.262 135.156 104.424C124.911 106.455 115.886 111.373 109.759 118.266C103.632 125.159 101.246 132.895 102.733 140.41C102.818 140.843 102.728 141.292 102.482 141.658C102.237 142.024 101.856 142.278 101.423 142.364L101.123 142.397Z" fill="#231F20"/>
<path d="M54.6435 126.292L43.64 104.057C42.6312 102.019 40.161 101.184 38.1226 102.193L37.0382 102.729C34.9998 103.738 34.1652 106.208 35.1739 108.247L46.1775 130.481C47.1862 132.52 49.6565 133.354 51.6949 132.346L52.7792 131.809C54.8176 130.8 55.6523 128.33 54.6435 126.292Z" fill="white"/>
<path d="M49.8861 133.351C49.0088 133.351 48.1489 133.105 47.4036 132.642C46.6583 132.18 46.0572 131.518 45.6682 130.731V130.731L34.6681 108.531C34.394 107.979 34.2313 107.378 34.1895 106.762C34.1477 106.147 34.2275 105.53 34.4244 104.945C34.6213 104.361 34.9313 103.821 35.3369 103.356C35.7425 102.892 36.2357 102.512 36.7882 102.238L37.8982 101.705C38.4482 101.43 39.0473 101.267 39.6608 101.225C40.2743 101.183 40.89 101.263 41.4724 101.461C42.6525 101.859 43.6264 102.709 44.1808 103.825L55.1808 126.025C55.4549 126.577 55.6176 127.178 55.6594 127.794C55.7012 128.409 55.6214 129.026 55.4245 129.611C55.2276 130.195 54.9176 130.735 54.512 131.2C54.1064 131.664 53.6133 132.044 53.0607 132.318L51.9507 132.851C51.3087 133.17 50.6031 133.341 49.8861 133.351V133.351ZM46.7004 130.232C47.12 131.072 47.8555 131.712 48.7458 132.012C49.6362 132.311 50.6089 132.246 51.4512 131.83L52.5612 131.297C53.4037 130.88 54.0462 130.145 54.3479 129.254C54.6496 128.364 54.5859 127.39 54.1707 126.546L43.1707 104.347C42.7477 103.504 42.01 102.862 41.1172 102.559C40.6755 102.411 40.2089 102.352 39.7442 102.384C39.2794 102.416 38.8256 102.54 38.4088 102.748L37.2988 103.281C36.8806 103.486 36.5072 103.773 36.2001 104.123C35.8931 104.474 35.6585 104.882 35.5099 105.323C35.3613 105.765 35.3016 106.232 35.3343 106.697C35.367 107.161 35.4914 107.615 35.7004 108.032L46.7004 130.232Z" fill="#231F20"/>
<path d="M83.9257 99.4609C88.7121 98.5114 92.1031 95.2751 91.4995 92.2325C90.8959 89.1898 86.5264 87.4929 81.7399 88.4424C76.9535 89.3919 73.5625 92.6282 74.1661 95.6708C74.7697 98.7135 79.1392 100.41 83.9257 99.4609Z" fill="white"/>
<path d="M182.884 80.2731C187.67 79.3237 191.061 76.0874 190.457 73.0447C189.854 70.002 185.484 68.3052 180.698 69.2547C175.911 70.2042 172.521 73.4404 173.124 76.4831C173.728 79.5258 178.097 81.2226 182.884 80.2731Z" fill="white"/>
<path d="M90.5117 69.1264C90.5117 69.1264 105.674 62.4664 107.572 52.321Z" fill="#754EE4"/>
<path d="M90.512 70.7912C90.1099 70.8206 89.7108 70.7031 89.3888 70.4606C89.0668 70.218 88.8437 69.8669 88.761 69.4723C88.6783 69.0777 88.7416 68.6665 88.9391 68.315C89.1365 67.9636 89.4549 67.6957 89.8349 67.5611C89.9792 67.4945 104.265 61.0899 105.93 51.9657C105.971 51.7471 106.054 51.5386 106.176 51.3522C106.297 51.1658 106.454 51.0052 106.637 50.8794C106.821 50.7537 107.027 50.6653 107.245 50.6193C107.462 50.5734 107.687 50.5707 107.906 50.6115C108.124 50.6523 108.333 50.7358 108.519 50.8572C108.706 50.9786 108.866 51.1355 108.992 51.319C109.118 51.5024 109.206 51.7089 109.252 51.9265C109.298 52.1441 109.301 52.3687 109.26 52.5873C107.229 63.4209 91.8884 70.3472 91.2335 70.6025C91.0117 70.7227 90.7642 70.7874 90.512 70.7912V70.7912Z" fill="#231F20"/>
<path d="M162.24 55.3512C162.24 55.3512 145.657 54.9516 140.04 46.3269Z" fill="#754EE4"/>
<path d="M162.24 57.0053C161.529 57.0053 144.724 56.4725 138.708 47.2262C138.56 47.0475 138.452 46.8401 138.389 46.6171C138.327 46.3941 138.311 46.1605 138.344 45.9313C138.377 45.702 138.457 45.482 138.579 45.2855C138.702 45.089 138.864 44.9202 139.056 44.79C139.247 44.6597 139.464 44.5709 139.692 44.5291C139.919 44.4872 140.153 44.4934 140.379 44.5472C140.604 44.601 140.816 44.7012 141 44.8414C141.184 44.9816 141.337 45.1587 141.449 45.3614C146.511 53.1314 162.118 53.6198 162.284 53.6309C162.726 53.6309 163.149 53.8063 163.461 54.1185C163.774 54.4308 163.949 54.8543 163.949 55.2959C163.949 55.7374 163.774 56.1609 163.461 56.4732C163.149 56.7854 162.726 56.9609 162.284 56.9609L162.24 57.0053Z" fill="#231F20"/>
<path d="M53.6933 100.395C53.6933 100.395 53.2937 81.2695 57.7448 74.2988C62.1959 67.328 71.8751 64.7417 69.7883 72.2453C67.7015 79.7489 62.0183 88.7287 62.0183 88.7287C62.0183 88.7287 66.203 104.768 60.9971 114.347" fill="white"/>
<path d="M60.9859 114.925C60.8894 114.925 60.7942 114.902 60.7084 114.858C60.5752 114.785 60.476 114.663 60.4324 114.518C60.3887 114.372 60.4042 114.215 60.4753 114.081C65.5147 104.813 61.4965 89.0286 61.4521 88.8732C61.4321 88.7968 61.4277 88.7171 61.4391 88.6389C61.4505 88.5607 61.4776 88.4856 61.5187 88.4181C61.5853 88.3293 67.2019 79.416 69.2332 72.0901C69.6106 70.7581 69.7771 69.0487 68.5117 68.4826C66.2917 67.4947 61.0969 70.1254 58.2331 74.6098C53.9263 81.3474 54.2593 100.195 54.2593 100.384C54.2608 100.458 54.2476 100.532 54.2205 100.601C54.1934 100.671 54.153 100.734 54.1014 100.787C54.0499 100.841 53.9883 100.884 53.9202 100.914C53.852 100.944 53.7787 100.96 53.7043 100.961C53.555 100.961 53.4115 100.903 53.3039 100.8C53.1962 100.696 53.1329 100.555 53.1272 100.406C53.1272 99.618 52.783 81.0255 57.2785 73.9993C60.2866 69.2818 65.9809 66.0961 68.989 67.4392C69.8992 67.8388 71.2867 69.0265 70.3543 72.3898C68.4229 79.3494 63.5167 87.3969 62.5843 88.8177C63.1171 90.9489 66.4249 105.468 61.4743 114.625C61.4269 114.714 61.3567 114.789 61.2708 114.841C61.185 114.894 61.0866 114.923 60.9859 114.925V114.925Z" fill="#231F20"/>
<path d="M204.797 172.389C204.797 172.389 201.767 189.472 201.467 194.789C201.167 200.106 193.253 220.863 183.019 222.117C172.785 223.371 188.158 211.872 187.925 204.357C187.692 196.842 181.876 203.491 179.689 211.295C177.502 219.098 173.34 210.928 175.249 203.736C177.158 196.543 178.168 196.443 178.79 190.504C179.411 184.566 178.379 165.507 178.379 165.507L204.797 172.389Z" fill="white"/>
<path d="M181.665 222.772C180.355 222.772 179.545 222.461 179.156 221.817C178.29 220.352 179.967 217.999 182.286 214.725C184.606 211.45 187.437 207.465 187.348 204.39C187.281 202.448 186.837 201.704 186.438 201.66C185.106 201.505 181.853 205.634 180.222 211.461C179.278 214.791 178.002 215.246 177.069 215.002C174.849 214.414 173.307 208.775 174.65 203.602C175.416 200.683 176.048 198.896 176.559 197.464C177.434 195.22 177.979 192.861 178.179 190.46C178.79 184.633 177.769 165.74 177.758 165.541C177.752 165.452 177.768 165.362 177.805 165.281C177.842 165.2 177.898 165.129 177.969 165.074C178.038 165.016 178.121 164.976 178.21 164.957C178.299 164.937 178.391 164.94 178.479 164.963L204.941 171.834C205.081 171.871 205.201 171.959 205.279 172.08C205.357 172.201 205.387 172.347 205.363 172.489C205.363 172.656 202.333 189.605 202.033 194.822C201.734 200.039 193.764 221.373 183.086 222.683C182.614 222.743 182.14 222.772 181.665 222.772V222.772ZM186.371 200.517H186.571C187.77 200.661 188.414 201.948 188.491 204.346C188.591 207.798 185.738 211.827 183.219 215.379C181.543 217.733 179.656 220.397 180.144 221.218C180.255 221.396 180.743 221.795 182.941 221.529C192.854 220.319 200.601 199.54 200.89 194.745C201.179 189.949 203.62 175.753 204.142 172.8L178.945 166.251C179.134 169.947 179.878 185.265 179.323 190.571C179.106 193.062 178.538 195.51 177.636 197.842C177.136 199.251 176.526 201.005 175.76 203.88C174.505 208.686 176.07 213.537 177.369 213.87C177.791 213.981 178.479 213.326 179.123 211.128C180.566 206.022 183.84 200.517 186.371 200.517V200.517Z" fill="#231F20"/>
<path d="M178.03 169.394L206.625 177.142C208.986 177.781 211.418 176.386 212.058 174.025L212.212 173.457C212.852 171.096 211.456 168.664 209.095 168.024L180.501 160.277C178.14 159.637 175.707 161.032 175.068 163.393L174.914 163.961C174.274 166.322 175.669 168.754 178.03 169.394Z" fill="white"/>
<path d="M207.827 177.884C207.385 177.88 206.945 177.82 206.518 177.706L177.902 169.936C176.622 169.588 175.532 168.746 174.872 167.595C174.213 166.444 174.037 165.078 174.383 163.798L174.539 163.232C174.882 161.957 175.716 160.87 176.857 160.207C177.998 159.544 179.355 159.358 180.633 159.691V159.691L209.237 167.461C209.871 167.632 210.464 167.926 210.984 168.327C211.503 168.727 211.939 169.226 212.266 169.795C212.593 170.364 212.804 170.992 212.888 171.643C212.972 172.294 212.927 172.955 212.756 173.588L212.6 174.165C212.312 175.223 211.684 176.157 210.814 176.825C209.944 177.492 208.88 177.857 207.783 177.861L207.827 177.884ZM179.367 160.701C178.52 160.703 177.698 160.984 177.026 161.499C176.354 162.014 175.87 162.736 175.649 163.554L175.493 164.12C175.36 164.608 175.325 165.118 175.389 165.62C175.454 166.122 175.616 166.606 175.868 167.045C176.119 167.484 176.455 167.87 176.855 168.179C177.256 168.488 177.713 168.716 178.202 168.848L206.806 176.618C207.295 176.751 207.804 176.786 208.306 176.722C208.808 176.658 209.293 176.496 209.732 176.244C210.171 175.992 210.556 175.657 210.866 175.256C211.175 174.856 211.402 174.398 211.535 173.91L211.69 173.333C211.827 172.839 211.865 172.323 211.8 171.815C211.735 171.307 211.57 170.817 211.314 170.374C211.057 169.93 210.715 169.542 210.307 169.233C209.899 168.923 209.434 168.698 208.937 168.571L180.333 160.801C180.002 160.725 179.662 160.691 179.323 160.701H179.367Z" fill="#231F20"/>
<path d="M133.724 200.994C133.724 200.994 102.4 194.878 102.145 197.93C101.889 200.983 103.166 225.98 103.166 225.98C103.166 225.98 73.1961 242.086 77.8137 244.128C82.4313 246.171 133.724 236.691 133.724 236.691V200.994Z" fill="white"/>
<path d="M80.4107 244.972C79.4556 245.031 78.4977 244.922 77.5802 244.65C77.3497 244.566 77.149 244.416 77.003 244.218C76.857 244.021 76.7721 243.785 76.7588 243.54C76.7588 242.83 76.67 240.976 89.9011 232.917C95.5066 229.51 101.19 226.402 102.577 225.647C102.411 222.45 101.334 200.783 101.578 197.897C101.594 197.744 101.642 197.596 101.719 197.462C101.795 197.328 101.898 197.212 102.022 197.12C104.919 194.9 129.04 199.507 133.835 200.45C133.967 200.474 134.087 200.544 134.172 200.647C134.257 200.751 134.303 200.882 134.301 201.016V236.714C134.301 236.847 134.254 236.977 134.169 237.08C134.084 237.183 133.966 237.254 133.835 237.28C129.128 238.123 91.6883 244.972 80.4107 244.972ZM105.297 197.62C103.854 197.62 102.944 197.753 102.699 198.041C102.466 200.972 103.732 225.702 103.743 225.958C103.745 226.065 103.719 226.171 103.666 226.265C103.613 226.359 103.536 226.437 103.443 226.49C90.8336 233.273 77.8355 241.487 77.9132 243.496C77.9132 243.496 77.9132 243.562 78.0464 243.607C81.6428 245.205 118.583 238.889 133.158 236.214V201.471C122.08 199.318 110.403 197.62 105.297 197.62Z" fill="#231F20"/>
<path d="M137.165 200.994C137.165 200.994 168.489 194.878 168.744 197.93C169 200.983 167.723 225.98 167.723 225.98C167.723 225.98 197.693 242.086 193.076 244.128C188.458 246.171 137.165 236.691 137.165 236.691V200.994Z" fill="white"/>
<path d="M190.478 244.972C179.212 244.972 141.76 238.123 137.054 237.257C136.923 237.231 136.805 237.161 136.72 237.058C136.634 236.954 136.588 236.825 136.588 236.691V200.994C136.588 200.86 136.634 200.73 136.72 200.627C136.805 200.524 136.923 200.453 137.054 200.428C141.86 199.495 165.914 194.878 168.867 197.098C168.994 197.186 169.099 197.302 169.176 197.436C169.253 197.57 169.299 197.72 169.311 197.875C169.555 200.772 168.478 222.439 168.312 225.624C173.351 228.344 194.263 239.866 194.13 243.518C194.117 243.763 194.032 243.998 193.886 244.196C193.74 244.393 193.539 244.543 193.309 244.628C192.393 244.907 191.435 245.023 190.478 244.972V244.972ZM137.731 236.214C152.305 238.889 189.246 245.194 192.842 243.606C192.931 243.606 192.987 243.529 192.987 243.495C193.064 241.486 180.066 233.272 167.457 226.49C167.362 226.438 167.284 226.361 167.231 226.267C167.178 226.173 167.152 226.065 167.157 225.957C167.157 225.702 168.423 200.971 168.178 197.986C167.068 196.698 151.917 198.718 137.731 201.471V236.214Z" fill="#231F20"/>
<path d="M55.2141 8.09879C53.3826 4.9575 49.1424 3.85861 45.6126 4.7688C42.0828 5.679 39.1636 8.09879 36.6217 10.6962C35.7925 11.3905 35.2312 12.3522 35.0344 13.4157C34.9678 14.5257 35.989 15.6357 36.9991 15.2805C32.1262 14.4147 28.1191 19.1099 25.9768 23.561C24.8668 25.781 24.0121 28.334 25.0111 30.5429C26.0101 32.7518 28.7185 33.8729 31.2049 34.1393C35.9395 34.6427 40.6826 33.2676 44.4138 30.3098C45.8978 31.7543 47.7248 32.7975 49.7229 33.3415C51.7211 33.8855 53.8248 33.9123 55.8362 33.4195C57.8476 32.9266 59.7005 31.9303 61.2209 30.5241C62.7412 29.118 63.8789 27.3483 64.5269 25.3814C63.5946 25.9697 65.0598 27.1574 66.1475 27.2129C68.8004 27.3683 71.5421 27.5126 74.0174 26.5358C79.634 24.3158 80.3 10.7961 76.5482 6.3894C72.5744 1.69412 57.7893 1.93832 55.2141 8.09879Z" fill="white"/>
<path d="M33.1806 34.7943C32.4983 34.796 31.8164 34.759 31.1382 34.6833C27.8637 34.317 25.4439 32.8851 24.4783 30.7539C23.3683 28.2453 24.4006 25.4481 25.444 23.2947C26.4873 21.1413 29.6952 15.3805 34.7457 14.6479C34.5317 14.2498 34.4318 13.8004 34.4571 13.3492C34.6553 12.1502 35.2729 11.0605 36.1998 10.2745C38.4198 7.95459 41.55 5.1574 45.4572 4.18061C48.6984 3.38141 52.883 4.18061 55.1474 6.9889C56.4905 4.9132 59.3321 3.41471 63.1172 2.82641C68.0123 2.06052 74.3392 2.89301 76.9699 5.9788C79.3342 8.75379 80.1556 15.0808 78.8347 20.4087C77.9689 23.8497 76.3372 26.214 74.2172 27.0687C71.5865 28.101 68.6672 27.9345 66.1031 27.7902C65.4936 27.7351 64.9124 27.508 64.427 27.1353C63.5732 28.9293 62.3114 30.4985 60.7425 31.7175C59.1736 32.9365 57.3413 33.7714 55.392 34.1554C53.4427 34.5394 51.4305 34.4619 49.5166 33.9291C47.6026 33.3963 45.8398 32.4229 44.3694 31.0869C41.1395 33.5013 37.2132 34.8023 33.1806 34.7943V34.7943ZM35.8557 15.7246C31.8597 15.7246 28.4409 19.7649 26.4873 23.7942C25.5549 25.7256 24.6003 28.2342 25.5327 30.2877C26.6427 32.763 29.9727 33.3957 31.2714 33.54C35.858 34.0421 40.4565 32.7049 44.0586 29.8215C44.1634 29.7309 44.2974 29.681 44.436 29.681C44.5746 29.681 44.7085 29.7309 44.8134 29.8215C46.1687 31.1616 47.8338 32.1463 49.6611 32.6883C51.4883 33.2303 53.4211 33.3128 55.2879 32.9284C57.1547 32.5441 58.8977 31.7048 60.3623 30.4851C61.8268 29.2654 62.9676 27.703 63.6833 25.9365C63.6547 25.7173 63.6923 25.4945 63.7912 25.2967C63.8901 25.0989 64.0457 24.9352 64.2383 24.8265C64.3333 24.7571 64.448 24.7196 64.5657 24.7196C64.6835 24.7196 64.7981 24.7571 64.8932 24.8265C64.9859 24.8972 65.0541 24.9952 65.088 25.1068C65.1218 25.2184 65.1197 25.3378 65.0819 25.4481C65.0819 25.6035 64.982 25.7589 64.9265 25.9143C65.2639 26.2613 65.711 26.4809 66.1919 26.5359C68.645 26.6802 71.42 26.8356 73.8176 25.8921C75.5824 25.1928 76.981 23.1171 77.7469 20.0424C78.9679 15.1474 78.2353 9.13119 76.1152 6.6559C73.9951 4.18061 68.5673 3.18161 63.3059 3.95861C59.3987 4.56911 56.6459 6.1786 55.7468 8.30979C55.7065 8.4107 55.6379 8.49785 55.5493 8.56084C55.4607 8.62382 55.3559 8.65998 55.2473 8.66499C55.1416 8.67209 55.036 8.64996 54.942 8.60102C54.848 8.55207 54.7693 8.47819 54.7145 8.38749C52.9385 5.335 48.8537 4.52471 45.7458 5.3017C42.1161 6.2008 39.1857 8.86479 37.0323 11.0737C36.3079 11.6763 35.8074 12.5052 35.6115 13.4269C35.6102 13.6413 35.6586 13.8532 35.753 14.0458C35.8474 14.2384 35.9851 14.4065 36.1554 14.5369V14.5369C36.4551 14.5369 36.7659 14.5369 37.0878 14.6479C37.211 14.6695 37.3236 14.7313 37.4079 14.8237C37.4922 14.9161 37.5436 15.0338 37.554 15.1585C37.5641 15.2843 37.5326 15.41 37.4645 15.5162C37.3963 15.6225 37.2952 15.7035 37.1766 15.7468C36.7413 15.902 36.2622 15.8781 35.8446 15.6802L35.8557 15.7246Z" fill="#D1D3D4"/>
<path d="M64.3159 25.9696C63.6879 25.9592 63.0612 25.9073 62.44 25.8142C60.1645 25.4812 57.2785 24.5599 56.4572 22.018C56.4114 21.8738 56.4242 21.7173 56.4927 21.5824C56.5612 21.4474 56.68 21.3448 56.8235 21.2966C56.9677 21.2508 57.1242 21.2636 57.2591 21.3321C57.3941 21.4006 57.4967 21.5194 57.5449 21.6629C58.2109 23.7496 61.0081 24.4489 62.6065 24.682C63.7972 24.921 65.0284 24.8638 66.1918 24.5155C67.1263 24.1011 67.9427 23.4601 68.5672 22.6507C69.5343 21.4871 70.2861 20.1602 70.7872 18.7325C70.8372 18.5853 70.9437 18.464 71.0832 18.3953C71.2226 18.3266 71.3837 18.3161 71.5309 18.3662C71.6781 18.4162 71.7994 18.5227 71.8681 18.6621C71.9368 18.8016 71.9472 18.9627 71.8972 19.1099C71.3551 20.6711 70.5312 22.1195 69.4663 23.3833C68.7226 24.3523 67.7448 25.1162 66.6247 25.6033C65.8849 25.8691 65.1017 25.9933 64.3159 25.9696V25.9696Z" fill="#D1D3D4"/>
<path d="M184.207 6.51145C182.366 6.10142 180.439 6.38182 178.791 7.29938C177.144 8.21695 175.891 9.70773 175.27 11.4885C174.65 13.2693 174.705 15.2159 175.425 16.9587C176.146 18.7014 177.481 20.1187 179.178 20.9414C180.06 21.2123 180.893 21.6247 181.643 22.1624C182.135 22.6999 182.553 23.3009 182.886 23.9495C185.217 27.6791 190.189 29.1665 194.496 28.2896C198.803 27.4127 202.488 24.5489 205.352 21.2078C204.99 21.5424 204.775 22.0059 204.752 22.4981C204.729 22.9904 204.901 23.4718 205.23 23.8385C205.932 24.5572 206.839 25.0417 207.827 25.226C210.858 26.0363 214.221 26.336 217.018 24.9041C218.407 24.2471 219.526 23.13 220.186 21.7422C220.845 20.3545 221.004 18.7813 220.637 17.2895C221.192 19.1876 223.589 18.3995 224.411 17.5448C225.521 16.4348 225.41 13.2269 225.221 11.8394C224.666 7.55484 220.659 3.07046 215.975 3.43676C215.044 3.62576 214.09 3.67811 213.144 3.59216C211.601 3.25916 210.624 1.74957 209.215 1.02807C208.368 0.659713 207.441 0.511334 206.521 0.596717C205.602 0.682099 204.718 0.998473 203.953 1.51647C202.42 2.55256 201.098 3.87101 200.057 5.40145C199.414 3.82526 197.382 3.44786 195.684 3.47006C191.244 3.52556 188.724 4.43576 185.694 7.31065C185.234 6.98293 184.734 6.71442 184.207 6.51145V6.51145Z" fill="white"/>
<path d="M192.01 29.1443C190.128 29.1988 188.263 28.7815 186.584 27.9304C184.905 27.0792 183.465 25.8213 182.397 24.2714C182.297 24.1271 182.208 23.9717 182.12 23.8163C181.893 23.3074 181.552 22.8581 181.122 22.5037C180.693 22.1493 180.187 21.8994 179.644 21.7739L178.967 21.4964C177.084 20.6497 175.586 19.1281 174.769 17.2316C173.952 15.335 173.875 13.2012 174.553 11.2507C175.232 9.30029 176.616 7.67482 178.434 6.69481C180.252 5.7148 182.371 5.45136 184.373 5.95645V5.95645C184.818 6.10288 185.235 6.32437 185.605 6.61135V6.61135C188.569 3.92516 191.155 2.99276 195.673 2.93726C197.76 2.93726 199.258 3.42566 200.113 4.42466C201.066 3.085 202.259 1.9334 203.631 1.02808C204.481 0.458128 205.461 0.112411 206.479 0.0231325C207.498 -0.0661464 208.523 0.103914 209.459 0.517474C210.071 0.856147 210.641 1.26599 211.157 1.73847C211.614 2.30089 212.225 2.7173 212.915 2.93627C213.606 3.15523 214.345 3.16715 215.042 2.97057L215.908 2.87067C220.981 2.45997 225.187 7.23295 225.787 11.7506C225.787 11.9393 226.375 16.3793 224.799 17.9333C224.37 18.3377 223.853 18.6382 223.289 18.8114C222.725 18.9846 222.129 19.0259 221.547 18.9323H221.425C221.384 20.2874 220.973 21.6053 220.235 22.7426C219.497 23.8798 218.461 24.7926 217.24 25.3814C214.698 26.6468 211.468 26.7689 207.65 25.7477C206.571 25.5573 205.575 25.0423 204.797 24.2714C204.56 23.977 204.386 23.6369 204.286 23.2724C201.685 26.0663 198.319 28.0315 194.607 28.9223C193.751 29.0839 192.881 29.1583 192.01 29.1443V29.1443ZM182.464 6.84445C180.967 6.85524 179.508 7.31336 178.274 8.15994C177.039 9.00652 176.086 10.2029 175.537 11.5952C175.015 13.2928 175.117 15.1213 175.825 16.7501C176.534 18.3788 177.802 19.7002 179.4 20.4752L180.055 20.7305C180.719 20.9039 181.337 21.2216 181.865 21.661C182.392 22.1003 182.817 22.6505 183.108 23.2724L183.363 23.6942C185.439 27.0242 190.023 28.6892 194.385 27.7901C198.355 26.787 201.899 24.5385 204.497 21.3743C204.633 21.1373 204.818 20.9327 205.041 20.7749C205.156 20.7003 205.294 20.669 205.43 20.6866C205.565 20.7042 205.691 20.7696 205.783 20.871C205.875 20.9725 205.928 21.1034 205.932 21.2403C205.937 21.3772 205.892 21.5113 205.807 21.6185L205.441 22.0292C205.402 22.1253 205.376 22.226 205.363 22.3289C205.314 22.7497 205.433 23.1729 205.696 23.5055C206.331 24.0885 207.121 24.4742 207.971 24.6155C211.512 25.5701 214.476 25.4702 216.752 24.338C218.024 23.746 219.052 22.7308 219.659 21.4656C220.266 20.2004 220.416 18.7636 220.082 17.4005V17.4005C220.039 17.2533 220.056 17.0952 220.13 16.9609C220.204 16.8267 220.328 16.7272 220.476 16.6846C220.623 16.6419 220.781 16.6594 220.915 16.7333C221.049 16.8072 221.149 16.9314 221.192 17.0786V17.0786C221.225 17.2464 221.305 17.4014 221.423 17.5253C221.541 17.6491 221.692 17.7368 221.858 17.7779C222.247 17.8216 222.642 17.7818 223.015 17.6612C223.388 17.5407 223.731 17.3421 224.022 17.0786C224.832 16.2683 224.888 13.5377 224.666 11.8616C224.144 7.84345 220.337 3.61436 216.03 3.95846L215.22 4.04726C214.363 4.26706 213.462 4.24437 212.617 3.98172C211.772 3.71907 211.017 3.2268 210.436 2.55987C209.992 2.13467 209.5 1.7622 208.97 1.44987C208.207 1.13175 207.376 1.00783 206.553 1.08919C205.73 1.17054 204.94 1.45464 204.253 1.91607C202.796 2.93254 201.543 4.21255 200.557 5.69005C200.495 5.76954 200.413 5.8314 200.32 5.86946C200.226 5.90753 200.124 5.92047 200.025 5.90699C199.925 5.89352 199.83 5.8541 199.75 5.79267C199.67 5.73124 199.608 5.64994 199.569 5.55685C198.992 4.15826 196.905 3.96956 195.739 3.99176C191.355 3.99176 189.013 4.93526 186.116 7.66585C186.024 7.74992 185.908 7.80274 185.784 7.8167C185.661 7.83066 185.536 7.80505 185.427 7.74355L184.972 7.44385C184.71 7.23865 184.418 7.07402 184.107 6.95545V6.95545C183.566 6.84901 183.014 6.81171 182.464 6.84445V6.84445Z" fill="#D1D3D4"/>
<path d="M206.506 22.118C206.135 22.1125 205.765 22.0866 205.396 22.0403C203.598 21.7693 201.915 20.9853 200.551 19.7824C199.187 18.5795 198.198 17.0087 197.704 15.2582C197.684 15.186 197.678 15.1106 197.687 15.0363C197.697 14.9619 197.721 14.8901 197.758 14.8251C197.795 14.76 197.845 14.703 197.904 14.6573C197.963 14.6116 198.031 14.5782 198.104 14.5589C198.251 14.5217 198.407 14.5439 198.537 14.6207C198.668 14.6976 198.764 14.8229 198.803 14.9696C199.215 16.5164 200.075 17.9066 201.276 18.9647C202.477 20.0229 203.965 20.7017 205.551 20.9154C207.137 21.1291 208.752 20.8682 210.19 20.1656C211.628 19.4631 212.826 18.3502 213.632 16.9676C213.67 16.9018 213.721 16.8443 213.781 16.7985C213.842 16.7527 213.911 16.7195 213.984 16.7008C214.058 16.6822 214.134 16.6785 214.209 16.69C214.284 16.7015 214.356 16.728 214.421 16.7678C214.548 16.8461 214.64 16.9709 214.677 17.1159C214.715 17.2609 214.694 17.4147 214.62 17.5448C213.773 18.938 212.581 20.0902 211.16 20.891C209.74 21.6917 208.137 22.1142 206.506 22.118Z" fill="#D1D3D4"/>
<path d="M183.219 12.6496C183.079 11.851 183.161 11.0294 183.455 10.2739C183.748 9.51837 184.244 8.85774 184.886 8.36366C185.529 7.86959 186.295 7.56093 187.101 7.47116C187.906 7.38138 188.721 7.51393 189.457 7.85441" fill="white"/>
<path d="M183.219 13.1713C183.084 13.1734 182.954 13.1276 182.85 13.0422C182.746 12.9568 182.676 12.8373 182.653 12.7051C182.491 11.802 182.58 10.8719 182.912 10.0164C183.243 9.1608 183.802 8.41266 184.53 7.85365C185.257 7.29464 186.124 6.94625 187.036 6.84655C187.948 6.74685 188.87 6.89966 189.701 7.28829C189.83 7.35884 189.927 7.47572 189.972 7.61518C190.018 7.75463 190.008 7.90621 189.946 8.03908C189.884 8.17195 189.774 8.27616 189.637 8.33051C189.501 8.38486 189.349 8.38528 189.213 8.33169C188.573 8.03092 187.862 7.91218 187.159 7.98849C186.456 8.0648 185.787 8.33321 185.227 8.76429C184.666 9.19537 184.235 9.77249 183.981 10.4324C183.726 11.0922 183.658 11.8094 183.785 12.5053C183.811 12.6553 183.776 12.8095 183.689 12.9343C183.601 13.059 183.468 13.1442 183.319 13.1713H183.219Z" fill="#D1D3D4"/>
<path d="M45.8346 38.4903C45.8318 38.344 45.7724 38.2045 45.6689 38.101C45.5654 37.9975 45.4259 37.9381 45.2796 37.9353C45.1324 37.9353 44.9913 37.9938 44.8872 38.0979C44.7831 38.2019 44.7246 38.3431 44.7246 38.4903C44.9133 40.1664 45.1131 41.8203 45.3018 43.5186C45.3047 43.6649 45.364 43.8044 45.4675 43.9079C45.571 44.0114 45.7105 44.0707 45.8568 44.0736C46.0031 44.0707 46.1426 44.0114 46.2461 43.9079C46.3496 43.8044 46.409 43.6649 46.4118 43.5186C46.2231 41.8425 46.0233 40.1664 45.8346 38.4903Z" fill="#D1D3D4"/>
<path d="M56.8679 45.7389C56.8314 45.6755 56.7829 45.6199 56.7249 45.5752C56.667 45.5306 56.6008 45.4978 56.5302 45.4787C56.4596 45.4597 56.386 45.4547 56.3134 45.4641C56.2409 45.4735 56.1709 45.4971 56.1075 45.5335C56.0441 45.57 55.9885 45.6186 55.9439 45.6765C55.8992 45.7344 55.8665 45.8006 55.8474 45.8712C55.8283 45.9418 55.8233 46.0155 55.8327 46.088C55.8422 46.1605 55.8657 46.2305 55.9022 46.2939C56.0457 46.5034 56.1684 46.7265 56.2685 46.9599V47.0487V47.1819C56.2685 47.304 56.3573 47.4261 56.3906 47.5482C56.4594 47.7809 56.5113 48.0184 56.546 48.2586V48.3585C56.546 48.3585 56.546 48.4584 56.546 48.5028C56.546 48.5472 56.546 48.7803 56.546 48.9135C56.546 49.0607 56.6045 49.2018 56.7085 49.3059C56.8126 49.41 56.9538 49.4685 57.101 49.4685C57.2482 49.4685 57.3893 49.41 57.4934 49.3059C57.5975 49.2018 57.656 49.0607 57.656 48.9135C57.6836 47.8037 57.4113 46.7069 56.8679 45.7389V45.7389Z" fill="#D1D3D4"/>
<path d="M65.7481 41.2654C65.6038 40.4329 65.4706 39.6004 65.3263 38.7679C65.2873 38.627 65.1944 38.5072 65.0676 38.4345C64.9408 38.3617 64.7905 38.3419 64.6492 38.3794C64.5091 38.4232 64.3909 38.5187 64.3187 38.6465C64.2465 38.7744 64.2258 38.925 64.2607 39.0676C64.3939 39.9001 64.5382 40.7326 64.6714 41.5651C64.7128 41.7068 64.8079 41.8267 64.9365 41.8993C65.065 41.9718 65.2169 41.9913 65.3596 41.9536C65.4997 41.9098 65.6179 41.8142 65.6901 41.6864C65.7623 41.5585 65.783 41.408 65.7481 41.2654V41.2654Z" fill="#D1D3D4"/>
<path d="M194.075 38.3572L193.231 35.4379C193.212 35.3651 193.179 35.2966 193.133 35.2365C193.088 35.1765 193.031 35.1259 192.966 35.0878C192.901 35.0496 192.83 35.0247 192.755 35.0143C192.68 35.0039 192.605 35.0083 192.532 35.0272C192.459 35.0462 192.39 35.0793 192.33 35.1247C192.27 35.1701 192.22 35.2269 192.181 35.2918C192.143 35.3568 192.118 35.4286 192.108 35.5032C192.098 35.5777 192.102 35.6537 192.121 35.7265L192.953 38.6458C192.992 38.793 193.087 38.919 193.218 38.996C193.349 39.073 193.506 39.0948 193.653 39.0565C193.8 39.0183 193.926 38.9231 194.003 38.7919C194.08 38.6608 194.102 38.5044 194.063 38.3572H194.075Z" fill="#D1D3D4"/>
<path d="M205.607 41.6982C205.461 41.7011 205.321 41.7605 205.218 41.8639C205.114 41.9674 205.055 42.1069 205.052 42.2532V45.5832C205.052 45.7304 205.111 45.8716 205.215 45.9757C205.319 46.0798 205.46 46.1382 205.607 46.1382C205.754 46.1354 205.893 46.076 205.997 45.9725C206.1 45.8691 206.159 45.7295 206.162 45.5832V42.2532C206.159 42.1069 206.1 41.9674 205.997 41.8639C205.893 41.7605 205.754 41.7011 205.607 41.6982Z" fill="#D1D3D4"/>
<path d="M216.63 42.2532C216.624 42.1078 216.564 41.9698 216.461 41.8669C216.358 41.764 216.22 41.7037 216.075 41.6982C215.797 41.6982 215.475 41.9535 215.52 42.2532L216.152 47.2704C216.152 47.4176 216.211 47.5588 216.315 47.6629C216.419 47.7669 216.56 47.8254 216.707 47.8254C216.855 47.8254 216.996 47.7669 217.1 47.6629C217.204 47.5588 217.262 47.4176 217.262 47.2704L216.63 42.2532Z" fill="#D1D3D4"/>
<path d="M211.435 66.7063C211.289 66.7091 211.149 66.7685 211.046 66.872C210.942 66.9755 210.883 67.115 210.88 67.2613V69.337C210.88 69.4842 210.938 69.6253 211.042 69.7294C211.147 69.8335 211.288 69.892 211.435 69.892C211.582 69.892 211.723 69.8335 211.827 69.7294C211.931 69.6253 211.99 69.4842 211.99 69.337V67.2613C211.99 67.1141 211.931 66.9729 211.827 66.8689C211.723 66.7648 211.582 66.7063 211.435 66.7063Z" fill="#D1D3D4"/>
<path d="M222.834 78.3503C222.413 76.9628 222.002 75.5753 221.58 74.1878C221.536 74.0476 221.441 73.9295 221.313 73.8573C221.185 73.7851 221.034 73.7644 220.892 73.7993C220.753 73.8406 220.636 73.9345 220.565 74.061C220.495 74.1875 220.477 74.3366 220.514 74.4764C220.925 75.875 221.347 77.2625 221.769 78.65C221.788 78.7228 221.822 78.7911 221.868 78.8509C221.914 78.9107 221.972 78.9609 222.037 78.9985C222.103 79.0361 222.175 79.0605 222.25 79.0702C222.325 79.0799 222.401 79.0748 222.474 79.0551C222.546 79.0354 222.615 79.0016 222.675 78.9555C222.734 78.9094 222.785 78.852 222.822 78.7866C222.86 78.7211 222.884 78.6489 222.894 78.574C222.904 78.4992 222.898 78.4231 222.879 78.3503H222.834Z" fill="#D1D3D4"/>
<path d="M37.7316 51.4329C37.7287 51.2866 37.6693 51.1471 37.5659 51.0436C37.4624 50.9402 37.3229 50.8808 37.1766 50.8779C37.0294 50.8779 36.8882 50.9364 36.7841 51.0405C36.6801 51.1446 36.6216 51.2857 36.6216 51.4329C36.7548 52.6761 36.888 53.9304 37.0323 55.1847C37.0323 55.3319 37.0907 55.4731 37.1948 55.5772C37.2989 55.6812 37.4401 55.7397 37.5873 55.7397C37.7336 55.7369 37.8731 55.6775 37.9766 55.574C38.08 55.4705 38.1394 55.331 38.1423 55.1847C37.998 53.9304 37.8648 52.6761 37.7316 51.4329Z" fill="#D1D3D4"/>
<path d="M43.1707 75.4534C42.7499 73.869 42.6368 72.2186 42.8377 70.5916C42.8377 70.4444 42.7792 70.3033 42.6751 70.1992C42.571 70.0951 42.4299 70.0366 42.2827 70.0366C42.1355 70.0366 41.9943 70.0951 41.8902 70.1992C41.7861 70.3033 41.7277 70.4444 41.7277 70.5916C41.5213 72.3198 41.6456 74.0714 42.094 75.7531C42.1337 75.8959 42.2285 76.017 42.3576 76.0899C42.4867 76.1627 42.6394 76.1813 42.7822 76.1416C42.9249 76.1019 43.0461 76.007 43.1189 75.878C43.1918 75.7489 43.2104 75.5962 43.1707 75.4534Z" fill="#D1D3D4"/>
<path d="M48.9202 56.2837C48.7739 56.2865 48.6344 56.3459 48.5309 56.4494C48.4275 56.5529 48.3681 56.6924 48.3652 56.8387V59.3362C48.3652 59.4834 48.4237 59.6245 48.5278 59.7286C48.6319 59.8327 48.773 59.8912 48.9202 59.8912C49.0674 59.8912 49.2086 59.8327 49.3127 59.7286C49.4168 59.6245 49.4752 59.4834 49.4752 59.3362V56.8387C49.4724 56.6924 49.413 56.5529 49.3095 56.4494C49.2061 56.3459 49.0665 56.2865 48.9202 56.2837V56.2837Z" fill="#D1D3D4"/>
</g>
<defs>
<clipPath id="clip0">
<rect width="250" height="250" fill="white"/>
</clipPath>
</defs>
</svg>
