<svg width="250" height="250" viewBox="0 0 250 250" fill="none" xmlns="http://www.w3.org/2000/svg">
<path d="M104.436 163.612C104.565 173.664 106.235 185.363 98.252 193.043C95.9788 195.21 93.1131 196.737 90.9368 199.012C88.7606 201.287 87.3492 204.851 88.8683 207.678C89.4333 208.579 90.2062 209.331 91.1214 209.868C92.0366 210.406 93.0672 210.713 94.1258 210.765C96.2423 210.853 98.3553 210.518 100.342 209.779C101.018 209.477 101.768 209.383 102.497 209.508C107.41 210.852 104.458 242.937 104.447 248.137V250H212.731V181.756C212.731 172.516 221.921 178.506 222.902 171.855C223.882 165.204 206.17 164.273 213.723 157.34C221.275 150.407 243.576 131.808 235.043 127.757C226.511 123.705 206.677 135.924 206.257 130.465C205.836 125.005 212.915 120.391 206.257 118.744C199.598 117.097 186.487 128.645 188.125 119.405C189.762 110.165 194.686 101.921 188.125 103.568C181.564 105.214 176.64 110.165 176.64 100.936V64.9721L154.501 63.1631C154.501 63.1631 155.977 87.0701 154.501 103.568C153.025 120.066 136.186 98.2925 130.637 95.9852C125.089 93.6779 115.942 94.3387 119.228 101.596C122.514 108.854 115.942 117.043 111.029 114.097C106.117 111.151 84.4512 100.903 85.1084 108.832C85.7655 116.762 100.525 117.065 102.163 120.878C103.8 124.691 69.9393 135.242 72.9343 141.839C75.9293 148.436 104.35 156.917 104.436 163.612Z" fill="#754EE4"/>
<path d="M223.474 5.97904C223.474 7.44141 223.086 8.62214 216.826 8.62214C210.567 8.62214 200.806 7.44141 200.806 5.97904C200.806 4.51667 210.567 3.33594 216.826 3.33594C223.086 3.33594 223.474 4.5275 223.474 5.97904Z" fill="white"/>
<path d="M216.826 9.16437C214.251 9.16437 200.267 8.57943 200.267 5.97965C200.267 3.37987 214.273 2.79492 216.826 2.79492C222.902 2.79492 224.012 3.87816 224.012 5.97965C224.012 8.08114 222.902 9.16437 216.826 9.16437ZM201.398 5.97965C202.379 6.88957 210.017 8.08113 216.826 8.08113C222.935 8.08113 222.935 6.9979 222.935 5.97965C222.935 4.9614 222.935 3.87816 216.826 3.87816C210.028 3.92149 202.379 5.08056 201.398 5.97965Z" fill="#231F20"/>
<path d="M176.36 5.97904C176.36 7.44141 176.748 8.62214 183.008 8.62214C189.267 8.62214 198.985 7.44141 198.985 5.97904C198.985 4.51667 189.224 3.33594 182.965 3.33594C176.705 3.33594 176.36 4.5275 176.36 5.97904Z" fill="white"/>
<path d="M182.975 9.16437C176.899 9.16437 175.789 8.08114 175.789 5.97965C175.789 3.87816 176.866 2.79492 182.975 2.79492C185.55 2.79492 199.534 3.39071 199.534 5.97965C199.534 8.56859 185.55 9.16437 182.975 9.16437ZM182.975 3.87816C176.866 3.87816 176.866 4.9614 176.866 5.97965C176.866 6.9979 176.866 8.08113 182.975 8.08113C189.773 8.08113 197.422 6.88957 198.403 5.97965C197.422 5.08056 189.773 3.92149 182.975 3.92149V3.87816Z" fill="#231F20"/>
<path d="M232.005 85.2618C239.574 85.2618 245.709 69.2962 245.709 49.6016C245.709 29.907 239.574 13.9414 232.005 13.9414C224.437 13.9414 218.301 29.907 218.301 49.6016C218.301 69.2962 224.437 85.2618 232.005 85.2618Z" fill="white"/>
<path d="M232.006 85.8035C224.023 85.8035 217.763 69.9016 217.763 49.6017C217.763 29.3018 224.023 13.3999 232.006 13.3999C239.989 13.3999 246.248 29.3018 246.248 49.6017C246.248 69.9016 240 85.8035 232.006 85.8035ZM232.006 14.4831C224.744 14.4831 218.841 30.2334 218.841 49.6017C218.841 68.97 224.744 84.7202 232.006 84.7202C239.267 84.7202 245.171 68.97 245.171 49.6017C245.171 30.2334 239.267 14.4831 232.006 14.4831Z" fill="#231F20"/>
<path d="M209.209 24.2866H190.592C188.605 24.2866 186.994 25.9065 186.994 27.9046V28.1429C186.994 30.1411 188.605 31.761 190.592 31.761H209.209C211.196 31.761 212.807 30.1411 212.807 28.1429V27.9046C212.807 25.9065 211.196 24.2866 209.209 24.2866Z" fill="#231F20"/>
<path d="M209.199 32.3457H190.604C189.494 32.3457 188.43 31.9032 187.644 31.1153C186.858 30.3274 186.415 29.2584 186.413 28.1427V27.9152C186.415 26.7985 186.858 25.7284 187.643 24.9388C188.429 24.1491 189.493 23.7043 190.604 23.7014H209.199C210.309 23.7043 211.374 24.1491 212.159 24.9388C212.944 25.7284 213.387 26.7985 213.39 27.9152V28.1427C213.387 29.2584 212.944 30.3274 212.158 31.1153C211.373 31.9032 210.308 32.3457 209.199 32.3457ZM190.604 24.8713C189.801 24.8713 189.031 25.192 188.463 25.7629C187.895 26.3337 187.576 27.1079 187.576 27.9152V28.1427C187.576 28.95 187.895 29.7242 188.463 30.2951C189.031 30.8659 189.801 31.1866 190.604 31.1866H209.199C209.596 31.1866 209.99 31.1079 210.357 30.9549C210.724 30.8019 211.058 30.5777 211.339 30.2951C211.62 30.0124 211.843 29.6769 211.996 29.3076C212.148 28.9383 212.226 28.5424 212.226 28.1427V27.9152C212.226 27.5155 212.148 27.1197 211.996 26.7504C211.843 26.3811 211.62 26.0455 211.339 25.7629C211.058 25.4802 210.724 25.256 210.357 25.103C209.99 24.9501 209.596 24.8713 209.199 24.8713H190.604Z" fill="#231F20"/>
<path d="M154.501 57.7147C154.501 57.7147 155.977 34.6201 162.861 30.3413H232.587C232.587 30.3413 235.647 31.2187 235.647 39.5705C235.647 47.9223 232.587 50.7928 232.587 50.7928C232.587 50.7928 180.713 48.5614 178.504 50.7928C176.296 53.0243 177.19 61.3327 177.19 61.3327L154.501 57.7147Z" fill="white"/>
<path d="M177.19 61.8851H177.104L154.415 58.2563C154.28 58.2374 154.158 58.1672 154.074 58.0603C153.99 57.9534 153.95 57.818 153.962 57.6822C153.962 56.7289 155.535 34.2626 162.581 29.8755C162.665 29.8238 162.762 29.7975 162.861 29.7996H232.587C232.637 29.7891 232.688 29.7891 232.738 29.7996C233.083 29.8971 236.186 31.0345 236.186 39.5488C236.186 48.063 233.083 51.0419 232.954 51.1611C232.844 51.2519 232.708 51.305 232.566 51.3127C212.796 50.457 180.745 49.6662 178.871 51.1611C177.211 52.8293 177.481 59.0254 177.718 61.2677C177.727 61.3509 177.717 61.4351 177.689 61.5139C177.661 61.5927 177.616 61.6641 177.556 61.7227C177.458 61.8195 177.327 61.8772 177.19 61.8851V61.8851ZM155.072 57.2597L176.619 60.7044C176.436 58.5379 176.134 52.4285 178.149 50.4028C180.4 48.1497 223.139 49.8395 232.393 50.2403C232.964 49.5471 235.141 46.514 235.141 39.5704C235.141 32.6269 232.9 31.067 232.512 30.9045H163.023C157.086 34.8259 155.33 53.9342 155.072 57.2597V57.2597Z" fill="#231F20"/>
<path d="M193.706 163.276C186.811 160.991 154.006 153.408 154.006 153.408C154.006 153.408 201.248 160.991 203.219 156.04C205.191 151.09 195.344 146.811 189.763 145.489C184.182 144.168 140.744 134.278 142.78 132.621C144.816 130.963 169.261 127.345 174.594 122.731C179.927 118.116 178.774 113.155 174.594 112.505C170.414 111.855 154.329 117.119 145.15 116.134C135.971 115.148 125.133 112.505 117.591 118.441C113.157 121.947 108.435 125.071 103.478 127.778L6.51639 101.781L3.56445 126.089V138.676L96.7769 166.071C96.7769 166.071 165.296 192.307 174.572 193.303C183.848 194.3 186.132 192.307 183.838 189.339C181.543 186.371 148.08 173.459 148.08 173.459C148.08 173.459 197.294 190.66 195.484 181.713C194.676 177.651 183.547 174.13 173.56 171.812C186.714 174.206 203.499 176.806 205.46 174.823C208.8 171.53 200.59 165.594 193.706 163.276Z" fill="white"/>
<path d="M178.861 194.095C177.421 194.083 175.982 193.996 174.551 193.835C165.318 192.86 99.4275 167.642 96.6371 166.57L3.43547 139.196C3.32169 139.167 3.22129 139.099 3.15079 139.005C3.0803 138.91 3.04391 138.794 3.04762 138.676V126.024L6.01034 101.651C6.01569 101.573 6.03889 101.497 6.07812 101.43C6.11736 101.362 6.17158 101.304 6.23658 101.261C6.30157 101.22 6.37407 101.192 6.44989 101.179C6.52571 101.166 6.60334 101.168 6.6783 101.185L103.414 127.183C108.271 124.508 112.901 121.435 117.258 117.997C123.851 112.808 132.955 114 140.959 115.062C142.392 115.246 143.804 115.43 145.172 115.582C150.408 116.145 158.1 114.607 164.252 113.415C169.014 112.462 172.784 111.704 174.637 111.996C175.524 112.086 176.364 112.437 177.052 113.005C177.74 113.574 178.246 114.335 178.505 115.192C179.195 117.64 177.848 120.608 174.907 123.175C171.448 126.165 160.815 128.591 152.282 130.584C149.325 131.181 146.401 131.937 143.523 132.848C145.484 133.932 155.137 136.911 187.469 144.428L189.871 144.991C194.256 146.075 201.507 148.956 203.467 152.758C203.767 153.29 203.944 153.883 203.983 154.492C204.022 155.102 203.923 155.713 203.694 156.279C202.239 159.951 181.145 157.795 166.503 155.824C176.577 158.229 189.785 161.457 193.857 162.822C199.384 164.674 205.859 168.855 206.689 172.397C206.82 172.905 206.815 173.438 206.673 173.943C206.531 174.448 206.257 174.905 205.881 175.268C205.331 175.81 203.823 177.326 184.334 174.25C191.638 176.665 195.581 179.146 196.087 181.67C196.185 182.059 196.173 182.467 196.053 182.85C195.933 183.232 195.71 183.574 195.409 183.836C194.536 184.605 191.886 186.924 169.466 180.727C167.311 180.132 165.157 179.503 163.099 178.886C172.472 182.742 182.976 187.335 184.312 189.058C185.497 190.596 185.389 191.657 185.001 192.307C184.29 193.488 182.243 194.095 178.861 194.095ZM4.12497 138.243L96.9496 165.519C97.6822 165.79 165.555 191.755 174.648 192.73C182.19 193.531 183.709 192.264 184.032 191.647C184.355 191.029 183.892 190.206 183.439 189.61C181.823 187.519 161.3 179.07 147.887 173.903C147.756 173.851 147.651 173.751 147.593 173.622C147.536 173.494 147.53 173.348 147.578 173.215C147.625 173.082 147.723 172.974 147.849 172.912C147.975 172.85 148.12 172.841 148.253 172.885C159.759 176.904 190.518 186.544 194.655 182.916C194.818 182.778 194.937 182.594 194.997 182.387C195.056 182.181 195.053 181.961 194.989 181.757C194.644 180.023 191.379 176.47 173.442 172.278C173.303 172.247 173.183 172.163 173.107 172.043C173.03 171.923 173.003 171.778 173.032 171.639C173.063 171.502 173.145 171.382 173.261 171.303C173.377 171.225 173.519 171.194 173.657 171.217C200.074 176.026 204.437 175.03 205.083 174.38C205.33 174.148 205.509 173.853 205.6 173.526C205.691 173.2 205.691 172.854 205.6 172.527C204.889 169.451 198.749 165.497 193.48 163.731C186.693 161.457 154.157 153.928 153.834 153.852C153.691 153.825 153.565 153.742 153.483 153.621C153.401 153.5 153.37 153.351 153.397 153.208C153.425 153.064 153.507 152.937 153.628 152.855C153.748 152.773 153.896 152.742 154.038 152.769C180.735 157.102 201.636 158.337 202.67 155.748C202.837 155.325 202.907 154.87 202.875 154.416C202.844 153.963 202.711 153.522 202.487 153.127C200.698 149.671 193.631 146.876 189.559 145.923L187.156 145.36C142.597 134.993 142.274 133.574 142.101 132.805C142.074 132.675 142.084 132.54 142.13 132.415C142.175 132.291 142.255 132.182 142.36 132.101C143.168 131.44 146.217 130.725 151.97 129.393C159.964 127.551 170.899 125.06 174.153 122.222C176.771 119.958 177.988 117.391 177.385 115.365C177.182 114.709 176.791 114.128 176.259 113.696C175.728 113.264 175.081 113 174.4 112.938C172.73 112.678 168.863 113.448 164.381 114.347C158.143 115.603 150.375 117.152 144.989 116.567C143.61 116.426 142.198 116.231 140.755 116.047C132.545 114.964 124.056 113.881 117.818 118.766C113.359 122.292 108.613 125.434 103.629 128.158C103.504 128.206 103.366 128.206 103.241 128.158L7.00151 102.399L4.11421 126.089L4.12497 138.243Z" fill="#231F20"/>
<path d="M93.2002 139.922C92.3814 135.177 97.5096 130.498 102.142 131.809C102.358 128.126 106.452 126.1 109.856 124.843L116.32 122.482C118.712 121.615 121.201 120.716 123.743 120.9C126.286 121.085 128.914 122.623 129.55 125.103C129.927 126.609 129.712 128.581 131.058 129.339C131.861 129.606 132.693 129.774 133.536 129.837C134.159 130.041 134.688 130.462 135.028 131.025C135.368 131.587 135.496 132.253 135.389 132.903C138.988 128.483 146.314 129.35 150.742 132.903C152.896 134.658 154.803 137.431 154.049 140.139C153.64 141.579 152.53 143.009 153.079 144.396C154.353 144.364 155.587 144.836 156.517 145.712C157.446 146.588 157.995 147.796 158.046 149.075L170.134 151.686C172.806 152.271 175.521 152.878 177.783 154.502C180.045 156.127 181.511 159.03 180.67 161.652C179.83 164.273 177.072 165.681 174.572 166.808C176.275 169.559 177.858 173.481 175.488 175.68C174.217 176.86 172.256 176.99 171.006 178.225C169.595 179.688 169.8 182.017 169.261 183.977C168.421 187.065 165.598 189.296 162.56 190.271C159.469 191.084 156.266 191.38 153.079 191.148C149.546 197.106 142.133 199.955 135.249 199.489C128.365 199.023 121.965 195.709 116.363 191.657C115.232 190.845 114.015 189.274 114.963 188.234C114.672 190.748 111.731 191.82 109.199 192.275C102.929 193.358 96.3999 194.051 90.2267 192.427C84.0535 190.802 78.2681 186.566 76.2212 180.511C75.3393 177.715 75.2619 174.725 75.9977 171.886C76.7335 169.048 78.2526 166.476 80.3797 164.468C78.3974 163.775 77.4386 161.327 77.7726 159.236C78.2792 157.183 79.3377 155.309 80.8322 153.82C82.082 152.412 84.3983 152.813 85.1416 151.978C85.885 151.144 85.648 148.068 86.1328 146.833C86.5206 145.652 93.0278 138.915 93.2002 139.922Z" fill="white"/>
<path d="M136.758 200.041C136.241 200.041 135.68 200.041 135.185 199.987C129.108 199.565 122.838 196.976 116.019 192.058C115.397 191.615 114.869 191.052 114.467 190.401C113.027 191.725 111.204 192.552 109.264 192.762C103.823 193.748 96.7233 194.658 90.0652 192.914C83.1271 191.083 77.6218 186.414 75.7042 180.619C74.8259 177.855 74.7056 174.903 75.3559 172.076C76.0063 169.249 77.4032 166.65 79.3995 164.555C78.5725 163.945 77.9323 163.114 77.5514 162.156C77.1705 161.199 77.0643 160.153 77.2448 159.138C77.7633 156.957 78.8835 154.967 80.4768 153.397C81.2821 152.623 82.3204 152.139 83.4288 152.021C83.9086 151.978 84.3707 151.818 84.7755 151.556C85.116 150.74 85.2848 149.862 85.271 148.978C85.3043 148.163 85.4345 147.356 85.6589 146.573C85.9282 145.88 90.6793 140.474 92.6509 139.488C92.624 138.319 92.8474 137.158 93.3062 136.083C93.7649 135.008 94.4481 134.045 95.3095 133.259C96.1709 132.473 97.1903 131.883 98.2986 131.528C99.4069 131.173 100.578 131.062 101.733 131.202C102.369 127.497 106.559 125.547 109.727 124.388L116.191 122.027C118.603 120.964 121.207 120.415 123.84 120.413C126.361 120.586 129.399 122.102 130.132 125.027C130.24 125.471 130.304 125.948 130.369 126.403C130.509 127.486 130.649 128.504 131.392 128.927C131.782 129.102 132.204 129.194 132.631 129.198C132.995 129.223 133.356 129.281 133.709 129.371C134.234 129.539 134.707 129.839 135.084 130.243C135.461 130.647 135.73 131.141 135.863 131.678C139.893 128.039 146.745 129.057 151.086 132.567C153.317 134.365 155.396 137.365 154.566 140.377C154.426 140.842 154.232 141.297 154.049 141.742C153.68 142.403 153.487 143.149 153.489 143.908C154.743 143.978 155.932 144.486 156.853 145.345C157.774 146.203 158.367 147.358 158.531 148.609L170.231 151.133C172.806 151.697 175.736 152.325 178.074 154.036C180.229 155.629 182.136 158.738 181.166 161.792C180.326 164.403 177.783 165.876 175.327 167.024C176.792 169.548 178.451 173.621 175.833 176.059C175.138 176.641 174.342 177.089 173.485 177.38C172.694 177.634 171.962 178.043 171.33 178.582C170.556 179.602 170.122 180.842 170.091 182.125C170.006 182.788 169.884 183.447 169.725 184.096C169.174 185.702 168.242 187.148 167.011 188.311C165.78 189.473 164.285 190.317 162.657 190.769C159.615 191.59 156.458 191.894 153.317 191.668C150.106 196.857 143.75 200.041 136.758 200.041ZM115.211 189.339C115.501 190.092 116.017 190.735 116.687 191.181C123.334 195.968 129.432 198.503 135.303 198.904C142.5 199.391 149.46 196.153 152.627 190.823C152.672 190.737 152.74 190.667 152.825 190.621C152.909 190.574 153.005 190.554 153.101 190.563C156.229 190.794 159.373 190.509 162.409 189.718C164.92 188.906 167.904 186.923 168.755 183.793C168.91 183.184 169.025 182.565 169.1 181.941C169.155 180.435 169.692 178.988 170.63 177.813C171.349 177.162 172.192 176.665 173.107 176.351C173.841 176.114 174.527 175.747 175.133 175.268C177.385 173.188 175.467 169.245 174.131 167.078C174.089 167.014 174.061 166.94 174.05 166.864C174.038 166.787 174.044 166.709 174.066 166.634C174.092 166.561 174.132 166.494 174.184 166.436C174.235 166.378 174.298 166.332 174.368 166.299C176.889 165.161 179.41 163.85 180.164 161.467C180.918 159.084 179.345 156.3 177.471 154.968C175.316 153.397 172.515 152.801 170.037 152.249L157.938 149.638C157.818 149.613 157.71 149.546 157.633 149.449C157.556 149.352 157.516 149.231 157.518 149.108C157.449 147.995 156.956 146.951 156.141 146.195C155.326 145.438 154.253 145.027 153.144 145.045C153.03 145.054 152.917 145.025 152.822 144.962C152.726 144.9 152.654 144.807 152.616 144.699C152.465 144.134 152.429 143.545 152.511 142.966C152.592 142.387 152.789 141.83 153.09 141.33C153.272 140.933 153.427 140.524 153.554 140.106C154.254 137.604 152.401 135.015 150.44 133.433C146.249 130.043 139.225 129.165 135.842 133.314C135.768 133.41 135.663 133.477 135.545 133.505C135.428 133.532 135.304 133.519 135.195 133.466C135.086 133.415 134.997 133.328 134.942 133.22C134.888 133.112 134.871 132.989 134.894 132.87C134.983 132.353 134.883 131.821 134.611 131.372C134.34 130.924 133.916 130.59 133.418 130.433C133.117 130.36 132.811 130.316 132.502 130.303C131.919 130.286 131.347 130.145 130.821 129.891C129.615 129.198 129.432 127.8 129.27 126.565C129.219 126.147 129.148 125.731 129.055 125.32C128.484 123.023 125.941 121.669 123.732 121.518C121.265 121.333 118.744 122.265 116.536 123.067L110.072 125.428C107.012 126.511 102.918 128.439 102.713 131.927C102.707 132.008 102.684 132.087 102.645 132.158C102.606 132.229 102.552 132.291 102.487 132.339C102.419 132.383 102.343 132.413 102.263 132.426C102.184 132.439 102.102 132.435 102.024 132.415C100.963 132.204 99.8678 132.246 98.8256 132.536C97.7834 132.826 96.8229 133.357 96.0206 134.085C95.2182 134.814 94.5961 135.722 94.2037 136.735C93.8114 137.748 93.6596 138.839 93.7606 139.922V139.922C93.7745 139.991 93.7743 140.062 93.7599 140.131C93.7455 140.2 93.7173 140.266 93.677 140.324C93.6367 140.381 93.5851 140.43 93.5254 140.467C93.4656 140.504 93.399 140.529 93.3296 140.539C93.2289 140.577 93.1179 140.577 93.0172 140.539C90.6265 142.426 88.4835 144.61 86.6393 147.039C86.4557 147.725 86.3508 148.43 86.3268 149.14C86.3819 150.276 86.1128 151.403 85.5511 152.39C85.009 152.857 84.3343 153.142 83.6227 153.202C82.7469 153.282 81.9198 153.643 81.2633 154.231C79.8241 155.656 78.8092 157.457 78.3329 159.431C78.042 161.218 78.8069 163.439 80.5846 164.067C80.6725 164.097 80.7509 164.15 80.8115 164.22C80.8722 164.291 80.9128 164.376 80.9293 164.468C80.9507 164.56 80.947 164.655 80.9185 164.745C80.8901 164.835 80.8379 164.915 80.7677 164.977C78.7186 166.914 77.2552 169.394 76.5462 172.13C75.8371 174.867 75.9112 177.749 76.76 180.446C78.5591 185.862 83.7843 190.303 90.3669 192.036C96.9495 193.769 103.769 192.838 109.102 191.863C110.998 191.527 113.228 190.78 114.09 189.328C114.072 189.085 114.105 188.841 114.187 188.612C114.268 188.382 114.397 188.172 114.564 187.996C114.639 187.911 114.739 187.853 114.85 187.829C114.96 187.806 115.076 187.819 115.178 187.866C115.284 187.914 115.371 187.994 115.427 188.096C115.483 188.197 115.506 188.314 115.491 188.429C115.423 188.745 115.314 189.051 115.168 189.339H115.211Z" fill="#231F20"/>
<path d="M135.195 171.531C135.195 171.531 171.071 155.282 172.816 148.653C174.562 142.023 144.805 152.618 130.8 157.016C130.8 157.016 170.166 142.825 166.675 136.499C163.185 130.173 108.929 148.22 108.929 148.22C108.929 148.22 126.113 135.773 126.264 127.757C126.415 119.741 115.264 127.985 111.009 131.939C106.753 135.892 84.4304 139.521 73.603 145.468C62.7756 151.415 57.8521 164.241 52.293 165.92C48.059 167.176 17.8177 167.664 3.58594 167.815V216.236C14.9412 212.986 57.335 201.071 63.0126 201.071C69.5737 201.071 94.9453 203.237 114.198 201.071C133.45 198.904 169.757 179.525 170.22 174.683C170.629 170.188 149.524 177.835 146.518 178.951C149.75 177.738 173.775 168.584 174.583 163.244C175.445 157.449 152.659 164.934 135.195 171.531Z" fill="white"/>
<path d="M3.58653 216.723C3.4701 216.722 3.35693 216.685 3.26333 216.615C3.19703 216.564 3.14317 216.498 3.10583 216.423C3.0685 216.348 3.04867 216.266 3.04785 216.182V167.815C3.05049 167.674 3.10664 167.539 3.20478 167.439C3.30292 167.338 3.43565 167.279 3.57576 167.273C16.7733 167.133 47.9303 166.645 52.1428 165.399C54.5129 164.695 56.9154 161.641 59.6842 158.088C63.1102 153.755 67.3657 148.338 73.3666 144.991C78.8826 141.969 87.3722 139.575 94.8274 137.409C101.927 135.372 108.639 133.444 110.664 131.57C110.761 131.472 120.845 122.189 125.133 124.117C126.297 124.648 126.868 125.872 126.825 127.789C126.706 134.137 116.655 142.879 111.806 146.735C124.034 142.781 163.929 130.411 167.161 136.26C167.336 136.578 167.437 136.931 167.453 137.294C167.47 137.657 167.403 138.019 167.258 138.351C165.803 142.261 155.073 147.645 145.657 151.718C159.598 147.385 170.436 144.558 172.882 146.865C173.136 147.112 173.314 147.427 173.394 147.773C173.475 148.119 173.454 148.481 173.334 148.815C172.138 153.321 156.387 161.814 145.549 167.23C162.313 161.381 172.009 159.431 174.433 161.413C174.707 161.634 174.915 161.928 175.033 162.26C175.151 162.593 175.174 162.952 175.101 163.298C174.929 164.381 173.205 167.913 159.63 174.13C164.338 172.895 168.701 172.191 170.124 173.296C170.342 173.456 170.514 173.672 170.62 173.922C170.726 174.172 170.763 174.446 170.727 174.715C170.253 179.98 133.763 199.359 114.263 201.59C99.6001 203.269 81.479 202.403 70.6517 201.883C67.258 201.72 64.5862 201.59 63.0132 201.59C58.5961 201.59 29.4968 209.422 3.75891 216.756L3.58653 216.723ZM4.1252 168.357V215.467C17.4089 211.686 57.4218 200.453 63.0132 200.453C64.6077 200.453 67.3226 200.583 70.6948 200.745C81.4683 201.265 99.5678 202.121 114.134 200.464C122.558 199.5 135.594 194.95 149.007 188.31C161.72 182.005 169.477 176.394 169.66 174.564C169.672 174.477 169.662 174.388 169.63 174.307C169.598 174.225 169.545 174.153 169.477 174.098C167.581 172.635 156.333 175.809 146.68 179.384C146.546 179.433 146.398 179.426 146.269 179.365C146.139 179.304 146.039 179.194 145.991 179.059C145.942 178.925 145.947 178.778 146.006 178.648C146.064 178.518 146.171 178.417 146.303 178.366C156.301 174.618 173.399 167.198 174.024 163.092C174.067 162.933 174.064 162.764 174.014 162.606C173.965 162.449 173.87 162.309 173.743 162.204C171.266 160.189 157.281 163.775 135.368 172.04C135.235 172.094 135.086 172.094 134.954 172.038C134.822 171.982 134.717 171.875 134.662 171.742C134.608 171.608 134.609 171.458 134.664 171.325C134.72 171.192 134.826 171.087 134.959 171.032C144.87 166.537 170.91 153.7 172.289 148.512C172.354 148.365 172.374 148.203 172.347 148.045C172.32 147.887 172.248 147.74 172.138 147.623C169.456 145.067 149.277 151.61 137.221 155.52C134.937 156.268 132.815 156.95 130.973 157.535C130.837 157.581 130.689 157.571 130.56 157.507C130.432 157.443 130.334 157.33 130.288 157.194C130.243 157.057 130.253 156.908 130.316 156.779C130.38 156.65 130.492 156.552 130.628 156.506C142.091 152.368 164.295 143.171 166.245 137.95C166.336 137.767 166.383 137.565 166.383 137.36C166.383 137.155 166.336 136.953 166.245 136.769C163.853 132.437 129.949 141.817 109.145 148.685C109.023 148.726 108.891 148.721 108.772 148.672C108.653 148.623 108.555 148.533 108.496 148.418C108.438 148.302 108.422 148.17 108.452 148.044C108.482 147.918 108.556 147.808 108.661 147.732C108.833 147.613 125.629 135.35 125.78 127.703C125.78 126.262 125.457 125.374 124.702 125.038C122.16 123.89 115.394 128.591 111.397 132.296C109.189 134.343 102.681 136.217 95.1291 138.383C87.5769 140.55 79.3028 142.933 73.8945 145.901C68.0768 149.086 63.9074 154.426 60.5461 158.716C57.6588 162.41 55.1594 165.594 52.4552 166.396C48.3074 167.663 20.641 168.162 4.1252 168.357V168.357Z" fill="#231F20"/>
<path d="M188.125 139.629C191.386 139.629 194.029 136.972 194.029 133.693C194.029 130.415 191.386 127.757 188.125 127.757C184.864 127.757 182.221 130.415 182.221 133.693C182.221 136.972 184.864 139.629 188.125 139.629Z" fill="white"/>
<path d="M188.126 140.171C186.847 140.171 185.597 139.79 184.534 139.076C183.471 138.361 182.643 137.346 182.154 136.159C181.664 134.971 181.536 133.664 181.786 132.404C182.035 131.143 182.651 129.985 183.555 129.076C184.459 128.167 185.611 127.548 186.865 127.297C188.119 127.046 189.418 127.175 190.599 127.667C191.781 128.159 192.79 128.992 193.5 130.061C194.211 131.129 194.59 132.386 194.59 133.672C194.59 135.395 193.909 137.048 192.697 138.267C191.484 139.486 189.84 140.171 188.126 140.171ZM188.126 128.255C187.06 128.255 186.019 128.573 185.133 129.168C184.247 129.763 183.557 130.609 183.149 131.599C182.741 132.589 182.635 133.678 182.842 134.728C183.05 135.779 183.563 136.744 184.317 137.501C185.07 138.259 186.03 138.775 187.075 138.984C188.12 139.193 189.203 139.085 190.187 138.675C191.171 138.266 192.013 137.571 192.605 136.681C193.197 135.79 193.513 134.743 193.513 133.672C193.501 132.243 192.929 130.876 191.92 129.87C190.911 128.863 189.547 128.299 188.126 128.299V128.255Z" fill="#231F20"/>
<path d="M136.735 216.528C138.34 209.791 130.799 202.88 124.884 207.678C120.575 211.199 120.101 220.504 126.694 221.609C130.756 222.291 135.765 220.569 136.735 216.528Z" fill="white"/>
<path d="M128.44 222.291C127.823 222.29 127.206 222.239 126.597 222.14C125.349 221.961 124.184 221.404 123.258 220.542C122.332 219.681 121.69 218.557 121.415 217.319C120.983 215.514 121.046 213.624 121.598 211.851C122.15 210.079 123.171 208.491 124.55 207.256C125.734 206.234 127.219 205.631 128.776 205.541C130.333 205.451 131.877 205.879 133.169 206.758C134.785 207.779 136.047 209.278 136.784 211.048C137.52 212.818 137.695 214.774 137.285 216.648V216.648C136.369 220.374 132.307 222.291 128.44 222.291ZM129.14 206.617C127.701 206.639 126.315 207.164 125.218 208.101C124.007 209.208 123.112 210.619 122.625 212.191C122.138 213.762 122.078 215.435 122.45 217.038C122.676 218.071 123.21 219.01 123.979 219.732C124.749 220.453 125.718 220.923 126.759 221.078C130.605 221.717 135.313 220.114 136.197 216.398C136.536 214.745 136.37 213.027 135.72 211.471C135.07 209.915 133.966 208.593 132.555 207.678C131.542 207.001 130.356 206.632 129.14 206.617V206.617Z" fill="#231F20"/>
<path d="M110.351 98.5636C109.554 96.9171 106.893 96.3971 105.858 97.9678C107.087 96.1805 98.1015 93.5374 97.7029 99.3977C97.1534 107.37 113.68 105.399 110.351 98.5636Z" fill="white"/>
<path d="M104.017 105.117C102.734 105.134 101.461 104.883 100.279 104.381C99.2818 104.004 98.4363 103.308 97.8734 102.399C97.3105 101.49 97.0615 100.42 97.165 99.3544C97.1776 98.4623 97.4819 97.5991 98.031 96.8982C98.5801 96.1973 99.3435 95.6976 100.203 95.4764C102.476 94.8373 105.428 95.6931 106.247 96.8522C106.777 96.5521 107.387 96.4235 107.992 96.4838C108.578 96.5154 109.146 96.6985 109.64 97.0155C110.135 97.3324 110.539 97.7724 110.815 98.2929V98.2929C111.231 99.0205 111.397 99.8654 111.288 100.697C111.179 101.529 110.801 102.302 110.212 102.897C108.503 104.402 106.288 105.196 104.017 105.117ZM101.862 96.3322C101.389 96.3266 100.918 96.3886 100.462 96.5164C99.8124 96.6732 99.2352 97.0467 98.8242 97.5759C98.4133 98.1052 98.193 98.7589 98.1993 99.4303C98.1188 100.273 98.3182 101.12 98.7665 101.837C99.2148 102.554 99.8866 103.102 100.677 103.395C103.403 104.608 107.648 104.023 109.414 102.182C109.852 101.747 110.13 101.177 110.204 100.564C110.279 99.95 110.145 99.3292 109.824 98.802V98.802C109.634 98.4507 109.356 98.1551 109.018 97.9444C108.68 97.7336 108.293 97.6148 107.895 97.5996C107.588 97.5512 107.272 97.5881 106.984 97.7065C106.695 97.8248 106.444 98.0201 106.258 98.2712V98.2712C106.218 98.3306 106.167 98.3815 106.107 98.4208C106.047 98.4601 105.98 98.4871 105.91 98.5002C105.84 98.5133 105.768 98.5122 105.698 98.4971C105.628 98.482 105.562 98.4531 105.504 98.412C105.388 98.3273 105.31 98.2008 105.286 98.0592C105.262 97.9177 105.294 97.7722 105.374 97.6537V97.6537C105.374 97.6537 105.374 97.6537 105.374 97.4913C104.408 96.6736 103.167 96.2588 101.905 96.3322H101.862Z" fill="#231F20"/>
<path d="M114.812 191.56H114.726C110.416 190.845 109.425 185.18 109.21 182.775C109.247 182.078 109.028 181.392 108.596 180.847C108.474 180.746 108.332 180.674 108.179 180.635C108.026 180.595 107.867 180.59 107.712 180.619C107.264 180.734 106.843 180.936 106.473 181.215C106.103 181.494 105.792 181.844 105.558 182.244L105.213 182.808C104.469 184.064 103.618 185.483 102.056 185.732C101.314 185.791 100.572 185.614 99.9358 185.225C99.2996 184.836 98.8013 184.256 98.5117 183.566C98.0282 182.308 97.8259 180.958 97.9191 179.612V165.129C97.7282 165.567 97.4936 165.985 97.2188 166.375C96.6847 167.216 95.9017 167.869 94.98 168.24C94.0583 168.611 93.0441 168.682 92.0799 168.444C89.9791 167.74 88.9017 165.454 88.8478 161.652C88.776 155.996 89.1361 150.343 89.9252 144.743C89.9466 144.599 90.0239 144.47 90.1401 144.383C90.2563 144.297 90.4018 144.261 90.5447 144.282C90.6875 144.304 90.816 144.382 90.9019 144.498C90.9878 144.615 91.024 144.761 91.0025 144.905C90.2185 150.448 89.8583 156.043 89.9252 161.641C89.9252 163.905 90.41 166.732 92.4246 167.426C93.168 167.587 93.943 167.514 94.6432 167.215C95.3434 166.917 95.9345 166.407 96.3354 165.757C97.1966 164.304 97.7402 162.683 97.9299 161.002C97.9442 160.858 98.0146 160.726 98.1258 160.635C98.2369 160.544 98.3796 160.5 98.5224 160.515C98.6653 160.529 98.7967 160.6 98.8876 160.712C98.9785 160.823 99.0215 160.967 99.0073 161.11V179.525C98.9223 180.714 99.0913 181.907 99.5028 183.024C99.6884 183.505 100.019 183.916 100.447 184.199C100.876 184.483 101.382 184.625 101.895 184.606C102.972 184.432 103.651 183.295 104.308 182.201L104.663 181.605C104.972 181.069 105.385 180.601 105.877 180.229C106.369 179.857 106.931 179.588 107.529 179.439C107.835 179.386 108.148 179.401 108.447 179.481C108.746 179.562 109.025 179.706 109.264 179.905C109.934 180.625 110.295 181.583 110.266 182.569C110.449 184.638 111.224 189.394 114.467 190.293C115.728 187.26 115.976 183.793 116.213 180.544C116.213 179.829 116.31 179.125 116.363 178.377C116.913 171.894 118.326 165.515 120.565 159.41C120.86 158.388 121.405 157.457 122.149 156.702C122.794 156.209 123.525 155.842 124.303 155.618C124.694 155.489 125.076 155.334 125.445 155.153C126.322 154.633 127.065 153.915 127.617 153.055C128.169 152.196 128.513 151.219 128.624 150.202C128.842 148.056 128.726 145.889 128.279 143.779C128.257 143.635 128.294 143.489 128.38 143.372C128.465 143.255 128.594 143.177 128.737 143.156C128.88 143.134 129.025 143.171 129.141 143.257C129.258 143.343 129.335 143.472 129.356 143.616C129.824 145.837 129.936 148.119 129.69 150.375C129.559 151.562 129.151 152.7 128.499 153.697C127.848 154.695 126.971 155.524 125.941 156.117C125.534 156.319 125.112 156.493 124.681 156.637C124.031 156.829 123.422 157.137 122.881 157.547C122.269 158.181 121.824 158.959 121.589 159.81C119.389 165.826 118.001 172.11 117.462 178.496L117.301 180.598C117.053 184.14 116.794 187.812 115.297 191.116C115.278 191.234 115.219 191.342 115.131 191.423C115.043 191.504 114.931 191.552 114.812 191.56V191.56Z" fill="#D1D3D4"/>
<path d="M82.964 139.781H82.7485C81.9802 139.649 81.2637 139.305 80.6795 138.786C80.0952 138.268 79.6663 137.596 79.441 136.845C79.2113 136.22 79.0241 135.579 78.8808 134.928C78.7403 134.255 78.542 133.595 78.2883 132.957C78.2382 132.785 78.1411 132.631 78.0082 132.512C77.8358 132.404 77.5449 132.512 77.1247 132.632C76.92 132.697 76.7153 132.772 76.5214 132.816C75.8807 132.897 75.2304 132.784 74.6543 132.491C74.0783 132.197 73.6028 131.737 73.2893 131.169C72.7515 130.14 72.4705 128.995 72.4706 127.833C72.3428 125.766 72.4041 123.692 72.6537 121.637C72.6617 121.565 72.6837 121.496 72.7185 121.434C72.7532 121.371 72.8001 121.316 72.8562 121.272C72.9123 121.227 72.9767 121.194 73.0455 121.175C73.1143 121.156 73.1862 121.151 73.257 121.16C73.3276 121.168 73.3959 121.19 73.4577 121.225C73.5196 121.26 73.5737 121.308 73.617 121.364C73.6602 121.421 73.6917 121.486 73.7094 121.555C73.7272 121.624 73.7309 121.696 73.7203 121.767C73.4818 123.754 73.4205 125.759 73.5371 127.757C73.5315 128.751 73.7643 129.732 74.2159 130.617C74.4225 130.981 74.7299 131.278 75.101 131.47C75.472 131.663 75.8906 131.742 76.3059 131.7C76.4704 131.659 76.6323 131.609 76.7907 131.548C77.0701 131.415 77.3756 131.345 77.6849 131.345C77.9943 131.345 78.2998 131.415 78.5791 131.548C78.9094 131.786 79.1609 132.118 79.301 132.502C79.5702 133.205 79.7828 133.93 79.9366 134.668C80.0718 135.274 80.2445 135.871 80.4537 136.455C80.6172 137.008 80.9238 137.507 81.3422 137.901C81.7606 138.295 82.2757 138.57 82.8347 138.698C83.3567 138.665 83.8653 138.519 84.325 138.268C84.7846 138.017 85.1842 137.669 85.4957 137.246C87.6551 134.939 88.9991 131.981 89.3203 128.829C89.3271 128.758 89.3478 128.689 89.3813 128.626C89.4148 128.563 89.4604 128.507 89.5155 128.461C89.5706 128.416 89.6341 128.382 89.7023 128.362C89.7705 128.341 89.8421 128.334 89.9129 128.342C90.0541 128.358 90.1831 128.43 90.2719 128.542C90.3607 128.653 90.4021 128.796 90.3869 128.938C90.0474 132.325 88.6044 135.505 86.2822 137.983C85.884 138.498 85.3831 138.924 84.8118 139.234C84.2404 139.543 83.611 139.73 82.964 139.781V139.781Z" fill="#D1D3D4"/>
<path d="M175.466 57.7148H154.49C151.503 57.7148 149.082 60.1494 149.082 63.1527V63.1635C149.082 66.1668 151.503 68.6014 154.49 68.6014H175.466C178.453 68.6014 180.874 66.1668 180.874 63.1635V63.1527C180.874 60.1494 178.453 57.7148 175.466 57.7148Z" fill="white"/>
<path d="M175.455 69.1432H154.501C153.671 69.2305 152.832 69.1414 152.038 68.8818C151.244 68.6221 150.514 68.1977 149.893 67.636C149.273 67.0743 148.777 66.3879 148.438 65.6212C148.099 64.8544 147.923 64.0246 147.923 63.1854C147.923 62.3462 148.099 61.5163 148.438 60.7496C148.777 59.9829 149.273 59.2964 149.893 58.7347C150.514 58.173 151.244 57.7486 152.038 57.489C152.832 57.2293 153.671 57.1403 154.501 57.2276H175.455C176.285 57.1403 177.125 57.2293 177.918 57.489C178.712 57.7486 179.443 58.173 180.063 58.7347C180.683 59.2964 181.179 59.9829 181.518 60.7496C181.857 61.5163 182.033 62.3462 182.033 63.1854C182.033 64.0246 181.857 64.8544 181.518 65.6212C181.179 66.3879 180.683 67.0743 180.063 67.636C179.443 68.1977 178.712 68.6221 177.918 68.8818C177.125 69.1414 176.285 69.2305 175.455 69.1432V69.1432ZM154.501 58.3108C153.817 58.2313 153.125 58.2981 152.468 58.5068C151.812 58.7154 151.207 59.0613 150.693 59.5216C150.18 59.982 149.768 60.5464 149.487 61.1778C149.205 61.8092 149.06 62.4934 149.06 63.1854C149.06 63.8774 149.205 64.5615 149.487 65.1929C149.768 65.8244 150.18 66.3888 150.693 66.8491C151.207 67.3094 151.812 67.6553 152.468 67.864C153.125 68.0727 153.817 68.1394 154.501 68.0599H175.455C176.139 68.1394 176.832 68.0727 177.488 67.864C178.144 67.6553 178.749 67.3094 179.263 66.8491C179.777 66.3888 180.188 65.8244 180.469 65.1929C180.751 64.5615 180.896 63.8774 180.896 63.1854C180.896 62.4934 180.751 61.8092 180.469 61.1778C180.188 60.5464 179.777 59.982 179.263 59.5216C178.749 59.0613 178.144 58.7154 177.488 58.5068C176.832 58.2981 176.139 58.2313 175.455 58.3108H154.501Z" fill="#231F20"/>
<path d="M206.268 18.0249H193.545V24.2968H206.268V18.0249Z" fill="white"/>
<path d="M206.258 24.8277H193.599C193.456 24.8277 193.319 24.7706 193.218 24.669C193.117 24.5675 193.06 24.4297 193.06 24.2861V18.0033C193.06 17.8596 193.117 17.7219 193.218 17.6203C193.319 17.5187 193.456 17.4617 193.599 17.4617H206.311C206.454 17.4617 206.591 17.5187 206.692 17.6203C206.793 17.7219 206.85 17.8596 206.85 18.0033V24.2861C206.851 24.362 206.835 24.4371 206.805 24.5066C206.774 24.5762 206.73 24.6385 206.674 24.6895C206.618 24.7406 206.552 24.7793 206.48 24.8031C206.409 24.8269 206.333 24.8353 206.258 24.8277V24.8277ZM194.084 23.7444H205.719V18.5666H194.084V23.7444Z" fill="#231F20"/>
<path d="M199.901 0.541416C200.345 0.537122 200.786 0.621369 201.197 0.789292C201.609 0.957214 201.983 1.20548 202.299 1.51974C202.614 1.83401 202.865 2.20803 203.036 2.62021C203.207 3.03239 203.295 3.47454 203.294 3.92112V18.0032H196.572V3.92112C196.572 3.03037 196.921 2.17561 197.545 1.54272C198.168 0.909833 199.015 0.549981 199.901 0.541416V0.541416Z" fill="white"/>
<path d="M203.294 18.5667H196.571C196.429 18.5667 196.291 18.5096 196.19 18.4081C196.089 18.3065 196.033 18.1687 196.033 18.0251V3.92132C196.033 2.88132 196.444 1.88392 197.175 1.14853C197.906 0.413136 198.898 0 199.933 0C200.967 0 201.959 0.413136 202.69 1.14853C203.422 1.88392 203.833 2.88132 203.833 3.92132V18.0034C203.836 18.0763 203.824 18.1491 203.798 18.2173C203.772 18.2856 203.733 18.3479 203.683 18.4005C203.632 18.4531 203.572 18.4949 203.505 18.5235C203.438 18.5521 203.367 18.5667 203.294 18.5667V18.5667ZM197.11 17.4835H202.755V3.92132C202.755 3.16861 202.458 2.44674 201.929 1.91449C201.399 1.38225 200.681 1.08324 199.933 1.08324C199.184 1.08324 198.466 1.38225 197.937 1.91449C197.407 2.44674 197.11 3.16861 197.11 3.92132V17.4835Z" fill="#231F20"/>
<path d="M235.022 185.017C236.455 186.771 235.237 189.664 233.201 190.66C231.165 191.657 228.752 191.278 226.565 190.725C224.97 190.324 223.236 189.718 222.449 188.266C221.189 185.981 223.279 183.002 225.8 182.374C228.321 181.745 230.95 182.699 233.341 183.63C236.088 184.67 233.19 182.763 235.022 185.017Z" fill="#754EE4"/>
<path d="M146.787 235.225C146.644 235.225 146.507 235.167 146.406 235.066C146.305 234.964 146.248 234.827 146.248 234.683V213.917C146.248 213.774 146.305 213.636 146.406 213.534C146.507 213.433 146.644 213.376 146.787 213.376C146.93 213.376 147.067 213.433 147.168 213.534C147.269 213.636 147.325 213.774 147.325 213.917V234.65C147.33 234.724 147.319 234.798 147.294 234.868C147.269 234.937 147.23 235.001 147.179 235.055C147.129 235.108 147.068 235.151 147.001 235.18C146.933 235.21 146.86 235.225 146.787 235.225Z" fill="white"/>
<path d="M171.394 226.83C171.251 226.83 171.114 226.773 171.013 226.671C170.912 226.57 170.855 226.432 170.855 226.288V205.176C170.855 205.032 170.912 204.895 171.013 204.793C171.114 204.692 171.251 204.635 171.394 204.635C171.537 204.635 171.674 204.692 171.775 204.793C171.876 204.895 171.932 205.032 171.932 205.176V226.288C171.932 226.432 171.876 226.57 171.775 226.671C171.674 226.773 171.537 226.83 171.394 226.83Z" fill="white"/>
<path d="M171.394 98.5094C171.251 98.5094 171.114 98.4524 171.013 98.3508C170.912 98.2492 170.855 98.1115 170.855 97.9678V78.827C170.855 78.6834 170.912 78.5456 171.013 78.444C171.114 78.3425 171.251 78.2854 171.394 78.2854C171.537 78.2854 171.674 78.3425 171.775 78.444C171.876 78.5456 171.932 78.6834 171.932 78.827V97.9678C171.932 98.1115 171.876 98.2492 171.775 98.3508C171.674 98.4524 171.537 98.5094 171.394 98.5094Z" fill="white"/>
<path d="M162.204 103.785C162.062 103.782 161.927 103.724 161.826 103.623C161.726 103.522 161.668 103.386 161.666 103.243V90.0494C161.666 89.9058 161.722 89.768 161.823 89.6664C161.924 89.5649 162.061 89.5078 162.204 89.5078C162.347 89.5078 162.484 89.5649 162.585 89.6664C162.686 89.768 162.743 89.9058 162.743 90.0494V103.243C162.743 103.387 162.686 103.525 162.585 103.626C162.484 103.728 162.347 103.785 162.204 103.785Z" fill="white"/>
<path d="M191.185 235.279C191.042 235.279 190.905 235.222 190.804 235.121C190.703 235.019 190.646 234.881 190.646 234.738V226.288C190.646 226.145 190.703 226.007 190.804 225.905C190.905 225.804 191.042 225.747 191.185 225.747C191.328 225.747 191.465 225.804 191.566 225.905C191.667 226.007 191.724 226.145 191.724 226.288V234.738C191.724 234.881 191.667 235.019 191.566 235.121C191.465 235.222 191.328 235.279 191.185 235.279Z" fill="white"/>
<path d="M121.631 237.467C121.488 237.467 121.351 237.41 121.25 237.309C121.149 237.207 121.092 237.069 121.092 236.926V226.288C121.092 226.145 121.149 226.007 121.25 225.905C121.351 225.804 121.488 225.747 121.631 225.747C121.774 225.747 121.911 225.804 122.012 225.905C122.113 226.007 122.17 226.145 122.17 226.288V236.926C122.17 237.069 122.113 237.207 122.012 237.309C121.911 237.41 121.774 237.467 121.631 237.467Z" fill="white"/>
<path d="M3.58594 221.836L51.5496 209.693L41.6918 162.68L3.58594 162.139V221.836Z" fill="#231F20"/>
<path d="M3.58568 222.421C3.45747 222.421 3.33272 222.379 3.23016 222.302C3.16056 222.246 3.10418 222.175 3.06506 222.095C3.02594 222.014 3.00505 221.926 3.00391 221.836V162.139C3.00611 161.985 3.06792 161.837 3.17629 161.727C3.22859 161.669 3.29393 161.624 3.36696 161.595C3.43999 161.567 3.51863 161.557 3.59645 161.565L41.6916 162.074C41.8222 162.076 41.9485 162.121 42.0501 162.204C42.1517 162.286 42.2228 162.401 42.2518 162.529L52.1096 209.542C52.142 209.691 52.1151 209.847 52.0345 209.976C51.954 210.106 51.8263 210.199 51.6786 210.235L3.71496 222.367L3.58568 222.421ZM4.16745 162.735V221.089L50.8706 209.271L41.1744 163.266L4.16745 162.735Z" fill="#231F20"/>
<path d="M4.85721 90.8403L3.58594 96.1049V145.652L55.1157 157.904L66.0508 110.62L4.85721 90.8403Z" fill="#231F20"/>
<path d="M55.1154 158.488H54.9753L3.44561 146.215C3.31937 146.182 3.20764 146.108 3.12776 146.004C3.04789 145.9 3.00434 145.772 3.00389 145.641V96.1048C2.9987 96.0616 2.9987 96.0179 3.00389 95.9748L4.27517 90.6994C4.29319 90.6215 4.32749 90.5484 4.37579 90.4849C4.42409 90.4214 4.48527 90.369 4.55528 90.3311C4.62821 90.2985 4.70712 90.2817 4.78692 90.2817C4.86671 90.2817 4.94561 90.2985 5.01854 90.3311L66.2229 110.079C66.3617 110.121 66.4791 110.216 66.5511 110.343C66.6232 110.469 66.6445 110.619 66.6107 110.761L55.6971 158.033C55.6623 158.186 55.5694 158.318 55.4386 158.402C55.3409 158.46 55.229 158.49 55.1154 158.488V158.488ZM4.16743 145.186L54.6844 157.199L65.3933 111.01L5.2771 91.5877L4.19975 96.1806L4.16743 145.186Z" fill="#231F20"/>
</svg>
