<svg width="250" height="250" viewBox="0 0 250 250" fill="none" xmlns="http://www.w3.org/2000/svg">
<path d="M111.618 96.3859C111.618 96.3859 63.2969 124.431 48.363 137.68C33.4291 150.93 29.5088 221.815 29.5088 249.463H219.686C219.686 249.463 215.636 164.448 206.279 146.162C193.76 121.757 148.363 101.454 136.526 98.3293C124.69 95.2048 111.618 96.3859 111.618 96.3859Z" fill="#754EE4"/>
<path d="M219.686 250H29.5415C29.3979 250 29.2601 249.943 29.1586 249.842C29.057 249.742 29 249.605 29 249.463C29 224.768 32.4979 151.059 48.0383 137.272C62.8315 124.152 110.85 96.2034 111.38 95.9242C111.446 95.8835 111.52 95.8578 111.597 95.8491C111.727 95.8491 124.798 94.7109 136.624 97.8139C142.039 99.2312 156.258 104.825 171.419 113.791C183.776 121.092 199.933 132.602 206.756 145.926C216.059 164.104 220.065 245.963 220.228 249.441C220.233 249.515 220.223 249.588 220.196 249.657C220.17 249.725 220.129 249.787 220.076 249.839C220.026 249.891 219.966 249.932 219.899 249.96C219.831 249.988 219.759 250.001 219.686 250ZM30.083 248.926H219.123C218.744 241.517 214.597 163.599 205.792 146.399C193.674 122.713 148.915 102.141 136.353 98.8447C125.307 95.9457 113.145 96.7939 111.813 96.9013C109.279 98.3722 63.0805 125.301 48.7531 138.067C42.4286 143.672 37.2954 161.012 33.9058 188.219C31.4959 208.372 30.2196 228.643 30.083 248.937V248.926Z" fill="#231F20"/>
<path d="M104.634 108.519L124.614 129.166L142.245 109.839C142.245 109.839 117.738 111.257 104.634 108.519Z" fill="#231F20"/>
<path d="M124.614 129.692C124.541 129.694 124.469 129.68 124.402 129.653C124.334 129.625 124.274 129.584 124.224 129.531L104.243 108.873C104.163 108.792 104.113 108.687 104.099 108.575C104.085 108.462 104.109 108.348 104.168 108.25C104.226 108.152 104.313 108.073 104.417 108.025C104.522 107.977 104.639 107.962 104.752 107.982C117.629 110.677 141.93 109.281 142.168 109.27C142.275 109.264 142.382 109.289 142.474 109.343C142.567 109.396 142.641 109.476 142.688 109.571C142.736 109.667 142.753 109.774 142.738 109.88C142.722 109.985 142.675 110.083 142.602 110.162L124.971 129.488C124.919 129.542 124.857 129.585 124.788 129.614C124.719 129.644 124.645 129.659 124.57 129.66L124.614 129.692ZM106.204 109.356L124.614 128.382L140.988 110.409C135.92 110.645 117.672 111.332 106.204 109.356Z" fill="#231F20"/>
<path d="M157.189 55.3925C159.232 50.9058 160.66 46.1681 161.434 41.3056C161.586 40.3715 163.351 29.8493 160.232 30.1177C164.239 29.7702 168.097 28.446 171.462 26.2631C171.711 26.1291 171.92 25.9329 172.069 25.6941C172.556 24.7385 171.127 24.0191 170.065 23.8044C165.522 22.8605 161.523 20.2141 158.9 16.4173C157.189 13.9049 155.954 10.7911 153.225 9.41681C150.117 7.83848 146.143 9.14839 142.981 7.68816C140.815 6.67889 139.407 4.55297 137.566 3.04979C133.288 -0.386036 126.888 -0.0853989 121.95 2.33042C119.784 3.40412 117.683 4.77845 115.354 4.47781C113.752 4.26307 112.376 3.2538 110.839 2.77063C105.911 1.20304 101.092 5.17571 97.6374 9.04102C95.0816 11.94 95.0708 14.5169 93.6629 17.7594C92.515 20.3793 89.8726 22.0542 88.4756 24.6526C85.6166 30.0211 86.3097 36.4632 88.194 42.0894C88.638 43.3671 98.9586 61.7488 95.6772 61.5555C105.24 62.1353 114.878 62.9406 124.527 62.801C132.194 62.7044 153.095 64.3471 157.189 55.3925Z" fill="white"/>
<path d="M132.4 63.4021C130.938 63.4021 129.541 63.4021 128.263 63.4021C126.985 63.4021 125.577 63.4021 124.549 63.4021C116.719 63.5202 108.792 63.0048 101.135 62.5109L95.6554 62.1566C95.5828 62.1525 95.5118 62.1342 95.4464 62.1028C95.3809 62.0714 95.3224 62.0275 95.2741 61.9737C95.2258 61.9198 95.1887 61.857 95.1649 61.7889C95.1412 61.7208 95.1312 61.6487 95.1356 61.5768C95.1352 61.5029 95.1505 61.4298 95.1805 61.3622C95.2105 61.2946 95.2545 61.234 95.3097 61.1844C95.3648 61.1348 95.4299 61.0972 95.5007 61.0742C95.5714 61.0511 95.6463 61.0431 95.7204 61.0507C96.3269 60.2239 94.096 54.8554 89.0711 45.117C88.2047 43.4313 87.7824 42.6153 87.6741 42.3147C86.0388 37.5367 84.7717 30.5577 87.9881 24.4591C88.7057 23.2079 89.587 22.0563 90.6089 21.034C91.6437 20.0367 92.5038 18.8756 93.1538 17.5982C93.5715 16.6316 93.933 15.6422 94.2367 14.6347C94.7749 12.4652 95.8045 10.4456 97.2474 8.72941C102.186 3.12472 106.831 0.955847 111.044 2.28723C111.679 2.50113 112.298 2.75947 112.896 3.06029C113.695 3.49213 114.557 3.79649 115.452 3.9622C117.228 4.19841 118.971 3.29651 120.661 2.41607L121.744 1.87923C126.455 -0.429223 133.288 -1.08417 137.988 2.66303C138.684 3.24052 139.342 3.86092 139.959 4.52052C140.904 5.6158 142.042 6.53247 143.316 7.22624C144.854 7.8025 146.493 8.06542 148.135 7.9993C149.99 7.92005 151.84 8.25011 153.55 8.96563C155.716 10.0393 157.005 12.1867 158.218 14.216C158.607 14.871 159.008 15.5259 159.431 16.1487C161.966 19.8366 165.85 22.4012 170.26 23.2995C170.74 23.3669 171.201 23.5324 171.613 23.7856C172.025 24.0389 172.379 24.3742 172.653 24.7704C172.752 24.9577 172.804 25.1658 172.804 25.3771C172.804 25.5883 172.752 25.7965 172.653 25.9837C172.461 26.3104 172.184 26.5808 171.852 26.7675C168.866 28.7083 165.494 29.9899 161.965 30.5255C163.243 32.6729 162.604 38.1272 162.084 41.3483C161.294 46.2937 159.837 51.1112 157.752 55.6714C154.492 62.629 141.941 63.4021 132.4 63.4021ZM125.458 62.2317H128.274C137.013 62.3391 153.279 62.5538 156.68 55.1346C158.716 50.6913 160.141 45.9965 160.914 41.1765C161.791 35.7436 161.748 31.8139 160.817 30.8154C160.756 30.7455 160.679 30.6913 160.592 30.6577C160.505 30.624 160.411 30.6118 160.319 30.6221V30.6221C160.173 30.6284 160.031 30.5799 159.92 30.4862C159.81 30.3925 159.739 30.2607 159.723 30.1175C159.711 29.971 159.758 29.8257 159.853 29.7132C159.948 29.6006 160.084 29.5298 160.232 29.5162V29.5162C164.134 29.1888 167.894 27.9128 171.181 25.8012C171.34 25.7113 171.48 25.5908 171.592 25.4469C171.613 25.411 171.624 25.3702 171.624 25.3288C171.624 25.2873 171.613 25.2466 171.592 25.2107C171.177 24.7326 170.599 24.423 169.968 24.341C165.274 23.3867 161.14 20.6559 158.445 16.7285C158.012 16.095 157.611 15.4185 157.2 14.7421C156.008 12.745 154.893 10.8661 152.987 9.91048C151.413 9.27032 149.716 8.98076 148.016 9.06226C146.219 9.13144 144.427 8.83169 142.753 8.18183C141.355 7.4359 140.107 6.44244 139.071 5.25064C138.484 4.62209 137.858 4.03041 137.197 3.47904C132.92 0.0432054 126.574 0.676686 122.188 2.82408C121.83 2.99587 121.484 3.1784 121.105 3.36093C119.264 4.31652 117.347 5.30432 115.235 5.02516C114.223 4.84346 113.247 4.50275 112.344 4.01588C111.791 3.73732 111.219 3.49696 110.633 3.2965C105.954 1.80407 101.189 5.79822 98.0054 9.40584C96.6699 11.0084 95.7216 12.8924 95.2331 14.9139C94.919 15.8802 94.6049 16.8895 94.1501 17.9847C93.4506 19.3745 92.5249 20.6405 91.4102 21.7319C90.447 22.6925 89.6167 23.7756 88.9411 24.953C85.9088 30.708 87.1434 37.3756 88.7029 41.9496C88.7787 42.1858 89.3635 43.3024 90.0349 44.6016C94.3667 53.0946 97.1174 58.9247 96.8142 61.1151L101.146 61.3942C108.792 61.8881 116.697 62.4035 124.473 62.2854L125.458 62.2317Z" fill="#231F20"/>
<path d="M148.082 58.2697C150.107 47.9837 167.575 46.0403 166.232 58.1945C165.788 62.3712 164.283 66.5909 161.218 69.4791C158.153 72.3674 153.312 73.6236 149.511 71.7768" fill="white"/>
<path d="M153.442 73.205C151.996 73.216 150.566 72.9002 149.262 72.2816C149.128 72.2147 149.026 72.0987 148.978 71.9583C148.929 71.8178 148.938 71.6642 149.002 71.53C149.069 71.4002 149.185 71.3016 149.325 71.2555C149.464 71.2093 149.617 71.2192 149.749 71.2831C153.15 72.9366 157.698 72.0239 160.828 69.1357C164.217 65.9146 165.333 61.4266 165.679 58.1947C166.123 53.8999 164.12 51.0654 160.319 50.5071C155.673 49.8092 149.717 52.9014 148.623 58.4309C148.61 58.5026 148.582 58.571 148.543 58.6321C148.503 58.6932 148.451 58.7457 148.39 58.7867C148.329 58.8277 148.261 58.8563 148.189 58.8707C148.117 58.8852 148.043 58.8853 147.971 58.871C147.899 58.8568 147.83 58.8284 147.77 58.7876C147.709 58.7468 147.657 58.6943 147.617 58.6334C147.576 58.5724 147.549 58.5041 147.536 58.4324C147.523 58.3608 147.524 58.2873 147.54 58.2162C148.753 52.0747 155.348 48.6388 160.535 49.4119C163.979 49.9165 167.444 52.5256 166.827 58.3128C166.47 61.7272 165.279 66.5159 161.64 69.941C159.425 72.023 156.494 73.1902 153.442 73.205V73.205Z" fill="#231F20"/>
<path d="M104.926 56.7879C103.626 46.3838 86.3966 43.2379 86.8298 55.4673C86.9706 59.6547 88.1727 63.971 91.0425 67.0632C93.9123 70.1555 98.6232 71.7446 102.554 70.1662" fill="white"/>
<path d="M99.2513 71.2937C97.6146 71.2691 96.0006 70.9103 94.51 70.2397C93.0194 69.5691 91.6842 68.6012 90.5877 67.3962C87.1981 63.7349 86.3425 58.8711 86.2559 55.4352C86.0501 49.6265 89.6889 47.2644 93.1651 46.996C98.3741 46.588 104.688 50.4533 105.478 56.6593C105.494 56.8053 105.452 56.9517 105.361 57.0678C105.27 57.1839 105.138 57.2606 104.991 57.282C104.844 57.2974 104.696 57.2557 104.579 57.1657C104.462 57.0756 104.384 56.9442 104.363 56.7988C103.659 51.2049 97.9409 47.7046 93.2518 48.0911C89.4181 48.3918 87.2197 51.119 87.3713 55.3923C87.4905 58.6134 88.281 63.2303 91.4432 66.6339C94.3564 69.7906 98.8398 71.0146 102.338 69.5973C102.474 69.5437 102.627 69.5451 102.762 69.6012C102.898 69.6574 103.006 69.7639 103.063 69.8979C103.092 69.9648 103.106 70.0367 103.106 70.1092C103.106 70.1817 103.092 70.2536 103.063 70.3205C103.035 70.3874 102.994 70.4481 102.942 70.4991C102.89 70.55 102.828 70.5902 102.76 70.6173C101.646 71.0679 100.454 71.2977 99.2513 71.2937V71.2937Z" fill="#231F20"/>
<path d="M104.634 108.519C104.634 108.519 112.593 112.545 126.293 113.018C139.992 113.49 142.234 109.797 142.234 109.797L141.909 102.549L141.162 85.692L140.436 69.9409L109.236 68.8672L107.753 81.6764L107.287 85.8316L104.634 108.519Z" fill="white"/>
<path d="M128.578 113.608H126.249C112.615 113.136 104.709 109.206 104.385 109.045C104.284 108.992 104.201 108.911 104.147 108.812C104.093 108.712 104.07 108.599 104.081 108.487L108.651 68.8458C108.668 68.7082 108.736 68.5819 108.842 68.4922C108.949 68.4026 109.086 68.3563 109.225 68.3626L140.425 69.4363C140.566 69.439 140.701 69.4949 140.801 69.5927C140.902 69.6906 140.961 69.8228 140.967 69.9625L142.764 109.818C142.768 109.932 142.738 110.044 142.678 110.14C142.58 110.258 140.349 113.608 128.578 113.608ZM105.24 108.24C106.908 108.991 114.478 112.116 126.282 112.535C137.902 112.943 141.075 110.291 141.638 109.7L139.873 70.5637L109.702 69.49L105.24 108.24Z" fill="#231F20"/>
<path d="M107.287 85.8422C109.507 89.6861 113.308 92.7676 117.228 95.1082C123.812 99.0272 133.711 103.515 141.909 102.56L141.161 85.7026C135.163 86.2361 129.122 86.0703 123.163 85.2087C117.91 84.5645 112.506 83.8666 107.752 81.687L107.287 85.8422Z" fill="#231F20"/>
<path d="M139.548 103.225C131.133 103.225 121.917 98.544 116.914 95.5592C112.193 92.7461 108.792 89.5679 106.789 86.1106C106.735 86.0122 106.712 85.8999 106.724 85.7885L107.178 81.6333C107.189 81.5492 107.218 81.4685 107.265 81.3977C107.312 81.3269 107.375 81.2679 107.449 81.2253C107.527 81.1882 107.612 81.1689 107.698 81.1689C107.784 81.1689 107.87 81.1882 107.947 81.2253C112.766 83.4371 118.3 84.1028 123.195 84.6934C129.11 85.5626 135.109 85.732 141.064 85.198C141.137 85.1895 141.211 85.1956 141.282 85.2159C141.352 85.2362 141.418 85.2702 141.476 85.3161C141.534 85.3627 141.58 85.4217 141.612 85.4886C141.644 85.5555 141.66 85.6286 141.66 85.7026L142.418 102.56C142.424 102.694 142.378 102.826 142.289 102.928C142.201 103.029 142.076 103.094 141.941 103.107C141.147 103.195 140.347 103.235 139.548 103.225ZM107.817 85.7241C109.734 88.9452 112.983 91.9623 117.477 94.6465C122.73 97.7817 132.747 102.839 141.302 102.077L140.598 86.2932C134.748 86.7693 128.862 86.582 123.055 85.7348C118.311 85.1658 112.961 84.5108 108.164 82.5138L107.817 85.7241Z" fill="#231F20"/>
<path d="M123.206 89.0527L126 89.1493C132.34 89.3667 138.508 87.0783 143.146 82.7874C147.785 78.4966 150.514 72.5548 150.735 66.2688V65.0663C150.886 60.6498 151.023 56.2405 151.146 51.8384C151.233 49.0575 152.608 43.6783 149.034 42.3254C148.309 42.0462 147.475 42.0892 146.749 41.7886C145.812 41.2646 145.056 40.4709 144.583 39.5123C143.812 38.1617 142.807 36.9553 141.616 35.9477C138.876 33.8003 136.732 35.8188 133.895 35.1102C129.086 33.9076 124.235 30.3644 119.091 31.2234C118.116 31.4962 117.103 31.6122 116.091 31.567C115.318 31.4223 114.582 31.1266 113.925 30.6973C112.385 29.8056 110.912 28.8045 109.517 27.7017C109.537 28.8433 109.3 29.9749 108.824 31.0147C108.348 32.0546 107.646 32.9766 106.767 33.7144C106.325 33.9816 105.953 34.3497 105.684 34.7881C105.359 35.5611 105.792 36.4201 105.835 37.2576C105.933 39.0721 104.243 40.3713 103.074 41.7671C100.128 45.2673 100.507 51.119 100.356 55.4138L100.031 64.4758C99.9151 67.6006 100.424 70.7172 101.527 73.6464C102.631 76.5755 104.308 79.2594 106.462 81.5436C108.616 83.8277 111.204 85.667 114.078 86.9558C116.951 88.2445 120.054 88.9571 123.206 89.0527Z" fill="white"/>
<path d="M126.845 89.7183H125.979L123.195 89.6216C116.709 89.3893 110.58 86.6163 106.152 81.9105C101.725 77.2048 99.3598 70.9504 99.5761 64.5186L99.8902 55.4566C99.8902 54.8553 99.8902 54.2219 99.8902 53.5669C99.9552 49.5835 100.042 44.6337 102.695 41.4771C102.944 41.1764 103.226 40.8758 103.507 40.5752C104.482 39.5015 105.392 38.5459 105.337 37.3541C105.315 37.0898 105.272 36.8277 105.207 36.5703C105.001 35.9423 105.001 35.2657 105.207 34.6376C105.46 34.1522 105.832 33.7384 106.29 33.4351L106.453 33.3062C107.264 32.6199 107.913 31.7647 108.353 30.8015C108.792 29.8384 109.013 28.7909 108.998 27.7338C108.995 27.6271 109.023 27.5218 109.079 27.4305C109.134 27.3392 109.215 27.2655 109.312 27.2184C109.408 27.1737 109.514 27.1561 109.619 27.1674C109.724 27.1788 109.824 27.2187 109.907 27.2828C111.28 28.3662 112.728 29.3528 114.239 30.2355C114.828 30.6147 115.481 30.884 116.167 31.03C116.866 31.0855 117.57 31.0201 118.246 30.8367C118.495 30.7831 118.744 30.7294 118.993 30.6972C122.556 30.0851 125.935 31.4917 129.206 32.8446C130.767 33.5396 132.378 34.1209 134.025 34.5839C134.996 34.7827 135.999 34.7827 136.97 34.5839C137.821 34.3523 138.713 34.318 139.579 34.4837C140.445 34.6495 141.261 35.0107 141.963 35.5395C143.195 36.5932 144.238 37.8455 145.049 39.2438C145.26 39.8775 145.655 40.4352 146.185 40.8461C146.715 41.257 147.356 41.5028 148.027 41.5522C148.444 41.6054 148.853 41.6989 149.251 41.8314C152.554 43.0984 152.153 47.1999 151.85 50.1525C151.796 50.786 151.731 51.3873 151.72 51.8919L151.688 53.685C151.569 57.4859 151.46 61.2868 151.32 65.0877V66.2902C151.098 72.5731 148.427 78.5258 143.868 82.8955C139.309 87.2651 133.218 89.711 126.877 89.7183H126.845ZM110.081 28.7967C109.847 30.8876 108.812 32.8095 107.189 34.1652L107.016 34.3048C106.722 34.5058 106.478 34.7701 106.301 35.0778C106.171 35.4939 106.171 35.9395 106.301 36.3555C106.375 36.6699 106.426 36.9893 106.453 37.3111C106.54 38.9646 105.37 40.2316 104.287 41.3375C104.027 41.6274 103.767 41.9066 103.518 42.1965C101.125 45.0525 101.038 49.5942 100.973 53.5991C100.973 54.2541 100.973 54.8983 100.973 55.4996L100.659 64.5723C100.463 70.7067 102.729 76.6677 106.96 81.1481C111.191 85.6286 117.041 88.2626 123.228 88.4728L126.011 88.5694C129.076 88.6771 132.132 88.185 135.005 87.1214C137.878 86.0578 140.512 84.4434 142.755 82.3705C144.999 80.2976 146.809 77.8068 148.081 75.0403C149.354 72.2739 150.064 69.286 150.172 66.2473V65.0447C150.312 61.2438 150.421 57.4429 150.529 53.6528L150.594 51.8275C150.594 51.3014 150.67 50.6787 150.735 50.013C151.006 47.2428 151.352 43.7963 148.84 42.8407C148.517 42.7292 148.183 42.6536 147.843 42.6152C147.399 42.5625 146.963 42.458 146.544 42.3038C145.492 41.7368 144.642 40.8636 144.107 39.8021C143.368 38.5096 142.408 37.3543 141.27 36.3877C140.687 35.9521 140.009 35.6581 139.29 35.5294C138.572 35.4008 137.833 35.441 137.133 35.6469C136.019 35.8783 134.868 35.8783 133.754 35.6469C132.052 35.1708 130.387 34.5714 128.773 33.8538C125.697 32.5654 122.448 31.2233 119.199 31.7709L118.495 31.9104C117.691 32.1245 116.855 32.1936 116.026 32.1144C115.196 31.9562 114.405 31.6389 113.698 31.1803C112.452 30.4481 111.244 29.6525 110.081 28.7967Z" fill="#231F20"/>
<path d="M125.99 68.3519C124.346 68.3482 122.704 68.2442 121.073 68.0406C120.926 68.0167 120.795 67.9374 120.706 67.8192C120.617 67.701 120.578 67.5533 120.596 67.4071C120.618 67.2625 120.696 67.132 120.813 67.0437C120.931 66.9554 121.078 66.9162 121.225 66.9347C123.486 67.2227 125.77 67.3018 128.047 67.1709C128.112 67.1701 128.176 67.1517 128.231 67.1176C128.287 67.0836 128.332 67.0351 128.361 66.9776C129.444 65.3026 126.78 57.3895 124.874 52.7941C124.833 52.7255 124.808 52.6491 124.799 52.5699C124.791 52.4908 124.8 52.4107 124.825 52.3352C124.85 52.2597 124.891 52.1904 124.946 52.1319C125 52.0735 125.067 52.0273 125.141 51.9964C125.215 51.9655 125.295 51.9507 125.375 51.9528C125.455 51.955 125.534 51.9742 125.606 52.0091C125.678 52.0439 125.742 52.0937 125.793 52.155C125.844 52.2163 125.882 52.2878 125.903 52.3646C126.434 53.6423 131.004 64.8624 129.314 67.5574C129.193 67.7669 129.02 67.9426 128.811 68.0683C128.603 68.194 128.366 68.2657 128.123 68.2768C127.397 68.3305 126.683 68.3519 125.99 68.3519Z" fill="#231F20"/>
<path d="M105.684 65.8393L104.926 79.1746C104.926 79.1746 110.211 89.3747 126.661 89.117C138.865 88.9237 144.313 81.6011 145.363 79.1746C146.414 76.748 146.165 65.6675 146.165 65.6675L105.684 65.8393Z" fill="white"/>
<path d="M126.054 89.6753C109.929 89.6753 104.493 79.5289 104.395 79.4323C104.343 79.3448 104.321 79.2434 104.33 79.1424L105.088 65.807C105.096 65.6664 105.158 65.5341 105.26 65.4366C105.363 65.339 105.499 65.2834 105.641 65.2809L146.121 65.1091C146.268 65.1118 146.408 65.17 146.513 65.2718C146.618 65.3737 146.679 65.5114 146.685 65.6567C146.685 66.1077 146.923 76.8876 145.84 79.3893C144.616 82.1917 138.801 89.4821 126.617 89.6753H126.054ZM105.478 79.0457C106.139 80.1194 111.586 88.5694 126.054 88.5694H126.65C138.227 88.3869 143.717 81.5689 144.854 78.9061C145.634 77.1131 145.677 69.565 145.623 66.1721L106.204 66.3868L105.478 79.0457Z" fill="#231F20"/>
<path d="M105.684 66.3977C105.564 66.3976 105.447 66.3588 105.351 66.2871C105.256 66.2155 105.186 66.1148 105.153 66.0005L99.5868 47.7476C99.5661 47.6771 99.5597 47.6033 99.5679 47.5303C99.576 47.4574 99.5986 47.3867 99.6343 47.3224C99.67 47.2581 99.7181 47.2014 99.776 47.1555C99.8338 47.1097 99.9001 47.0755 99.9712 47.0551C100.042 47.0346 100.117 47.0283 100.19 47.0364C100.264 47.0445 100.335 47.0668 100.4 47.1022C100.465 47.1376 100.522 47.1853 100.568 47.2426C100.615 47.3 100.649 47.3657 100.67 47.4362L106.247 65.6891C106.287 65.83 106.27 65.9811 106.199 66.1096C106.128 66.2382 106.009 66.3339 105.868 66.3763C105.809 66.3965 105.746 66.4038 105.684 66.3977Z" fill="#231F20"/>
<path d="M146.165 66.2261H145.992C145.852 66.1795 145.736 66.0802 145.669 65.9496C145.602 65.8191 145.59 65.6678 145.634 65.5282L150.778 49.659C150.824 49.5166 150.925 49.3981 151.059 49.3297C151.126 49.2958 151.198 49.2752 151.273 49.269C151.347 49.2629 151.422 49.2713 151.493 49.2939C151.564 49.3165 151.63 49.3527 151.687 49.4005C151.744 49.4483 151.791 49.5068 151.825 49.5726C151.859 49.6384 151.88 49.7103 151.886 49.784C151.892 49.8578 151.884 49.932 151.861 50.0025L146.717 65.8718C146.676 65.9818 146.599 66.0756 146.5 66.1394C146.401 66.2032 146.283 66.2336 146.165 66.2261Z" fill="#231F20"/>
<path d="M137.11 50.0296C137.178 47.8059 136.495 45.9813 135.586 45.9542C134.677 45.9272 133.885 47.7079 133.818 49.9316C133.751 52.1553 134.433 53.9799 135.342 54.007C136.251 54.034 137.043 52.2533 137.11 50.0296Z" fill="#231F20"/>
<path d="M116.14 49.3206C116.207 47.0969 115.525 45.2723 114.616 45.2453C113.707 45.2182 112.915 46.999 112.848 49.2227C112.781 51.4464 113.463 53.2709 114.372 53.298C115.281 53.325 116.073 51.5443 116.14 49.3206Z" fill="#231F20"/>
<path d="M128.079 86.3254H127.971C127.901 86.3102 127.835 86.2814 127.777 86.2407C127.718 86.2 127.668 86.1482 127.63 86.0883C127.592 86.0284 127.566 85.9616 127.554 85.8917C127.542 85.8219 127.544 85.7503 127.56 85.6812C129.292 77.8539 127.56 67.9867 127.56 67.8793C127.547 67.8101 127.549 67.7391 127.565 67.6706C127.58 67.6021 127.61 67.5374 127.651 67.4804C127.693 67.4233 127.745 67.3751 127.806 67.3385C127.866 67.3019 127.933 67.2777 128.004 67.2673C128.144 67.2422 128.289 67.2732 128.407 67.3537C128.525 67.4342 128.605 67.5575 128.632 67.6968C128.697 68.1048 130.397 77.8754 128.632 85.9496C128.596 86.0646 128.521 86.1642 128.421 86.2324C128.321 86.3005 128.201 86.3333 128.079 86.3254V86.3254Z" fill="#D1D3D4"/>
<path d="M66.2103 250C66.075 250 65.9447 249.949 65.8461 249.857C65.7474 249.765 65.6879 249.64 65.6796 249.506L59.2686 150.64C59.2599 150.497 59.3087 150.358 59.4042 150.251C59.4996 150.144 59.6339 150.079 59.7775 150.071C59.9211 150.062 60.0623 150.111 60.1699 150.205C60.2776 150.3 60.3429 150.433 60.3515 150.575L66.7517 249.431C66.7561 249.501 66.7464 249.572 66.7232 249.639C66.7 249.706 66.6637 249.767 66.6164 249.82C66.5691 249.873 66.5118 249.916 66.4477 249.947C66.3835 249.978 66.3139 249.996 66.2428 250H66.2103Z" fill="#231F20"/>
<path d="M181.577 250C181.506 249.994 181.437 249.975 181.374 249.943C181.311 249.911 181.255 249.866 181.21 249.812C181.164 249.758 181.13 249.695 181.11 249.628C181.089 249.561 181.082 249.49 181.09 249.42L190.122 156.706C190.138 156.565 190.21 156.437 190.321 156.348C190.433 156.26 190.575 156.219 190.717 156.234C190.787 156.24 190.855 156.261 190.917 156.294C190.979 156.327 191.033 156.371 191.078 156.425C191.122 156.479 191.155 156.541 191.175 156.608C191.195 156.674 191.201 156.744 191.194 156.814L182.119 249.527C182.103 249.658 182.039 249.779 181.939 249.866C181.839 249.953 181.71 250.001 181.577 250V250Z" fill="#231F20"/>
<path d="M124.614 250C124.47 250 124.332 249.943 124.231 249.843C124.129 249.742 124.072 249.605 124.072 249.463V129.209C124.072 129.067 124.129 128.93 124.231 128.829C124.332 128.729 124.47 128.672 124.614 128.672C124.757 128.672 124.895 128.729 124.997 128.829C125.098 128.93 125.155 129.067 125.155 129.209V249.463C125.157 249.534 125.144 249.604 125.117 249.67C125.09 249.736 125.05 249.796 125 249.846C124.949 249.896 124.889 249.936 124.823 249.962C124.756 249.988 124.685 250.001 124.614 250V250Z" fill="#231F20"/>
<path d="M109.095 143.231C109.008 143.23 108.923 143.209 108.846 143.17C108.769 143.131 108.703 143.075 108.651 143.006C99.0777 129.445 94.4968 110.215 94.4535 110.022C94.4375 109.954 94.4351 109.884 94.4467 109.815C94.4582 109.747 94.4833 109.681 94.5206 109.622C94.5578 109.563 94.6065 109.512 94.6637 109.472C94.721 109.432 94.7857 109.404 94.8542 109.388C94.9934 109.356 95.1399 109.38 95.2617 109.454C95.3834 109.529 95.4705 109.648 95.5039 109.786C95.5039 109.968 99.9332 128.35 109.052 141.696L118.452 125.322C118.487 125.261 118.533 125.208 118.589 125.165C118.644 125.123 118.708 125.091 118.776 125.073C118.844 125.054 118.914 125.049 118.984 125.058C119.054 125.067 119.122 125.089 119.183 125.123C119.244 125.158 119.298 125.204 119.341 125.259C119.384 125.314 119.416 125.377 119.434 125.445C119.453 125.512 119.458 125.582 119.449 125.651C119.44 125.721 119.418 125.788 119.383 125.848L109.561 142.963C109.516 143.042 109.452 143.108 109.374 143.155C109.296 143.202 109.208 143.228 109.117 143.231H109.095Z" fill="#231F20"/>
<path d="M144.454 142.158C144.369 142.157 144.285 142.137 144.209 142.098C144.134 142.058 144.069 142.002 144.02 141.932L131.447 124.41C131.365 124.293 131.332 124.15 131.354 124.01C131.376 123.87 131.452 123.744 131.567 123.658C131.625 123.617 131.691 123.587 131.76 123.572C131.83 123.556 131.902 123.554 131.973 123.566C132.043 123.578 132.111 123.603 132.171 123.641C132.231 123.679 132.284 123.729 132.325 123.787L144.324 140.526C146.013 136.36 152.868 118.665 152.359 107.563C152.356 107.493 152.367 107.422 152.392 107.356C152.417 107.29 152.454 107.229 152.502 107.177C152.551 107.125 152.609 107.084 152.673 107.054C152.738 107.024 152.808 107.008 152.879 107.005C152.951 106.999 153.023 107.008 153.091 107.031C153.159 107.054 153.222 107.091 153.275 107.14C153.328 107.188 153.37 107.247 153.399 107.313C153.428 107.378 153.442 107.449 153.442 107.52C154.027 120.34 145.32 140.955 144.952 141.879C144.913 141.964 144.853 142.038 144.777 142.095C144.701 142.151 144.612 142.188 144.519 142.201L144.454 142.158Z" fill="#231F20"/>
<path d="M157.189 216.447C157.093 216.447 157 216.421 156.918 216.372L136.223 204.894C136.14 204.846 136.07 204.777 136.023 204.694C135.975 204.611 135.951 204.517 135.952 204.421V172.822C135.951 172.753 135.963 172.683 135.99 172.618C136.016 172.553 136.054 172.494 136.104 172.444C136.153 172.394 136.212 172.354 136.277 172.327C136.342 172.3 136.412 172.286 136.483 172.286H172.155C172.226 172.286 172.296 172.3 172.361 172.327C172.426 172.354 172.485 172.394 172.534 172.444C172.584 172.494 172.623 172.553 172.649 172.618C172.675 172.683 172.687 172.753 172.686 172.822V204.432C172.686 204.513 172.668 204.593 172.632 204.665C172.597 204.738 172.545 204.801 172.48 204.851L157.514 216.339C157.421 216.411 157.306 216.448 157.189 216.447ZM137.024 204.11L157.102 215.266L171.581 204.164V173.349H137.024V204.11Z" fill="#231F20"/>
</svg>
