<svg width="250" height="250" viewBox="0 0 250 250" fill="none" xmlns="http://www.w3.org/2000/svg">
<g clip-path="url(#clip0)">
<path d="M243.196 185.455C243.196 185.455 246.514 106.764 244.851 99.9427C243.187 93.1211 227.916 61.2341 222.935 55.5893C217.954 49.9445 201.01 45.618 194.012 43.9635C187.013 42.3089 164.814 45.4587 166.442 51.599C168.07 57.7393 187.535 61.9331 187.535 61.9331C187.535 61.9331 187.305 122.619 187.535 134.918C187.765 147.216 200.595 194.843 200.595 194.843L243.196 185.455Z" fill="white"/>
<path d="M200.594 195.285C200.497 195.285 200.403 195.252 200.327 195.193C200.25 195.134 200.195 195.052 200.17 194.958C199.639 193.011 187.323 147.181 187.093 134.926C186.871 123.256 187.093 67.3125 187.093 62.287C184.359 61.6677 167.628 57.6509 166.018 51.6698C165.878 51.1093 165.896 50.5211 166.069 49.9701C166.243 49.4191 166.565 48.9266 167 48.5466C169.751 45.6976 176.989 44.282 179.97 43.8042C185.518 42.9195 191.207 42.7868 194.127 43.4857C209.654 47.1841 219.723 51.254 223.253 55.2443C228.111 60.7564 243.541 92.67 245.275 99.7923C246.93 106.605 243.762 182.217 243.629 185.429C243.625 185.528 243.588 185.623 243.524 185.698C243.46 185.773 243.372 185.825 243.275 185.845L200.692 195.276L200.594 195.285ZM188.968 43.99C181.607 43.99 170.795 45.9808 167.637 49.2456C167.31 49.5175 167.065 49.8752 166.931 50.2785C166.797 50.6818 166.777 51.1147 166.876 51.5283C168.459 57.3412 187.438 61.4996 187.632 61.5438C187.731 61.5645 187.82 61.6191 187.883 61.6983C187.946 61.7775 187.98 61.8762 187.977 61.9774C187.977 62.579 187.747 122.796 187.977 134.953C188.199 146.455 199.665 189.685 200.913 194.365L242.762 185.146C243.001 179.501 245.992 106.552 244.426 100.093C242.656 93.015 227.412 61.3757 222.598 55.9256C219.192 52.0591 209.283 48.0865 193.932 44.4236C192.3 44.0823 190.635 43.922 188.968 43.9458V43.99Z" fill="#231F20"/>
<path d="M6.8038 185.455C6.8038 185.455 3.48592 106.764 5.14928 99.9427C6.81264 93.1211 22.0837 61.2341 27.065 55.5893C32.0462 49.9445 48.9895 45.618 55.988 43.9635C62.9865 42.3089 85.2562 45.4587 83.5839 51.599C81.9117 57.7393 62.4911 61.9331 62.4911 61.9331C62.4911 61.9331 62.7211 122.619 62.4911 134.918C62.261 147.216 49.4319 194.843 49.4319 194.843L6.8038 185.455Z" fill="white"/>
<path d="M49.4052 195.285H49.3079L6.71515 185.898C6.61813 185.878 6.53054 185.826 6.46638 185.751C6.40222 185.676 6.3652 185.581 6.36125 185.482C6.22853 182.27 3.06106 106.658 4.71558 99.8453C6.48511 92.7672 21.8801 60.8094 26.7374 55.2973C30.2765 51.307 40.3363 47.237 55.864 43.5387C58.7926 42.8397 64.4816 42.9725 70.0203 43.8572C73.002 44.335 80.2394 45.7506 82.991 48.5996C83.426 48.9795 83.7479 49.4721 83.9212 50.0231C84.0944 50.5741 84.1124 51.1622 83.9731 51.7228C82.3451 57.6596 65.6318 61.6764 62.8979 62.34C62.8979 67.3655 63.1191 123.309 62.8979 134.979C62.6767 147.145 50.3607 192.976 49.7945 194.958C49.7712 195.046 49.7213 195.125 49.6516 195.183C49.5819 195.242 49.4959 195.277 49.4052 195.285ZM7.23716 185.102L49.0867 194.321C50.3342 189.64 61.8008 146.419 62.022 134.909C62.252 122.752 62.022 62.5347 62.022 61.933C62.0199 61.8319 62.0532 61.7331 62.1162 61.6539C62.1792 61.5748 62.268 61.5201 62.367 61.4995C62.5617 61.4553 81.54 57.2968 83.1237 51.4839C83.222 51.0703 83.2029 50.6375 83.0684 50.2342C82.934 49.8309 82.6896 49.4731 82.3628 49.2012C78.3636 45.0605 62.0131 43.0078 56.0675 44.3881C40.7168 48.0422 30.8074 52.0148 27.401 55.8901C22.5879 61.3314 7.32564 92.9972 5.5561 100.075C4.00776 106.508 6.99828 179.457 7.23716 185.102Z" fill="#231F20"/>
<path d="M75.002 53.0147V54.4746H87.5303V53.0147H75.002Z" fill="#231F20"/>
<path d="M87.5302 54.9522H75.0107C74.8934 54.9522 74.7809 54.9056 74.6979 54.8227C74.615 54.7397 74.5684 54.6272 74.5684 54.5098V53.0234C74.5684 52.9061 74.615 52.7936 74.6979 52.7106C74.7809 52.6277 74.8934 52.5811 75.0107 52.5811H87.5302C87.6475 52.5811 87.7601 52.6277 87.843 52.7106C87.926 52.7936 87.9726 52.9061 87.9726 53.0234V54.4745C87.9775 54.5355 87.9697 54.5968 87.9496 54.6546C87.9296 54.7125 87.8978 54.7655 87.8562 54.8104C87.8146 54.8553 87.7642 54.8911 87.7081 54.9155C87.652 54.9399 87.5914 54.9524 87.5302 54.9522ZM75.4531 54.0675H87.0967V53.4835H75.4531V54.0675Z" fill="#231F20"/>
<path d="M37.1782 63.3398L37.1782 128.229C37.1782 133.526 41.4722 137.82 46.7691 137.82H203.276C208.573 137.82 212.867 133.526 212.867 128.229V63.3398C212.867 58.0429 208.573 53.7489 203.276 53.7489L46.7691 53.7489C41.4722 53.7489 37.1782 58.0429 37.1782 63.3398Z" fill="#231F20"/>
<path d="M203.275 138.262H46.7598C44.101 138.257 41.5527 137.198 39.6735 135.318C37.7943 133.437 36.7377 130.888 36.7354 128.229V63.3399C36.7377 60.6812 37.7943 58.1319 39.6735 56.251C41.5527 54.3702 44.101 53.3113 46.7598 53.3066H203.275C205.934 53.3113 208.482 54.3702 210.361 56.251C212.241 58.1319 213.297 60.6812 213.3 63.3399V128.229C213.297 130.888 212.241 133.437 210.361 135.318C208.482 137.198 205.934 138.257 203.275 138.262V138.262ZM46.7598 54.2091C44.3342 54.2114 42.0086 55.1761 40.2934 56.8912C38.5782 58.6064 37.6136 60.932 37.6113 63.3576V128.246C37.6136 130.672 38.5782 132.998 40.2934 134.713C42.0086 136.428 44.3342 137.393 46.7598 137.395H203.275C205.701 137.393 208.026 136.428 209.742 134.713C211.457 132.998 212.421 130.672 212.424 128.246V63.3399C212.421 60.9143 211.457 58.5887 209.742 56.8735C208.026 55.1584 205.701 54.1938 203.275 54.1914L46.7598 54.2091Z" fill="#231F20"/>
<path d="M59.4829 58.0845L59.4829 133.484H191.765V58.0845L59.4829 58.0845Z" fill="white"/>
<path d="M202.355 102.907C200.957 102.898 199.593 102.475 198.435 101.692C197.277 100.909 196.376 99.8008 195.847 98.5067C195.319 97.2126 195.185 95.7908 195.463 94.4207C195.741 93.0506 196.418 91.7935 197.41 90.8081C198.402 89.8226 199.663 89.1528 201.035 88.8833C202.407 88.6138 203.827 88.7565 205.118 89.2935C206.409 89.8305 207.512 90.7377 208.288 91.9007C209.064 93.0637 209.478 94.4305 209.478 95.8285C209.464 97.7091 208.707 99.508 207.373 100.834C206.039 102.159 204.236 102.904 202.355 102.907ZM202.355 89.5466C201.122 89.5466 199.916 89.9125 198.89 90.5979C197.864 91.2833 197.065 92.2574 196.592 93.3972C196.12 94.537 195.997 95.7912 196.237 97.0012C196.478 98.2111 197.072 99.3226 197.945 100.195C198.817 101.067 199.928 101.661 201.138 101.902C202.348 102.143 203.602 102.019 204.742 101.547C205.882 101.075 206.856 100.275 207.542 99.2497C208.227 98.2239 208.593 97.0179 208.593 95.7843C208.593 94.1299 207.936 92.5434 206.766 91.3736C205.596 90.2038 204.01 89.5466 202.355 89.5466V89.5466Z" fill="#939598"/>
<path d="M47.3877 89.7768V101.792C47.3877 102.383 47.867 102.863 48.4583 102.863C49.0495 102.863 49.5288 102.383 49.5288 101.792V89.7768C49.5288 89.1856 49.0495 88.7063 48.4583 88.7063C47.867 88.7063 47.3877 89.1856 47.3877 89.7768Z" fill="#939598"/>
<path d="M48.9626 111.268C49.8324 111.268 50.5375 110.563 50.5375 109.693C50.5375 108.823 49.8324 108.118 48.9626 108.118C48.0928 108.118 47.3877 108.823 47.3877 109.693C47.3877 110.563 48.0928 111.268 48.9626 111.268Z" fill="#939598"/>
<path d="M43.5928 96.9612C44.2426 96.9612 44.7695 96.4343 44.7695 95.7844C44.7695 95.1345 44.2426 94.6077 43.5928 94.6077C42.9429 94.6077 42.416 95.1345 42.416 95.7844C42.416 96.4343 42.9429 96.9612 43.5928 96.9612Z" fill="#939598"/>
<path d="M131.698 87.2106H134.211V82.1851H126.611C126.611 81.3004 125.301 80.5041 125.301 79.6459H131.725V74.47C131.99 74.47 132.256 74.47 132.53 74.47H141.891V82.1055H144.421V94.8639H147.031V97.3147H144.439V99.907H141.811V102.446H134.291V99.9336H136.741V97.4208H134.229V94.9877H129.168L129.079 92.4042H134.193V89.7499H131.725V87.1929L131.698 87.2106ZM141.811 97.3501V92.3777H139.334V97.3501H141.811ZM141.811 87.2814H139.343V89.7499H141.811V87.2814Z" fill="#754EE4"/>
<path d="M116.409 122.752H98.7134V105.057H116.409V122.752ZM113.869 120.213V107.605H101.27V120.213H113.869Z" fill="#754EE4"/>
<path d="M134.29 122.752V105.057H151.985V122.752H134.29ZM149.428 107.622H136.838V120.222H149.428V107.622Z" fill="#754EE4"/>
<path d="M98.7412 69.5164H116.437V87.2117H98.7412V69.5164ZM113.897 72.0556H101.28V84.6636H113.897V72.0556Z" fill="#754EE4"/>
<path d="M129.114 115.178H131.653V110.091H126.61V105.074H124.115V107.516H121.558V102.544H118.904C118.904 105.269 118.904 108.003 118.904 110.728V112.621H129.034V115.223L129.114 115.178Z" fill="#754EE4"/>
<path d="M108.844 97.3325H111.392V99.8984H113.896V97.421H116.409V94.9171H111.419V92.3778H108.853V89.8474H106.322V92.3071H103.765V89.8563H98.7134V92.3425H101.27V94.9968H108.862V97.4476L108.844 97.3325Z" fill="#754EE4"/>
<path d="M149.402 87.2286C149.402 85.8572 149.402 84.4858 149.464 83.1233C149.464 81.9819 149.464 80.8406 149.464 79.5842H151.968V74.5764H149.517V77.0007H147.066C147.01 77.1697 146.974 77.345 146.96 77.5227C146.96 80.6194 146.96 83.722 146.96 86.8304C146.96 86.9366 146.96 87.0428 147.004 87.2197H149.42L149.402 87.2286Z" fill="#754EE4"/>
<path d="M129.185 94.9702L126.646 94.8286V99.9072H124.115V102.438H131.627V99.9514H129.141V94.9525L129.185 94.9702Z" fill="#754EE4"/>
<path d="M144.464 99.9072V102.438H149.481V99.9514H151.976V94.9348H149.437V97.3856H146.986V99.978H144.394L144.464 99.9072Z" fill="#754EE4"/>
<path d="M101.288 94.9349H98.749V102.447H103.695V99.9073H101.244V94.8906L101.288 94.9349Z" fill="#754EE4"/>
<path d="M131.768 72.1253C131.622 72.0733 131.471 72.0377 131.317 72.0192H124.434C124.336 72.0138 124.239 72.0138 124.142 72.0192V74.5053H126.575V77.0712H129.229V74.47H131.786L131.839 72.0899L131.768 72.1253Z" fill="#754EE4"/>
<path d="M129.079 117.842C129.079 116.957 129.079 116.072 129.079 115.187H124.115V122.725H126.557V117.691L129.061 117.824L129.079 117.842Z" fill="#754EE4"/>
<path d="M121.611 84.822C121.682 84.822 121.753 84.7069 121.815 84.7069L126.575 84.76C126.575 83.8133 126.628 82.8755 126.628 81.9288C126.628 80.2919 126.628 78.6551 126.575 77.0183H124.115V82.1234H121.647V84.7777L121.611 84.822Z" fill="#754EE4"/>
<path d="M103.695 99.9072H106.296V102.438H108.844V97.3325H103.766V99.8983L103.695 99.9072Z" fill="#754EE4"/>
<path d="M149.411 87.2107C149.411 88.9006 149.411 90.5994 149.411 92.2981H152.012V87.2372H149.464L149.411 87.2107Z" fill="#754EE4"/>
<path d="M139.342 69.5066V71.9751H144.367V69.5066H139.342Z" fill="#754EE4"/>
<path d="M121.62 94.9791L118.966 94.8198V99.8718H121.62V94.9791V94.9791Z" fill="#754EE4"/>
<path d="M119.036 69.5244V74.488H121.46V69.5244H119.036Z" fill="#754EE4"/>
<path d="M129.079 92.4043V89.8208H124.054C124.107 90.7056 124.151 91.5903 124.204 92.4043H129.097H129.079Z" fill="#754EE4"/>
<path d="M118.948 102.544C118.948 101.659 118.948 100.774 118.948 99.8896L114.842 99.9516H113.958V102.535H118.956L118.948 102.544Z" fill="#754EE4"/>
<path d="M121.62 84.8397L119.045 84.645V89.7501H121.611V84.8397H121.62Z" fill="#754EE4"/>
<path d="M119.036 115.24V120.213H121.505V115.24H119.036Z" fill="#754EE4"/>
<path d="M129.097 117.833C129.097 119.178 129.141 120.487 129.159 121.867V122.752H131.663V117.682L129.079 117.833H129.097Z" fill="#754EE4"/>
<path d="M126.575 84.76V87.1843H131.724V84.76H126.584H126.575Z" fill="#754EE4"/>
<path d="M121.514 79.5751V77.1155H119.045V79.5751H121.514Z" fill="#754EE4"/>
<path d="M131.759 72.1168L134.201 71.9576V69.5156H131.768V72.1168H131.759Z" fill="#754EE4"/>
<path d="M113.993 92.307H116.391V89.8208H113.993V92.307Z" fill="#754EE4"/>
<path d="M149.411 94.9351L149.358 92.2808H146.996V94.9351H149.446H149.411Z" fill="#754EE4"/>
<path d="M146.996 69.5156V71.9753H149.411V69.5156H146.996Z" fill="#754EE4"/>
<path d="M129.194 105.083V107.508H131.654V105.083H129.194Z" fill="#754EE4"/>
<path d="M111.374 117.682V110.135H103.818V117.682H111.374Z" fill="#754EE4"/>
<path d="M139.342 117.674H146.889V110.118H139.342V117.674Z" fill="#754EE4"/>
<path d="M111.357 74.5852H103.818V82.1411H111.357V74.5852Z" fill="#754EE4"/>
<path d="M91.9189 77.1776C91.6843 77.1776 91.4592 77.0844 91.2933 76.9185C91.1274 76.7525 91.0342 76.5275 91.0342 76.2928V64.2246C91.0342 63.99 91.1274 63.7649 91.2933 63.599C91.4592 63.4331 91.6843 63.3398 91.9189 63.3398H104.792C105.027 63.3398 105.252 63.4331 105.418 63.599C105.584 63.7649 105.677 63.99 105.677 64.2246C105.677 64.4593 105.584 64.6843 105.418 64.8502C105.252 65.0162 105.027 65.1094 104.792 65.1094H92.8037V76.2928C92.8037 76.5275 92.7105 76.7525 92.5446 76.9185C92.3786 77.0844 92.1536 77.1776 91.9189 77.1776Z" fill="#754EE4"/>
<path d="M104.792 128.928H91.9189C91.6843 128.928 91.4592 128.834 91.2933 128.669C91.1274 128.503 91.0342 128.278 91.0342 128.043V116.001C91.0342 115.767 91.1274 115.542 91.2933 115.376C91.4592 115.21 91.6843 115.116 91.9189 115.116C92.1536 115.116 92.3786 115.21 92.5446 115.376C92.7105 115.542 92.8037 115.767 92.8037 116.001V127.185H104.792C105.027 127.185 105.252 127.278 105.418 127.444C105.584 127.61 105.677 127.835 105.677 128.069C105.677 128.304 105.584 128.529 105.418 128.695C105.252 128.861 105.027 128.954 104.792 128.954V128.928Z" fill="#754EE4"/>
<path d="M158.798 77.1776C158.563 77.1776 158.338 77.0844 158.172 76.9185C158.007 76.7525 157.913 76.5275 157.913 76.2928V65.1094H145.934C145.699 65.1094 145.474 65.0162 145.308 64.8502C145.142 64.6843 145.049 64.4593 145.049 64.2246C145.049 63.99 145.142 63.7649 145.308 63.599C145.474 63.4331 145.699 63.3398 145.934 63.3398H158.798C159.033 63.3398 159.258 63.4331 159.424 63.599C159.59 63.7649 159.683 63.99 159.683 64.2246V76.2928C159.683 76.5275 159.59 76.7525 159.424 76.9185C159.258 77.0844 159.033 77.1776 158.798 77.1776Z" fill="#754EE4"/>
<path d="M158.798 128.928H145.934C145.699 128.928 145.474 128.834 145.308 128.669C145.142 128.503 145.049 128.278 145.049 128.043C145.049 127.808 145.142 127.583 145.308 127.417C145.474 127.251 145.699 127.158 145.934 127.158H157.913V116.001C157.913 115.767 158.007 115.542 158.172 115.376C158.338 115.21 158.563 115.116 158.798 115.116C159.033 115.116 159.258 115.21 159.424 115.376C159.59 115.542 159.683 115.767 159.683 116.001V128.069C159.676 128.299 159.58 128.518 159.415 128.678C159.249 128.838 159.028 128.928 158.798 128.928Z" fill="#754EE4"/>
<path d="M51.7941 188.446C51.7941 188.446 62.9422 161.363 64.9329 146.596C67.5872 127.131 69.7992 77.9119 65.2691 67.8521C60.9072 58.1904 48.6532 68.2502 48.2197 76.6997C47.7861 85.1493 47.0783 99.509 40.8672 112.241C38.5377 117.025 36.8025 122.076 35.7002 127.282" fill="white"/>
<path d="M51.7944 188.888C51.7391 188.902 51.6815 188.902 51.6263 188.888C51.5722 188.867 51.5229 188.835 51.4812 188.794C51.4395 188.754 51.4062 188.706 51.3832 188.652C51.3601 188.599 51.3479 188.541 51.3471 188.483C51.3463 188.425 51.357 188.367 51.3785 188.313C51.4936 188.039 62.5266 161.115 64.4996 146.57C67.2778 125.955 69.1712 77.6465 64.8624 68.091C63.5795 65.2509 61.4914 64.0211 58.8283 64.5519C54.0594 65.4367 48.9277 71.6301 48.6623 76.8502V76.9652C48.2288 85.5032 47.4944 99.8099 41.2745 112.568C38.9656 117.313 37.2453 122.323 36.1517 127.485C36.1281 127.599 36.0616 127.699 35.966 127.765C35.8705 127.831 35.7532 127.858 35.6385 127.839C35.5809 127.83 35.5257 127.809 35.4763 127.778C35.4268 127.747 35.3839 127.706 35.3502 127.658C35.3165 127.611 35.2925 127.557 35.2797 127.5C35.267 127.443 35.2656 127.384 35.2758 127.326C36.3948 122.085 38.1447 116.999 40.4871 112.179C46.6273 99.5799 47.3528 85.3971 47.7775 76.921V76.806C48.0695 71.17 53.4577 64.667 58.669 63.6849C61.7303 63.1009 64.2165 64.5696 65.6675 67.7637C70.1976 77.8058 68.136 126.291 65.3756 146.729C63.3937 161.381 52.3075 188.411 52.2014 188.685C52.1576 188.752 52.0969 188.806 52.0254 188.842C51.9539 188.877 51.8742 188.894 51.7944 188.888Z" fill="#231F20"/>
<path d="M67.3308 206.177L63.1636 168.203L2.72508 170.521C2.72508 170.521 1.1502 189.782 0.442383 206.177H67.3308Z" fill="#231F20"/>
<path d="M67.3308 206.619H0.442405C0.382321 206.62 0.322858 206.607 0.267952 206.583C0.213046 206.558 0.163944 206.522 0.123888 206.478C0.0432348 206.391 -0.00111675 206.277 2.13745e-05 206.159C0.698988 189.941 2.27387 170.68 2.29157 170.485C2.29995 170.379 2.3467 170.279 2.42316 170.204C2.49962 170.129 2.6006 170.084 2.70741 170.078L63.1459 167.751C63.2589 167.746 63.3697 167.785 63.4553 167.859C63.5408 167.933 63.5948 168.037 63.606 168.15L67.7732 206.124C67.7796 206.186 67.7726 206.249 67.7528 206.309C67.733 206.368 67.7007 206.423 67.6582 206.469C67.618 206.516 67.5678 206.554 67.5113 206.58C67.4547 206.606 67.3931 206.62 67.3308 206.619ZM0.902485 205.734H66.8442L62.7743 168.654L3.1321 170.945C2.90206 173.732 1.54837 190.915 0.902485 205.734V205.734Z" fill="#231F20"/>
<path d="M198.206 188.446C198.206 188.446 187.058 161.363 185.067 146.596C182.413 127.131 180.201 77.9119 184.731 67.8521C189.093 58.1904 201.347 68.2502 201.78 76.6997C202.214 85.1493 202.922 99.509 209.133 112.241C211.462 117.025 213.197 122.076 214.3 127.282" fill="white"/>
<path d="M198.206 188.888C198.119 188.887 198.034 188.86 197.962 188.811C197.89 188.763 197.833 188.694 197.799 188.614C197.693 188.34 186.606 161.31 184.625 146.658C181.864 126.22 179.803 77.7349 184.333 67.6928C185.784 64.4811 188.261 63.0301 191.331 63.614C196.542 64.5961 201.948 71.0992 202.223 76.7352V76.8502C202.647 85.3262 203.373 99.5091 209.513 112.108C211.855 116.928 213.605 122.014 214.724 127.255C214.735 127.313 214.733 127.372 214.72 127.429C214.708 127.486 214.684 127.54 214.65 127.588C214.616 127.635 214.573 127.676 214.524 127.707C214.474 127.738 214.419 127.759 214.362 127.769C214.247 127.787 214.13 127.76 214.034 127.694C213.939 127.629 213.872 127.528 213.848 127.415C212.76 122.24 211.043 117.219 208.735 112.462C202.541 99.7037 201.78 85.397 201.347 76.859V76.744C201.081 71.5504 195.95 65.3482 191.181 64.4457C188.526 63.9414 186.43 65.1801 185.147 67.9848C180.838 77.5403 182.731 125.849 185.509 146.464C187.482 161.009 198.515 187.933 198.63 188.207C198.652 188.261 198.663 188.319 198.662 188.377C198.661 188.435 198.649 188.493 198.626 188.546C198.603 188.599 198.57 188.648 198.528 188.688C198.486 188.729 198.437 188.761 198.383 188.782C198.335 188.834 198.274 188.871 198.206 188.888V188.888Z" fill="#231F20"/>
<path d="M249.557 206.177C248.85 189.782 247.275 170.521 247.275 170.521L186.836 168.203L182.669 206.186L249.557 206.177Z" fill="#231F20"/>
<path d="M249.558 206.619H182.669C182.607 206.62 182.545 206.606 182.489 206.58C182.432 206.554 182.382 206.516 182.342 206.469C182.299 206.423 182.267 206.368 182.247 206.309C182.227 206.249 182.221 206.186 182.227 206.124L186.394 168.15C186.405 168.037 186.459 167.933 186.545 167.859C186.63 167.785 186.741 167.746 186.854 167.751L247.293 170.078C247.4 170.084 247.501 170.129 247.577 170.204C247.653 170.279 247.7 170.379 247.709 170.485C247.709 170.68 249.301 189.95 250 206.159C250.001 206.277 249.957 206.391 249.876 206.478C249.836 206.522 249.787 206.558 249.732 206.583C249.677 206.607 249.618 206.62 249.558 206.619ZM183.2 205.734H249.142C248.496 190.915 247.133 173.732 246.912 170.945L187.27 168.654L183.2 205.734Z" fill="#231F20"/>
</g>
<defs>
<clipPath id="clip0">
<rect width="250" height="250" fill="white"/>
</clipPath>
</defs>
</svg>
