<svg width="250" height="250" viewBox="0 0 250 250" fill="none" xmlns="http://www.w3.org/2000/svg">
<g clip-path="url(#clip0)">
<path d="M130.082 67.2111C130.082 67.2111 112.919 69.7237 98.1721 64.7728C83.4256 59.822 67.0889 69.0134 67.0889 69.0134C67.0889 69.0134 75.7926 76.3283 79.2698 85.8377C79.2698 85.8377 90.3483 81.5972 106.494 84.1309C115.923 85.6934 125.584 85.0917 134.747 82.3711L130.082 67.2111Z" fill="white"/>
<path d="M79.2699 86.3676C79.2001 86.3831 79.1277 86.3831 79.0579 86.3676C78.9924 86.3355 78.9347 86.2895 78.8889 86.2327C78.8431 86.1759 78.8103 86.1098 78.7929 86.0389C75.411 76.7839 66.8451 69.5114 66.7603 69.4372C66.6951 69.3819 66.6445 69.3114 66.613 69.2319C66.5816 69.1523 66.5703 69.0663 66.5801 68.9813C66.5876 68.8962 66.6157 68.8141 66.6618 68.7421C66.708 68.6701 66.7709 68.6103 66.8451 68.5679C67.0147 68.4831 83.5635 59.3235 98.363 64.3273C112.813 69.1722 129.86 66.7657 130.029 66.7339C130.155 66.7157 130.283 66.7432 130.39 66.8113C130.497 66.8794 130.576 66.9835 130.612 67.1049L135.277 82.2649C135.318 82.3957 135.306 82.5372 135.245 82.6597C135.184 82.7822 135.077 82.8763 134.948 82.9221C125.696 85.6457 115.951 86.258 106.431 84.7138C90.6346 82.2331 79.5986 86.3464 79.4819 86.3888C79.4106 86.3943 79.3388 86.3872 79.2699 86.3676ZM68.0113 69.0768C70.0149 70.8896 76.4924 77.155 79.588 85.1272C88.3506 82.569 97.5802 82.0361 106.579 83.5688C115.756 85.0348 125.142 84.4923 134.09 81.9786L129.679 67.794C126.849 68.1438 111.339 69.7658 97.9707 65.2815C85.3127 61.0197 71.2129 67.5078 68.0113 69.0768Z" fill="#231F20"/>
<path d="M195.408 77.2929C195.002 77.8792 194.747 78.5564 194.666 79.2647C194.418 80.8568 194.537 82.4844 195.013 84.0238C195.489 85.5632 196.309 86.9739 197.412 88.1487C198.62 89.4208 200.528 90.3962 202.087 89.5905C202.493 89.3548 202.843 89.0353 203.116 88.6532C203.388 88.2711 203.576 87.8352 203.666 87.3748C203.843 86.4538 203.843 85.5077 203.666 84.5866C203.158 81.1094 200.115 71.1971 195.408 77.2929Z" fill="white"/>
<path d="M200.868 90.4175C199.398 90.3031 198.029 89.6228 197.051 88.5199C195.893 87.2842 195.031 85.801 194.531 84.1827C194.032 82.5645 193.907 80.8537 194.167 79.1801C194.259 78.387 194.547 77.6292 195.005 76.975C196.32 75.247 197.666 74.5473 199.002 74.8547C202.182 75.671 203.868 82.2757 204.207 84.4702C204.393 85.4616 204.393 86.4789 204.207 87.4704C204.102 88.0068 203.882 88.5141 203.561 88.9571C203.241 89.4001 202.828 89.7681 202.352 90.0359C201.895 90.2822 201.386 90.4132 200.868 90.4175ZM198.355 75.8619C197.581 75.8619 196.733 76.4555 195.853 77.6111C195.493 78.1261 195.27 78.7246 195.206 79.3497C194.968 80.8695 195.079 82.4237 195.533 83.8936C195.987 85.3635 196.771 86.7102 197.825 87.8308C198.885 88.9758 200.581 89.8345 201.853 89.1666C202.192 88.9664 202.485 88.6966 202.711 88.3749C202.938 88.0533 203.094 87.6871 203.168 87.3007C203.327 86.4423 203.327 85.5619 203.168 84.7034C202.744 81.9365 201.048 76.5404 198.747 75.9573C198.622 75.9072 198.49 75.8751 198.355 75.8619V75.8619Z" fill="#231F20"/>
<path d="M204.843 107.412C204.843 107.412 206.21 96.9483 206.2 95.6231C205.825 93.1788 205.326 90.755 204.705 88.3612C204.705 88.3612 198.811 85.7851 197.655 81.2901C196.5 76.7951 203.698 68.1444 205.5 68.1126C207.302 68.0808 206.857 69.5014 208.119 69.2575C209.38 69.0137 211.532 68.5366 212.518 70.3177C213.504 72.0987 213.578 73.2649 214.511 73.4981C215.444 73.7313 217.745 72.5864 218.752 74.9399C219.759 77.2934 219.674 74.8021 221.678 77.6114C223.682 80.4208 225.091 86.665 225.918 91.0009C226.745 95.3369 219.886 119.031 219.886 119.031L204.843 107.412Z" fill="white"/>
<path d="M219.961 119.539C219.842 119.542 219.727 119.505 219.632 119.433L204.525 107.836C204.45 107.78 204.391 107.706 204.353 107.62C204.316 107.535 204.302 107.441 204.313 107.348C204.79 103.733 205.681 96.6405 205.67 95.6228C205.325 93.3021 204.854 91.0017 204.26 88.7319C203.094 88.1806 198.228 85.6363 197.136 81.417C196.256 77.9927 199.701 73.1055 200.783 71.6955C202.214 69.8085 204.313 67.6034 205.5 67.5822C205.877 67.5527 206.255 67.6201 206.598 67.7778C206.941 67.9355 207.239 68.1784 207.462 68.4833C207.695 68.7483 207.727 68.7907 208.024 68.7377H208.172C209.455 68.4939 211.851 68.038 212.985 70.0735C213.324 70.699 213.568 71.2609 213.769 71.7167C214.119 72.5224 214.3 72.9147 214.639 72.9995C214.899 73.0285 215.163 73.0285 215.423 72.9995C216.483 72.8829 218.349 72.6814 219.261 74.7699C219.59 75.512 219.727 75.5968 219.749 75.6074H219.865C220.438 75.6074 221.042 75.7982 222.145 77.3354C224.191 80.2084 225.622 86.4738 226.512 90.9264C227.403 95.379 220.756 118.236 220.47 119.211C220.445 119.295 220.4 119.371 220.339 119.434C220.278 119.497 220.203 119.544 220.12 119.571L219.961 119.539ZM205.405 107.178L219.664 118.119C222.081 109.754 226.131 94.3188 225.473 91.0854C224.604 86.7177 223.215 80.6113 221.233 77.8973C220.342 76.6464 219.992 76.6252 219.77 76.6146C219.155 76.6146 218.784 76.3601 218.254 75.1304C217.724 73.9006 216.759 73.8582 215.498 73.9854C215.115 74.0541 214.724 74.0541 214.342 73.9854C213.483 73.7734 213.165 73.0313 212.752 72.0984C212.536 71.5679 212.288 71.051 212.01 70.5506C211.31 69.289 209.889 69.4904 208.331 69.7449H208.172C207.88 69.8143 207.575 69.7925 207.296 69.6826C207.017 69.5726 206.779 69.3797 206.614 69.13C206.49 68.9458 206.317 68.7997 206.115 68.708C205.913 68.6163 205.689 68.5825 205.469 68.6105C205.087 68.6105 203.56 69.6707 201.578 72.2998C199.595 74.9289 197.518 78.7666 198.122 81.1201C199.182 85.3607 204.822 87.8202 204.875 87.8414C204.951 87.8735 205.018 87.9228 205.071 87.9854C205.125 88.0479 205.163 88.122 205.182 88.2018C205.819 90.6463 206.321 93.1236 206.688 95.6228C206.741 96.8526 205.638 105.408 205.405 107.178Z" fill="#231F20"/>
<path d="M215.625 98.7608C215.524 98.7589 215.425 98.7296 215.339 98.676C214.622 98.204 214.053 97.5378 213.7 96.755C213.348 95.9723 213.225 95.1053 213.346 94.2552C212.986 94.5466 212.562 94.7493 212.109 94.8469C211.656 94.9445 211.186 94.9343 210.738 94.8171C209.296 94.3082 208.808 92.2728 208.363 89.8557C207.823 86.9191 211.109 82.7634 212.54 81.1095C214.321 79.0741 214.66 79.0847 214.841 79.0953C214.91 79.098 214.979 79.1144 215.042 79.1436C215.105 79.1728 215.162 79.2142 215.209 79.2654C215.257 79.3166 215.293 79.3766 215.317 79.442C215.341 79.5074 215.352 79.5769 215.349 79.6466C215.346 79.7535 215.309 79.8568 215.245 79.9421C215.18 80.0275 215.091 80.0909 214.989 80.1236C214.12 80.7067 208.819 86.4844 209.402 89.6648C209.763 91.5943 210.187 93.5025 211.098 93.8206C211.681 94.0326 212.636 93.598 213.855 92.559C213.948 92.4851 214.064 92.4448 214.183 92.4448C214.303 92.4448 214.418 92.4851 214.512 92.559C214.606 92.6296 214.674 92.7287 214.707 92.8416C214.739 92.9544 214.734 93.0748 214.692 93.1845C214.639 93.3011 213.494 96.2271 215.911 97.8067C215.971 97.8434 216.022 97.8917 216.063 97.9487C216.103 98.0057 216.132 98.0703 216.146 98.1386C216.161 98.2069 216.162 98.2775 216.149 98.3462C216.136 98.4148 216.109 98.4801 216.07 98.5382C216.019 98.6083 215.952 98.6651 215.875 98.7038C215.797 98.7425 215.712 98.7621 215.625 98.7608Z" fill="#231F20"/>
<path d="M213.96 87.2795C213.96 87.2795 214.225 90.3433 217.671 89.7179Z" fill="white"/>
<path d="M216.802 90.3327C216.042 90.3631 215.295 90.1351 214.681 89.686C213.966 89.0915 213.507 88.2452 213.399 87.3219C213.392 87.2522 213.4 87.1821 213.421 87.1154C213.442 87.0487 213.475 86.9867 213.52 86.9331C213.565 86.8794 213.62 86.8351 213.682 86.8027C213.744 86.7703 213.811 86.7504 213.881 86.7441C213.951 86.7378 214.021 86.7453 214.087 86.7662C214.154 86.787 214.216 86.8208 214.27 86.8656C214.323 86.9104 214.368 86.9653 214.4 87.0272C214.433 87.0891 214.452 87.1568 214.459 87.2265C214.536 87.8592 214.85 88.439 215.339 88.8485C215.661 89.0586 216.024 89.1983 216.404 89.2586C216.784 89.3189 217.172 89.2984 217.544 89.1983C217.684 89.173 217.829 89.2046 217.947 89.2861C218.064 89.3676 218.144 89.4924 218.169 89.633C218.195 89.7735 218.163 89.9184 218.081 90.0357C218 90.153 217.875 90.2331 217.735 90.2584C217.426 90.3064 217.114 90.3312 216.802 90.3327V90.3327Z" fill="#231F20"/>
<path d="M214.204 93.5344H214.13C214.061 93.5266 213.993 93.5049 213.933 93.4705C213.872 93.4362 213.818 93.3899 213.776 93.3345C213.733 93.2791 213.702 93.2156 213.685 93.148C213.667 93.0803 213.664 93.0098 213.674 92.9407C213.674 92.5697 214.226 89.2514 216.144 89.2302C216.283 89.2302 216.416 89.2846 216.515 89.3817C216.615 89.4788 216.672 89.611 216.674 89.7497C216.672 89.8905 216.615 90.0249 216.517 90.1254C216.418 90.226 216.285 90.285 216.144 90.2904C215.423 90.2904 214.862 91.9654 214.713 93.0891C214.693 93.211 214.632 93.3221 214.539 93.4034C214.446 93.4847 214.328 93.531 214.204 93.5344Z" fill="#231F20"/>
<path d="M207.409 90.6721C206.729 90.6694 206.066 90.4669 205.5 90.0899C204.935 89.713 204.492 89.1781 204.229 88.5519C202.766 85.7213 202.553 84.9898 203.423 82.9862C204.218 81.1521 210.695 74.7807 211.437 74.0598C211.485 74.0091 211.542 73.9687 211.606 73.9411C211.67 73.9134 211.739 73.8992 211.808 73.8992C211.878 73.8992 211.947 73.9134 212.011 73.9411C212.074 73.9687 212.132 74.0091 212.18 74.0598C212.229 74.1091 212.269 74.1677 212.296 74.2323C212.322 74.2969 212.336 74.3662 212.336 74.4361C212.336 74.5061 212.322 74.5754 212.296 74.64C212.269 74.7046 212.229 74.7632 212.18 74.8125C210.218 76.7313 205.002 82.0108 204.398 83.4102C203.709 85.0004 203.762 85.3503 205.172 88.0642C205.31 88.3801 205.512 88.6641 205.764 88.8984C206.017 89.1327 206.316 89.3122 206.641 89.4257C206.967 89.5392 207.312 89.5842 207.656 89.5578C208 89.5315 208.334 89.4345 208.639 89.2728C208.766 89.2135 208.911 89.2057 209.043 89.2512C209.176 89.2967 209.285 89.3918 209.349 89.5166C209.38 89.5792 209.398 89.6473 209.402 89.7169C209.407 89.7866 209.397 89.8564 209.375 89.9224C209.352 89.9884 209.316 90.0492 209.27 90.1015C209.224 90.1537 209.168 90.1963 209.105 90.2269C208.581 90.5035 208.001 90.6559 207.409 90.6721V90.6721Z" fill="#231F20"/>
<path d="M203.889 89.1347C203.764 89.1343 203.644 89.0892 203.55 89.0075L203.889 88.6046L203.55 89.0075C203.126 88.647 199.383 85.456 198.694 82.7208C197.952 79.8055 204.26 73.0948 204.981 72.3421C205.03 72.2924 205.089 72.253 205.153 72.2261C205.218 72.1992 205.287 72.1853 205.357 72.1853C205.427 72.1853 205.497 72.1992 205.561 72.2261C205.626 72.253 205.684 72.2924 205.734 72.3421C205.783 72.3905 205.822 72.4482 205.849 72.5119C205.876 72.5756 205.89 72.644 205.89 72.7131C205.89 72.7823 205.876 72.8507 205.849 72.9144C205.822 72.9781 205.783 73.0358 205.734 73.0842C203.158 75.7769 199.246 80.696 199.701 82.4664C200.2 84.4277 202.765 86.9932 204.207 88.2017C204.266 88.2535 204.313 88.3171 204.346 88.3883C204.379 88.4595 204.397 88.5368 204.398 88.6152C204.398 88.716 204.37 88.8147 204.315 88.8994C204.26 88.9841 204.182 89.0511 204.09 89.0923C204.027 89.1194 203.958 89.1338 203.889 89.1347Z" fill="#231F20"/>
<path d="M161.039 250L176.262 99.5771L132.924 94.3718L105.201 250H161.039Z" fill="#231F20"/>
<path d="M121.198 250C124.23 219.616 139.401 122.084 140.546 103.797C141.903 82.0637 131.736 71.4199 131.736 71.4199C131.736 71.4199 105.233 75.1728 88.3658 115.002C71.499 154.831 40.6597 249.788 40.6597 249.788L42.6739 250H121.198Z" fill="#754EE4"/>
<path d="M150.416 250H179.559C177.544 243.946 172.922 229.327 172.138 221.037C171.544 214.241 184.552 126.547 184.054 113.03C183.555 99.5133 176.209 99.5769 176.209 99.5769L162.236 109.86L166.254 113.74C166.254 113.74 152.345 215.376 150.416 250Z" fill="#754EE4"/>
<path d="M181.096 105.524L191.38 137.806L203.041 103.998L227.668 116.56C227.668 116.56 217.798 218.058 199.044 210.987C180.291 203.916 170.887 186.339 170.887 186.339L181.096 105.524Z" fill="#754EE4"/>
<path d="M108.191 206.895C113.311 207.043 117.509 207.499 117.509 207.499C117.509 207.499 129.584 222.415 132.531 220.072C135.479 217.729 124.538 203.555 123.722 202.834C123.722 202.834 130.295 204.17 134.323 206.449C138.352 208.729 143.143 213.987 146.822 213.457C150.501 212.927 150.723 211.199 147.151 207.404C143.578 203.608 135.828 198.52 130.782 196.972C130.782 196.972 133.623 195.254 139.104 196.452C144.585 197.65 154.519 205.389 157.54 201.753C160.561 198.117 155.038 193.866 148.55 191.491C142.062 189.116 137.779 187.526 134.037 187.134C134.037 187.134 142.105 184.929 146.759 185.565C151.413 186.201 159.756 188.003 162.417 186.137C165.078 184.271 162.65 182.363 160.095 181.176C157.54 179.988 142.359 177.646 139.825 177.646C137.292 177.646 125.513 182.554 119.545 183.243C113.576 183.932 107.417 180.328 107.417 180.328L93.7305 200.746C93.7305 200.746 103.081 206.736 108.191 206.895Z" fill="white"/>
<path d="M131.8 220.814C127.899 220.814 119.365 210.626 117.223 207.997C116.301 207.902 112.538 207.541 108.159 207.414C102.954 207.266 93.8155 201.435 93.4233 201.191C93.3069 201.11 93.224 200.99 93.1901 200.852C93.1747 200.783 93.1743 200.711 93.1889 200.641C93.2035 200.572 93.2328 200.506 93.2749 200.449L107.004 180.031C107.078 179.917 107.193 179.836 107.326 179.806C107.459 179.776 107.598 179.8 107.714 179.872C107.714 179.872 113.767 183.434 119.471 182.755C122.715 182.374 127.676 180.741 132.044 179.31C135.702 178.101 138.596 177.19 139.815 177.19C142.433 177.19 157.636 179.511 160.318 180.773C162.714 181.897 163.986 183.095 164.092 184.335C164.094 184.809 163.967 185.275 163.724 185.682C163.481 186.089 163.132 186.423 162.714 186.646C160.339 188.311 154.233 187.346 149.42 186.583C148.434 186.423 147.501 186.275 146.685 186.169C143.759 185.777 139.412 186.53 136.687 187.123C140.622 188.14 144.489 189.404 148.264 190.908L148.699 191.067C152.939 192.647 157.901 195.477 158.76 198.71C158.918 199.312 158.924 199.943 158.775 200.546C158.627 201.15 158.33 201.707 157.911 202.167C155.696 204.817 150.681 202.315 145.826 199.898C143.649 198.692 141.349 197.722 138.967 197.004C136.774 196.456 134.481 196.456 132.288 197.004C137.941 199.39 143.1 202.809 147.501 207.086C149.717 209.439 150.522 211.029 150.098 212.227C149.674 213.425 148.052 213.86 146.865 214.029C144.161 214.422 141.066 212.068 138.066 209.789C136.778 208.764 135.43 207.818 134.027 206.958C131.196 205.546 128.206 204.478 125.121 203.778C127.666 206.958 133.602 215.323 133.539 218.948C133.552 219.253 133.496 219.556 133.375 219.835C133.254 220.114 133.071 220.362 132.839 220.56C132.533 220.762 132.166 220.852 131.8 220.814V220.814ZM108.191 206.354C113.269 206.502 117.51 206.958 117.552 206.958C117.621 206.967 117.687 206.989 117.747 207.024C117.807 207.058 117.86 207.105 117.902 207.16C122.778 213.181 130.433 221.037 132.182 219.648C132.286 219.541 132.367 219.413 132.418 219.272C132.469 219.131 132.49 218.981 132.479 218.832C132.574 214.92 123.998 203.82 123.34 203.216C123.256 203.136 123.2 203.031 123.179 202.917C123.158 202.803 123.174 202.685 123.224 202.58C123.276 202.475 123.361 202.391 123.467 202.341C123.573 202.291 123.693 202.278 123.807 202.304C124.072 202.357 130.517 203.693 134.546 205.983C135.994 206.859 137.386 207.826 138.712 208.877C141.532 210.997 144.448 213.256 146.716 212.916C148.116 212.715 148.921 212.344 149.102 211.856C149.282 211.369 149.017 210.224 146.727 207.796C143.038 203.863 135.341 198.965 130.602 197.513C130.506 197.483 130.419 197.426 130.354 197.348C130.289 197.271 130.247 197.177 130.233 197.076C130.22 196.976 130.236 196.874 130.279 196.782C130.321 196.69 130.39 196.613 130.475 196.558C130.602 196.474 133.56 194.735 139.189 195.965C141.663 196.699 144.048 197.701 146.303 198.954C150.543 201.075 155.42 203.492 157.106 201.488C157.417 201.16 157.638 200.758 157.748 200.319C157.857 199.881 157.852 199.422 157.731 198.986C157.116 196.643 153.416 193.929 148.328 192.063L147.904 191.904C141.66 189.615 137.546 188.109 133.952 187.738C133.83 187.728 133.716 187.674 133.63 187.587C133.544 187.499 133.493 187.383 133.486 187.261C133.476 187.138 133.508 187.015 133.577 186.913C133.647 186.81 133.749 186.735 133.868 186.699C134.207 186.614 142.084 184.473 146.822 185.12C147.649 185.226 148.593 185.374 149.589 185.533C154.021 186.233 160.085 187.197 162.11 185.777C162.756 185.321 163.074 184.865 163.032 184.42C162.968 183.625 161.813 182.639 159.851 181.727C157.466 180.614 142.55 178.25 139.804 178.25C138.744 178.25 135.649 179.31 132.383 180.37C127.963 181.822 122.959 183.466 119.609 183.858C114.382 184.473 109.145 181.907 107.619 181.08L94.4834 200.534C96.4023 201.732 103.929 206.195 108.212 206.312L108.191 206.354Z" fill="#231F20"/>
<path d="M139.91 61.1257C139.91 61.1257 174.979 81.1199 177.015 86.9825C178.669 91.7637 147.045 84.9576 141.532 81.0351C136.019 77.1126 139.91 61.1257 139.91 61.1257Z" fill="#231F20"/>
<path d="M172.986 89.1559C164.187 89.1559 145.2 84.311 141.182 81.4699C135.447 77.3883 139.21 61.6665 139.369 60.9986C139.388 60.9187 139.425 60.8443 139.477 60.7814C139.53 60.7186 139.597 60.6691 139.672 60.637C139.748 60.605 139.83 60.5912 139.912 60.597C139.994 60.6027 140.073 60.6277 140.143 60.67C141.585 61.4863 175.403 80.8126 177.46 86.8023C177.574 87.0864 177.588 87.4008 177.499 87.6937C177.411 87.9866 177.225 88.2406 176.972 88.4138C175.737 89.0232 174.358 89.28 172.986 89.1559V89.1559ZM140.281 61.9315C139.624 65.0059 137.302 77.3883 141.829 80.6111C147.85 84.8517 173.76 89.5269 176.389 87.5656C176.425 87.5469 176.456 87.5211 176.481 87.4898C176.507 87.4586 176.525 87.4225 176.536 87.3839C176.547 87.3452 176.55 87.3048 176.545 87.2649C176.54 87.2251 176.526 87.1868 176.506 87.1522C174.926 82.5936 150.405 67.7517 140.281 61.9315Z" fill="#231F20"/>
<path d="M158.918 6.85743C159.775 7.18146 160.722 7.18146 161.579 6.85743C162.703 6.36977 163.349 5.21422 164.102 4.2601C165.491 2.5855 167.377 1.39631 169.487 0.864572C171.597 0.332838 173.821 0.486145 175.838 1.30231C177.47 2.01261 178.891 3.13635 180.545 3.79363C186.004 5.91391 192.673 2.51087 197.899 5.18241C198.618 5.50533 199.249 5.99665 199.738 6.61482C200.227 7.23299 200.56 7.95983 200.709 8.73387C200.793 9.48657 200.624 10.2499 200.709 11.0026C201.27 15.3491 209.571 16.1654 208.713 20.459C208.384 22.1234 206.592 23.2047 206.274 24.8586C205.787 27.1166 208.055 29.608 206.857 31.5798C206.454 32.2477 205.734 32.64 205.278 33.2972C203.582 35.6719 206.539 39.0326 205.585 41.7783C205.045 43.3473 203.391 44.2379 202.511 45.6478C200.952 48.1392 202.055 51.786 200.126 54.0123C199.267 55.0088 197.952 55.4965 196.945 56.3234C194.729 58.115 194.125 61.2 192.609 63.6172C186.959 72.6389 161.187 59.26 154.942 55.2633C148.698 51.2666 133.74 37.1349 141.5 28.9825C142.56 27.9224 144.118 26.8622 143.938 25.325C143.832 24.3603 143.005 23.6394 142.624 22.7383C141.924 21.0951 142.804 19.2398 143.684 17.6708L146.652 12.2535C148.465 8.9247 151.2 5.087 154.964 5.55346C156.314 5.88408 157.636 6.32008 158.918 6.85743V6.85743Z" fill="white"/>
<path d="M185.475 67.2324C175.032 67.2324 158.59 58.2318 154.731 55.7299C150.204 52.8357 139.952 43.7397 138.966 35.5873C138.775 34.3333 138.877 33.0521 139.263 31.8438C139.649 30.6355 140.31 29.5329 141.193 28.6222C141.415 28.3784 141.659 28.1451 141.914 27.9119C142.783 27.0956 143.599 26.3217 143.493 25.3888C143.383 24.8915 143.158 24.4269 142.836 24.0318C142.597 23.6969 142.388 23.3422 142.21 22.9717C141.352 20.9468 142.592 18.6675 143.271 17.4377L146.239 12.0204C147.299 10.1546 150.363 4.46167 155.091 5.05535C156 5.20774 156.886 5.47121 157.731 5.83984C158.197 6.03067 158.674 6.2109 159.141 6.34871C159.878 6.63303 160.694 6.63303 161.431 6.34871C162.191 5.91749 162.827 5.29655 163.275 4.54648L163.752 3.9104C165.213 2.14286 167.199 0.887463 169.422 0.326889C171.646 -0.233685 173.99 -0.0701861 176.114 0.793594C176.895 1.15753 177.656 1.56455 178.393 2.01275C179.159 2.49928 179.964 2.92126 180.799 3.27431C183.301 4.27084 186.174 4.01641 188.941 3.78318C192.122 3.50754 195.302 3.23191 198.207 4.6949C199.004 5.0509 199.7 5.59809 200.235 6.28791C200.769 6.97772 201.125 7.78882 201.271 8.64921C201.308 9.04767 201.308 9.4487 201.271 9.84716C201.239 10.1999 201.239 10.5546 201.271 10.9073C201.514 12.7201 203.391 13.9181 205.278 15.0842C207.504 16.4836 209.805 17.9254 209.275 20.5333C209.031 21.4359 208.577 22.2679 207.949 22.9611C207.46 23.5354 207.098 24.2076 206.889 24.9329C206.788 25.9006 206.934 26.8781 207.313 27.7741C207.748 29.1311 208.193 30.5304 207.409 31.8238C207.15 32.2198 206.836 32.5767 206.476 32.8839C206.229 33.0929 206.005 33.3274 205.808 33.5836C205.034 34.6438 205.437 36.075 205.861 37.5909C206.412 38.9761 206.523 40.4976 206.179 41.9481C205.773 42.9092 205.149 43.7623 204.356 44.4394C203.867 44.8839 203.429 45.3817 203.052 45.9236C202.462 47.0928 202.14 48.3782 202.108 49.6871C202.113 51.3621 201.594 52.9967 200.624 54.3623C200.036 54.9903 199.348 55.5169 198.588 55.9207C198.155 56.1739 197.737 56.4536 197.338 56.7582C196.07 57.9685 195.108 59.4616 194.528 61.1154C194.121 62.0804 193.646 63.0156 193.108 63.9141C192.593 64.7117 191.918 65.3938 191.126 65.9175C190.334 66.4412 189.442 66.795 188.507 66.9567C187.509 67.1603 186.492 67.2528 185.475 67.2324ZM154.338 6.07308C151.847 6.07308 149.472 8.19335 147.108 12.5293L144.14 17.9466C143.334 19.4308 142.528 21.127 143.133 22.5582C143.284 22.8729 143.461 23.1744 143.663 23.4593C144.087 23.9883 144.371 24.6153 144.49 25.2828C144.659 26.7457 143.557 27.7847 142.592 28.707C142.359 28.9296 142.126 29.1417 141.914 29.3643C141.139 30.1648 140.56 31.1333 140.222 32.1944C139.884 33.2554 139.795 34.3803 139.963 35.4813C140.853 42.8174 150.363 51.7014 155.25 54.8394C160.954 58.4756 179.368 67.8897 188.273 65.8966C189.071 65.7653 189.834 65.4718 190.514 65.0342C191.194 64.5966 191.777 64.0242 192.228 63.3523C192.731 62.4904 193.181 61.5982 193.574 60.6807C194.216 58.8724 195.281 57.2439 196.68 55.9313C197.115 55.5972 197.572 55.2926 198.048 55.0196C198.705 54.6664 199.306 54.2161 199.829 53.6838C200.644 52.4798 201.073 51.0561 201.059 49.6023C201.085 48.1265 201.447 46.6762 202.119 45.3617C202.54 44.7516 203.027 44.1898 203.571 43.6867C204.251 43.108 204.791 42.3832 205.151 41.5665C205.406 40.3153 205.284 39.0167 204.801 37.8348C204.334 36.1598 203.847 34.4211 204.917 32.9369C205.155 32.6202 205.425 32.3289 205.723 32.0676C206.009 31.8332 206.259 31.5582 206.465 31.2513C207.006 30.3714 206.667 29.3007 206.274 28.0709C205.824 27.0042 205.667 25.8368 205.819 24.6891C206.07 23.8044 206.519 22.9887 207.133 22.3038C207.65 21.7323 208.031 21.0508 208.246 20.3107C208.628 18.4237 206.815 17.2893 204.716 15.9748C202.617 14.6602 200.529 13.3456 200.232 11.0345C200.195 10.6113 200.195 10.1856 200.232 9.76235C200.26 9.40956 200.26 9.05501 200.232 8.70221C200.1 8.00283 199.798 7.34666 199.353 6.79188C198.907 6.2371 198.331 5.80085 197.677 5.5218C195.079 4.19663 192.122 4.46167 188.984 4.7161C186.089 4.97053 183.089 5.22497 180.354 4.14363C179.471 3.76581 178.617 3.32286 177.799 2.81846C177.118 2.38437 176.41 1.99484 175.679 1.65231C173.77 0.878709 171.664 0.732947 169.666 1.23614C167.669 1.73932 165.883 2.86534 164.569 4.45107L164.113 5.05535C163.559 5.95185 162.776 6.68392 161.844 7.17562C160.869 7.53692 159.797 7.53692 158.823 7.17562V7.17562C158.335 7.0272 157.837 6.83637 157.328 6.63495C156.565 6.29835 155.764 6.05626 154.943 5.91405C154.738 5.95389 154.536 6.00701 154.338 6.07308V6.07308Z" fill="#231F20"/>
<path d="M173.516 80.1448L167.156 100.065C167.156 100.065 158.208 112.786 145.889 104.157C133.57 95.5274 135.383 84.1839 135.383 84.1839L143.059 60.5959C144.596 55.9101 146.101 51.2137 147.66 46.5385C148.034 44.8623 148.671 43.2558 149.547 41.7785C151.55 39.0645 155.791 39.0115 157.434 36.0643C158.494 34.1773 157.72 31.5693 159.035 29.8519C160.35 28.1345 162.788 28.1663 164.166 26.6715C165.862 24.8163 165.597 21.0952 168.046 20.5121C170.739 19.8654 172.636 24.2438 175.361 23.7455C176.421 23.5441 177.237 22.6006 178.298 22.3144C179.803 21.9221 181.34 22.9716 182.21 24.2544C183.079 25.5372 183.513 27.0744 184.33 28.3995C185.155 29.6912 186.31 30.7383 187.677 31.4319C189.044 32.1254 190.571 32.4401 192.101 32.3432C191.507 34.2091 192.874 36.2446 194.634 37.0927C196.28 37.7275 198.033 38.0371 199.797 38.0044C200.264 43.0188 198.377 49.1252 197.348 54.0549C195.97 60.6701 194.518 67.9108 191.062 73.8052C185.242 83.6751 173.516 80.1448 173.516 80.1448Z" fill="white"/>
<path d="M154.466 107.698C151.254 107.607 148.15 106.522 145.582 104.591C133.146 95.8241 134.843 84.2156 134.864 84.099L144.14 55.698C145.2 52.5812 146.165 49.4644 147.204 46.3476C147.331 45.9871 147.437 45.6055 147.554 45.2238C147.869 43.879 148.414 42.5986 149.165 41.4391C150.26 40.1772 151.651 39.208 153.215 38.6192C154.773 37.8877 156.247 37.188 157.031 35.778C157.422 34.9187 157.628 33.9868 157.636 33.0428C157.642 31.7854 158.01 30.5563 158.696 29.502C159.45 28.6543 160.411 28.0153 161.484 27.6467C162.343 27.3605 163.131 26.8943 163.795 26.2792C164.4 25.4823 164.843 24.5747 165.099 23.6076C165.64 22.0174 166.159 20.4272 167.94 19.9608C169.721 19.4943 170.845 20.6392 172.085 21.6676C173.145 22.5475 174.205 23.3956 175.266 23.1836C175.757 23.0517 176.22 22.8327 176.633 22.5369C177.101 22.2076 177.616 21.9503 178.16 21.7736C179.93 21.3071 181.69 22.5157 182.644 23.8939C183.104 24.6184 183.501 25.381 183.832 26.1732C184.105 26.8217 184.421 27.452 184.775 28.0602C185.548 29.2681 186.63 30.2472 187.909 30.8959C189.187 31.5446 190.616 31.8393 192.048 31.7495C192.134 31.741 192.222 31.7545 192.302 31.7888C192.383 31.8232 192.453 31.8771 192.507 31.9458C192.561 32.0145 192.596 32.0956 192.611 32.1818C192.625 32.2679 192.617 32.3562 192.588 32.4386C192.079 34.0606 193.373 35.831 194.857 36.5519C196.434 37.1502 198.111 37.4416 199.797 37.4106C199.928 37.4173 200.051 37.4699 200.146 37.5592C200.241 37.6485 200.302 37.7687 200.317 37.8983C200.688 41.895 199.585 46.5914 198.61 50.7365C198.345 51.9027 198.08 53.0264 197.857 54.0972L197.741 54.659C196.415 61.0199 194.921 68.2076 191.507 74.0065C186.259 82.9647 176.23 81.2897 173.866 80.749L167.611 100.192C167.597 100.243 167.572 100.29 167.537 100.33C167.368 100.574 163.297 106.33 156.703 107.475C155.965 107.612 155.216 107.687 154.466 107.698V107.698ZM168.576 20.9467C168.439 20.9312 168.3 20.9312 168.163 20.9467C166.997 21.2223 166.573 22.4627 166.042 23.9045C165.744 25.0114 165.225 26.0465 164.516 26.9471C163.75 27.6757 162.835 28.2292 161.834 28.5691C160.91 28.8671 160.075 29.3919 159.406 30.0957C158.868 30.9995 158.59 32.0337 158.6 33.0852C158.58 34.1859 158.327 35.2698 157.858 36.2657C156.915 37.9619 155.208 38.7676 153.618 39.5415C152.214 40.0619 150.961 40.9214 149.971 42.0434C149.294 43.1009 148.803 44.2661 148.518 45.4888C148.402 45.8917 148.285 46.2733 148.158 46.6444C147.098 49.7612 146.112 52.878 145.094 55.9948L135.839 84.3217C135.839 84.3217 134.26 95.3259 146.144 103.69C151.063 107.146 155.992 107.549 160.805 104.878C163.064 103.584 165.042 101.854 166.626 99.7891L172.986 79.9539C173.028 79.8209 173.12 79.7096 173.243 79.6441C173.366 79.5787 173.51 79.5643 173.644 79.6041C174.11 79.7419 185.051 82.8905 190.606 73.4765C193.924 67.8153 195.345 61.0199 196.712 54.394L196.829 53.8427C197.051 52.7826 197.316 51.627 197.592 50.4503C198.504 46.549 199.543 42.1494 199.299 38.4071C197.624 38.4142 195.964 38.0937 194.412 37.4636C193.511 37.0642 192.748 36.4072 192.22 35.5752C191.692 34.7433 191.422 33.7736 191.443 32.7884C189.93 32.7643 188.447 32.3641 187.128 31.6238C185.808 30.8835 184.694 29.8264 183.885 28.5479C183.485 27.9057 183.13 27.2362 182.824 26.5442C182.53 25.8093 182.176 25.1001 181.764 24.4239C181.022 23.3638 179.708 22.3673 178.435 22.7065C177.992 22.8503 177.574 23.0612 177.195 23.332C176.674 23.7115 176.083 23.9852 175.456 24.1377C173.856 24.4239 172.605 23.3956 171.386 22.3885C170.627 21.6203 169.643 21.1151 168.576 20.9467Z" fill="#231F20"/>
<path d="M152.24 55.5813C149.144 55.6932 146.13 54.5767 143.854 52.4751C140.578 49.4113 139.677 44.9482 140.504 40.6546C140.75 39.0772 141.352 37.5764 142.264 36.2657C142.722 35.6142 143.316 35.0689 144.003 34.6665C144.691 34.2642 145.457 34.0141 146.25 33.9334C148.158 33.8273 149.897 34.9299 151.487 35.99C153.862 37.5696 153.713 39.0114 154.911 41.2907C154.773 41.0787 154.72 40.5168 154.582 40.3048" fill="white"/>
<path d="M151.772 56.1221C148.689 56.124 145.719 54.9573 143.461 52.8569C140.28 49.8991 139.008 45.4359 139.952 40.5593C140.211 38.9008 140.845 37.3234 141.807 35.9477C142.314 35.2365 142.967 34.6417 143.722 34.203C144.477 33.7642 145.317 33.4916 146.185 33.4034C148.306 33.2761 150.32 34.5907 151.751 35.5236C153.106 36.4013 154.105 37.7311 154.571 39.2765C154.645 39.4567 154.709 39.6476 154.794 39.8278C154.876 39.8739 154.945 39.9394 154.995 40.0186C155.106 40.2207 155.185 40.4389 155.228 40.6653C155.228 40.7607 155.292 40.9091 155.313 40.9833C155.376 41.1052 155.39 41.2464 155.353 41.3782C155.315 41.5101 155.229 41.6228 155.112 41.6936C154.994 41.7593 154.855 41.7783 154.724 41.7469C154.592 41.7155 154.477 41.636 154.402 41.524C154.37 41.4779 154.346 41.428 154.327 41.3756C154.035 40.8046 153.777 40.217 153.553 39.6158C153.171 38.2698 152.307 37.1115 151.126 36.3611C149.429 35.2268 147.945 34.2939 146.217 34.3893C145.502 34.4667 144.811 34.6958 144.191 35.0615C143.572 35.4271 143.037 35.9208 142.623 36.5096C141.76 37.7581 141.191 39.1863 140.959 40.6865C140.09 45.1709 141.256 49.3054 144.139 52.0088C145.212 53.0064 146.472 53.7821 147.845 54.2916C149.219 54.801 150.68 55.034 152.143 54.9771C152.283 54.9767 152.417 55.029 152.519 55.1233C152.621 55.2177 152.684 55.3473 152.695 55.486C152.698 55.5556 152.687 55.6251 152.663 55.6905C152.639 55.7559 152.602 55.8159 152.555 55.8671C152.507 55.9184 152.45 55.9597 152.387 55.9889C152.324 56.0181 152.255 56.0345 152.186 56.0373L151.772 56.1221Z" fill="#231F20"/>
<path d="M170.844 88.4456C170.844 88.4456 163.657 90.8203 159.946 82.6679C156.236 74.5154 158.61 69.8508 158.61 69.8508C158.61 69.8508 163.911 78.4061 173.516 80.1448L170.844 88.4456Z" fill="#231F20"/>
<path d="M168.48 89.2831C165.904 89.2831 161.918 88.2866 159.459 82.9223C155.684 74.632 158.038 69.8402 158.144 69.6388C158.186 69.5555 158.249 69.485 158.327 69.4347C158.406 69.3843 158.496 69.356 158.589 69.3525C158.682 69.3541 158.773 69.378 158.854 69.4224C158.935 69.4667 159.004 69.53 159.056 69.607C159.056 69.6918 164.356 77.9821 173.611 79.6571C173.685 79.6699 173.756 79.6983 173.818 79.7403C173.88 79.7823 173.932 79.8371 173.972 79.9009C174.003 79.9692 174.018 80.0433 174.018 80.1182C174.018 80.1932 174.003 80.2672 173.972 80.3356L171.3 88.647C171.275 88.7267 171.231 88.7991 171.172 88.8582C171.113 88.9172 171.041 88.9612 170.961 88.9863C170.151 89.1943 169.317 89.2941 168.48 89.2831V89.2831ZM158.759 71.017C158.314 72.7132 157.794 76.6887 160.423 82.4558C163.551 89.3149 169.159 88.3396 170.431 88.0216L172.827 80.5476C165.173 78.9256 160.423 73.2326 158.759 71.017V71.017Z" fill="#231F20"/>
<path d="M181.425 43.6335C181.425 43.6335 184.828 56.9913 182.485 58.2634C180.142 59.5356 175.732 56.5778 175.732 56.5778" fill="white"/>
<path d="M181.043 59.0692C178.52 59.0692 175.552 57.0867 175.403 56.9489C175.286 56.8692 175.205 56.7469 175.177 56.6082C175.15 56.4694 175.177 56.3253 175.255 56.2068C175.294 56.1487 175.345 56.0989 175.403 56.0604C175.462 56.022 175.528 55.9955 175.597 55.9827C175.666 55.9699 175.737 55.9709 175.806 55.9857C175.874 56.0006 175.939 56.0289 175.997 56.069C177.142 56.8323 180.481 58.6345 182.199 57.7122C183.439 57.0549 182.506 49.9202 180.916 43.6972C180.881 43.5566 180.903 43.4078 180.977 43.2836C181.052 43.1593 181.173 43.0698 181.313 43.0346C181.454 42.9995 181.603 43.0216 181.727 43.0962C181.851 43.1707 181.941 43.2916 181.976 43.4322C182.792 46.6126 185.284 57.2988 182.729 58.6557C182.211 58.9338 181.631 59.0761 181.043 59.0692V59.0692Z" fill="#231F20"/>
<path d="M166.053 36.8595L177.576 40.3686L169.89 32.5129" fill="white"/>
<path d="M177.576 40.8987H177.417L165.894 37.379C165.824 37.3589 165.759 37.3252 165.703 37.2799C165.646 37.2346 165.599 37.1786 165.564 37.1151C165.529 37.0516 165.507 36.9818 165.499 36.9098C165.491 36.8378 165.497 36.7649 165.517 36.6953C165.538 36.6256 165.571 36.5607 165.617 36.5041C165.662 36.4475 165.718 36.4004 165.781 36.3655C165.845 36.3305 165.915 36.3084 165.987 36.3004C166.059 36.2924 166.132 36.2987 166.201 36.3189L175.742 39.2237L169.519 32.8629C169.47 32.8136 169.43 32.755 169.403 32.6904C169.377 32.6258 169.363 32.5565 169.363 32.4865C169.363 32.4165 169.377 32.3473 169.403 32.2827C169.43 32.2181 169.47 32.1594 169.519 32.1102C169.569 32.0605 169.627 32.021 169.692 31.9941C169.757 31.9672 169.826 31.9534 169.896 31.9534C169.966 31.9534 170.035 31.9672 170.1 31.9941C170.164 32.021 170.223 32.0605 170.272 32.1102L177.948 39.9658C178.03 40.05 178.082 40.1593 178.096 40.2764C178.109 40.3935 178.083 40.5118 178.022 40.6125C177.98 40.6957 177.917 40.7662 177.838 40.8165C177.76 40.8669 177.67 40.8953 177.576 40.8987Z" fill="#231F20"/>
<path d="M196.002 42.7114L187.637 43.1037L196.892 47.9485" fill="white"/>
<path d="M196.892 48.4784C196.807 48.4789 196.723 48.457 196.649 48.4148L187.394 43.57C187.292 43.5159 187.211 43.4302 187.162 43.3259C187.114 43.2216 187.1 43.1044 187.124 42.9919C187.148 42.8794 187.208 42.7777 187.295 42.7022C187.382 42.6267 187.491 42.5815 187.606 42.5734L195.97 42.1812C196.041 42.1754 196.112 42.1842 196.179 42.207C196.247 42.2298 196.309 42.2662 196.361 42.3139C196.414 42.3616 196.456 42.4196 196.486 42.4843C196.515 42.549 196.531 42.619 196.532 42.6901C196.535 42.7597 196.524 42.8292 196.5 42.8946C196.476 42.96 196.439 43.02 196.392 43.0712C196.345 43.1224 196.288 43.1638 196.224 43.193C196.161 43.2222 196.093 43.2386 196.023 43.2413L189.662 43.5382L197.179 47.4713C197.288 47.524 197.375 47.6125 197.427 47.722C197.479 47.8315 197.492 47.9555 197.463 48.0732C197.435 48.191 197.367 48.2954 197.27 48.3691C197.174 48.4428 197.056 48.4814 196.935 48.4784H196.892Z" fill="#231F20"/>
<path d="M174.205 62.3664C171.216 64.5609 169.233 68.5258 171.152 72.0348C172.064 73.731 174.227 74.0173 175.912 73.4766C178.616 72.6179 178.372 70.7945 179.199 68.547C179.54 67.8507 179.945 67.1871 180.407 66.5645C180.807 65.9102 181.019 65.1582 181.019 64.3912C181.019 63.6243 180.807 62.8723 180.407 62.218C179.273 60.5641 177.312 60.6808 175.711 61.4547C175.182 61.7115 174.678 62.0167 174.205 62.3664V62.3664Z" fill="white"/>
<path d="M174.354 74.2507C173.621 74.2897 172.892 74.1239 172.248 73.7719C171.604 73.4199 171.07 72.8956 170.707 72.2577C168.587 68.3246 170.866 64.137 173.888 61.9107C174.385 61.5381 174.918 61.215 175.478 60.946C177.672 59.8859 179.718 60.2569 180.842 61.8895C181.298 62.6289 181.539 63.4804 181.539 64.3491C181.539 65.2177 181.298 66.0692 180.842 66.8086C180.694 67.063 180.524 67.3068 180.354 67.5507C180.078 67.8999 179.849 68.2851 179.676 68.6956C179.504 69.1642 179.359 69.642 179.241 70.1268C178.807 71.7064 178.404 73.2012 176.061 73.9539C175.51 74.137 174.935 74.237 174.354 74.2507V74.2507ZM174.545 62.7907C171.852 64.7625 169.806 68.4094 171.64 71.7912C172.435 73.2542 174.343 73.4344 175.775 72.968C177.577 72.3955 177.895 71.399 178.255 69.883C178.383 69.4059 178.52 68.897 178.722 68.3564C178.921 67.8578 179.185 67.3874 179.506 66.957C179.655 66.7344 179.814 66.5223 179.952 66.2891C180.303 65.7223 180.489 65.0688 180.489 64.4021C180.489 63.7353 180.303 63.0818 179.952 62.515C178.754 60.7446 176.57 61.6139 175.923 61.9213C175.425 62.1651 174.95 62.4524 174.502 62.7801L174.545 62.7907Z" fill="#231F20"/>
<path d="M154.147 84.9793C151.221 83.0074 148.942 80.3465 146.377 77.3887C143.366 73.8902 140.016 66.0134 139.91 61.105C139.91 61.105 130.612 61.3912 129.743 66.7025C129.743 66.7025 121.76 64.0098 121.156 72.5757C120.552 81.1416 135.902 116.773 155.939 116.37C162.098 116.253 168.661 115.554 174.322 112.882C177.99 111.143 183.131 104.475 182.071 100.16C181.647 98.4218 180.121 96.98 180.354 95.1566C180.534 94.3975 180.809 93.6639 181.17 92.9727C181.556 91.9869 181.666 90.9147 181.489 89.8711C181.312 88.8275 180.853 87.8518 180.164 87.0488C179.474 86.2457 178.579 85.6456 177.574 85.3128C176.569 84.9799 175.492 84.9269 174.46 85.1595C172.983 85.6458 171.562 86.2854 170.219 87.0677C166.957 88.4422 163.319 88.6444 159.925 87.6402C157.864 87.0827 155.911 86.1832 154.147 84.9793V84.9793Z" fill="white"/>
<path d="M155.6 116.931C149.546 116.931 143.504 113.804 137.641 107.634C127.294 96.757 120.181 78.8513 120.679 72.5647C120.87 69.8295 121.803 67.8895 123.456 66.7975C124.35 66.2891 125.336 65.9628 126.357 65.8372C127.378 65.7117 128.413 65.7894 129.404 66.066C130.846 60.935 139.571 60.6063 139.952 60.5957C140.023 60.5913 140.093 60.6015 140.159 60.6258C140.225 60.6501 140.286 60.6878 140.337 60.7367C140.388 60.7855 140.428 60.8444 140.455 60.9095C140.481 60.9747 140.494 61.0447 140.493 61.1152C140.62 66.0978 144.002 73.8368 146.854 77.0172L146.939 77.1233C149.483 80.0704 151.677 82.6148 154.518 84.5442C156.241 85.7 158.143 86.5633 160.148 87.0991C163.423 88.067 166.931 87.8761 170.081 86.5585C170.527 86.3464 170.961 86.1132 171.396 85.88C172.341 85.3214 173.357 84.8934 174.417 84.6078C175.539 84.3576 176.708 84.4161 177.8 84.7771C178.891 85.1382 179.864 85.7883 180.616 86.6582C181.367 87.5282 181.869 88.5856 182.067 89.7179C182.266 90.8503 182.154 92.0152 181.743 93.0889C181.647 93.3328 181.541 93.566 181.435 93.7992C181.205 94.2205 181.041 94.6745 180.948 95.1456C180.943 96.1163 181.231 97.0659 181.775 97.8701C182.154 98.5378 182.45 99.25 182.655 99.9904C183.789 104.634 178.531 111.503 174.619 113.348C168.364 116.317 161.017 116.794 156.024 116.889L155.6 116.931ZM127.05 66.8611C125.971 66.8261 124.905 67.11 123.987 67.6774C122.63 68.5892 121.866 70.2536 121.686 72.6389C121.304 78.088 127.941 95.8983 138.404 106.902C144.172 112.966 150.066 116.009 155.928 115.861C160.816 115.765 168.025 115.299 174.089 112.426C177.608 110.761 182.57 104.252 181.51 100.277C181.325 99.6317 181.062 99.012 180.725 98.432C180.066 97.4382 179.736 96.2627 179.782 95.0714C179.887 94.4908 180.08 93.9296 180.354 93.407C180.449 93.1949 180.545 92.9829 180.63 92.7709C180.98 91.8752 181.08 90.901 180.919 89.9528C180.758 89.0046 180.342 88.1181 179.715 87.3882C179.089 86.6584 178.276 86.1127 177.363 85.8097C176.45 85.5066 175.472 85.4576 174.534 85.668C173.565 85.9315 172.638 86.3275 171.778 86.8447C171.322 87.0886 170.866 87.3218 170.399 87.5444C167.041 88.9631 163.294 89.1729 159.798 88.1381C157.681 87.5739 155.671 86.6641 153.851 85.4453V85.4453C150.929 83.274 148.312 80.7211 146.069 77.8548L145.984 77.7593C143.143 74.4623 139.761 66.8929 139.412 61.6877C137.493 61.8467 130.93 62.6842 130.273 66.8187C130.259 66.8936 130.229 66.9645 130.185 67.0267C130.141 67.0889 130.085 67.1409 130.019 67.1792C129.952 67.2187 129.878 67.2439 129.802 67.253C129.725 67.2621 129.647 67.255 129.573 67.2322C128.755 66.9862 127.905 66.8612 127.05 66.8611V66.8611Z" fill="#231F20"/>
<path d="M149.292 80.7385C150.212 81.2059 150.98 81.9237 151.509 82.8091C152.038 83.6945 152.306 84.7113 152.282 85.7424C152.749 101.083 149.823 105.079 144.426 111.345C137.684 119.158 132.765 136.64 142.2 153.4C142.2 153.4 157.286 150.22 165.693 155.627C165.693 155.627 151.18 132.039 158.06 116.402C161.802 107.92 165.29 100.277 166.541 91.4565C167.792 82.6362 149.292 80.7385 149.292 80.7385Z" fill="white"/>
<path d="M165.724 156.125C165.622 156.124 165.523 156.095 165.438 156.04C157.317 150.739 142.486 153.856 142.337 153.92C142.226 153.943 142.11 153.929 142.007 153.882C141.904 153.834 141.819 153.754 141.765 153.655C137.494 146.169 135.737 137.512 136.75 128.953C137.598 121.946 140.259 115.405 144.055 110.995C149.44 104.74 152.239 100.775 151.783 85.7635C151.815 84.8328 151.581 83.9124 151.11 83.1092C150.639 82.306 149.95 81.653 149.122 81.2261C149.005 81.1748 148.91 81.0839 148.854 80.9695C148.798 80.855 148.784 80.7244 148.815 80.6006C148.843 80.477 148.916 80.3683 149.02 80.2957C149.124 80.2232 149.251 80.192 149.377 80.2083C149.875 80.2083 161.727 81.5123 165.819 86.7282C166.356 87.3895 166.749 88.1551 166.973 88.9764C167.198 89.7976 167.249 90.6567 167.123 91.4988C165.894 99.9799 162.597 107.401 159.109 115.384L158.579 116.592C151.889 131.816 166 155.118 166.169 155.351C166.235 155.452 166.264 155.573 166.25 155.693C166.237 155.813 166.182 155.924 166.095 156.008C165.99 156.091 165.858 156.132 165.724 156.125V156.125ZM152.059 151.884C156.261 151.754 160.441 152.546 164.303 154.206C162.157 150.297 160.324 146.224 158.822 142.025C156.268 134.774 153.988 124.395 157.614 116.136L158.144 114.938C161.6 107.083 164.865 99.6619 166.074 91.3292C166.188 90.6309 166.153 89.9163 165.97 89.2328C165.787 88.5492 165.461 87.9123 165.014 87.3643C162.162 83.7174 154.836 82.0636 151.295 81.5229C152.324 82.695 152.886 84.2041 152.875 85.7635C153.342 101.167 150.458 105.259 144.882 111.716C133.793 124.596 137.461 143.594 142.539 152.838C145.666 152.233 148.842 151.91 152.027 151.874L152.059 151.884Z" fill="#231F20"/>
<path d="M121.198 72.5967C81.0935 90.1737 3.06745 138.59 11.6546 157.238C20.2417 175.886 68.0538 198.255 68.0538 198.255L94.7481 160.09L121.198 72.5967Z" fill="#754EE4"/>
<path d="M88.4927 209.015C88.4156 209.03 88.3365 209.03 88.2595 209.015C73.0889 201.393 36.3764 181.112 36.0159 180.9C35.9469 180.872 35.8847 180.829 35.8333 180.775C35.782 180.721 35.7427 180.656 35.7179 180.586C35.6932 180.516 35.6836 180.441 35.6898 180.366C35.696 180.292 35.7179 180.22 35.7539 180.154C35.79 180.089 35.8395 180.032 35.8991 179.987C35.9587 179.942 36.0271 179.91 36.0999 179.894C36.1727 179.877 36.2482 179.876 36.3214 179.89C36.3946 179.905 36.4639 179.935 36.5248 179.978C36.8958 180.18 72.9193 200.121 88.3125 207.86L106.769 180.392L61.756 137.986C61.6534 137.889 61.5935 137.755 61.5896 137.614C61.5856 137.473 61.6378 137.336 61.7348 137.233C61.8319 137.131 61.9657 137.071 62.1068 137.067C62.248 137.063 62.3849 137.115 62.4875 137.212L107.819 179.957C107.91 180.045 107.968 180.161 107.984 180.286C107.999 180.412 107.971 180.539 107.904 180.646L88.938 208.846C88.8812 208.905 88.8117 208.952 88.7346 208.981C88.6575 209.01 88.5749 209.022 88.4927 209.015V209.015Z" fill="#231F20"/>
<path d="M76.5242 151.64C76.4597 151.642 76.3955 151.63 76.3355 151.607C76.2754 151.583 76.2207 151.548 76.1744 151.503C76.1247 151.453 76.0853 151.395 76.0583 151.33C76.0314 151.266 76.0176 151.196 76.0176 151.126C76.0176 151.056 76.0314 150.987 76.0583 150.922C76.0853 150.858 76.1247 150.799 76.1744 150.75C76.3758 150.527 96.317 128.699 106.611 117.504C106.657 117.448 106.714 117.401 106.778 117.368C106.843 117.334 106.913 117.314 106.986 117.309C107.058 117.304 107.131 117.314 107.199 117.338C107.268 117.362 107.331 117.401 107.384 117.45C107.437 117.5 107.48 117.56 107.509 117.626C107.538 117.693 107.553 117.765 107.553 117.837C107.553 117.91 107.538 117.982 107.509 118.049C107.48 118.115 107.438 118.175 107.385 118.225C97.0803 129.42 77.1603 151.248 76.9589 151.471C76.9032 151.529 76.8355 151.575 76.7604 151.604C76.6853 151.633 76.6047 151.646 76.5242 151.64V151.64Z" fill="#231F20"/>
<path d="M178.212 72.2573C178.118 72.2586 178.025 72.2347 177.943 72.1881C177.861 72.1415 177.793 72.0739 177.746 71.9922C175.626 68.1757 170.325 68.2712 170.325 68.2606C170.184 68.2606 170.05 68.2047 169.95 68.1053C169.851 68.0059 169.795 67.8711 169.795 67.7305C169.795 67.5899 169.851 67.4551 169.95 67.3557C170.05 67.2563 170.184 67.2004 170.325 67.2004C170.558 67.2004 176.241 67.0944 178.689 71.441C178.758 71.5633 178.775 71.7079 178.738 71.843C178.7 71.9782 178.61 72.0928 178.488 72.1619C178.407 72.2188 178.311 72.2519 178.212 72.2573V72.2573Z" fill="#231F20"/>
<path d="M147.914 100.51C147.809 100.515 147.705 100.485 147.618 100.425C136.264 92.6014 130.465 71.1972 130.221 70.2961C130.184 70.1555 130.205 70.0062 130.279 69.8809C130.352 69.7557 130.472 69.6648 130.613 69.6282C130.754 69.5917 130.903 69.6125 131.028 69.686C131.153 69.7596 131.244 69.8799 131.281 70.0205C131.334 70.2431 137.228 91.9547 148.243 99.5453C148.301 99.5846 148.351 99.6352 148.389 99.6939C148.428 99.7527 148.454 99.8185 148.467 99.8875C148.48 99.9566 148.479 100.027 148.464 100.096C148.449 100.165 148.421 100.23 148.381 100.287C148.329 100.362 148.259 100.422 148.177 100.461C148.095 100.5 148.005 100.517 147.914 100.51V100.51Z" fill="#D1D3D4"/>
<path d="M170.23 106.023C170.128 106.023 170.028 105.994 169.941 105.939C169.855 105.885 169.786 105.807 169.742 105.715C169.712 105.651 169.696 105.582 169.694 105.512C169.692 105.442 169.704 105.372 169.73 105.306C169.756 105.241 169.795 105.181 169.844 105.131C169.893 105.082 169.953 105.042 170.018 105.016C172.944 103.712 175.785 99.3333 175.817 99.2909C175.852 99.2283 175.9 99.1737 175.958 99.1304C176.015 99.087 176.081 99.0558 176.151 99.0387C176.221 99.0216 176.293 99.0188 176.364 99.0307C176.435 99.0425 176.503 99.0687 176.564 99.1076C176.624 99.1465 176.676 99.1974 176.716 99.257C176.757 99.3167 176.784 99.3839 176.798 99.4546C176.811 99.5254 176.81 99.5981 176.795 99.6683C176.779 99.7386 176.749 99.8049 176.707 99.8633C176.591 100.054 173.665 104.549 170.442 105.98C170.375 106.01 170.303 106.025 170.23 106.023V106.023Z" fill="#D1D3D4"/>
<path d="M144.522 140.17C144.4 140.17 144.281 140.128 144.187 140.051C144.092 139.973 144.027 139.866 144.002 139.746C143.896 139.205 141.352 126.42 145.858 118.543C145.92 118.446 146.012 118.37 146.12 118.329C146.228 118.287 146.346 118.282 146.458 118.313C146.569 118.343 146.668 118.409 146.739 118.5C146.811 118.592 146.851 118.703 146.854 118.819C146.835 122.228 147.35 125.619 148.381 128.869C148.416 128.936 148.437 129.01 148.442 129.085C148.447 129.161 148.435 129.237 148.408 129.308C148.381 129.379 148.339 129.443 148.285 129.496C148.231 129.549 148.166 129.591 148.095 129.617C148.024 129.643 147.948 129.653 147.872 129.647C147.797 129.641 147.723 129.619 147.657 129.583C147.59 129.546 147.533 129.495 147.487 129.434C147.442 129.374 147.411 129.304 147.395 129.229C146.495 126.577 145.974 123.811 145.847 121.013C142.868 128.572 145.02 139.375 145.041 139.492C145.057 139.56 145.058 139.631 145.046 139.699C145.033 139.768 145.007 139.834 144.968 139.892C144.929 139.951 144.879 140.001 144.821 140.039C144.762 140.078 144.697 140.104 144.628 140.117L144.522 140.17Z" fill="#D1D3D4"/>
<path d="M140.546 104.327C140.453 104.327 140.361 104.301 140.281 104.252C133.316 100.298 131.408 88.7213 131.334 88.2337C131.323 88.1641 131.325 88.093 131.342 88.0244C131.358 87.9558 131.388 87.8911 131.429 87.834C131.471 87.7769 131.523 87.7285 131.583 87.6916C131.643 87.6547 131.71 87.6299 131.779 87.6188C131.849 87.6077 131.92 87.6103 131.988 87.6267C132.057 87.643 132.122 87.6727 132.179 87.7141C132.236 87.7554 132.284 87.8076 132.321 87.8677C132.358 87.9277 132.383 87.9945 132.394 88.0641C132.394 88.1807 134.292 99.6302 140.822 103.341C140.944 103.41 141.034 103.524 141.072 103.659C141.11 103.795 141.092 103.939 141.024 104.062C140.974 104.143 140.904 104.211 140.82 104.257C140.736 104.304 140.642 104.328 140.546 104.327V104.327Z" fill="#D1D3D4"/>
<path d="M82.0267 75.9786C81.9161 75.9794 81.8081 75.9449 81.7185 75.8801C81.6289 75.8152 81.5623 75.7235 81.5284 75.6182C81.5054 75.5521 81.496 75.4821 81.5007 75.4123C81.5054 75.3425 81.5242 75.2744 81.5558 75.212C81.5875 75.1496 81.6315 75.0943 81.6851 75.0493C81.7386 75.0044 81.8008 74.9707 81.8677 74.9503C81.9843 74.9503 94.5045 70.8476 104.131 71.2928C104.272 71.301 104.405 71.3645 104.5 71.4696C104.595 71.5747 104.645 71.713 104.639 71.8547C104.64 71.9248 104.625 71.9943 104.597 72.0585C104.569 72.1227 104.527 72.1801 104.475 72.2272C104.423 72.2742 104.362 72.3097 104.295 72.3314C104.228 72.3531 104.158 72.3604 104.088 72.353C94.6635 71.9289 82.3448 75.915 82.2281 75.9574L82.0267 75.9786Z" fill="#D1D3D4"/>
<path d="M172.583 215.206H172.53C172.391 215.19 172.263 215.12 172.173 215.012C172.084 214.903 172.041 214.763 172.053 214.623C172.127 213.818 179.665 133.47 180.821 121.766C180.828 121.696 180.848 121.629 180.881 121.567C180.914 121.505 180.959 121.451 181.013 121.407C181.067 121.362 181.13 121.329 181.197 121.309C181.264 121.289 181.334 121.282 181.404 121.289C181.473 121.296 181.541 121.316 181.602 121.349C181.664 121.382 181.719 121.427 181.763 121.482C181.807 121.536 181.84 121.598 181.861 121.665C181.881 121.732 181.888 121.802 181.881 121.872C180.725 133.533 173.198 213.913 173.124 214.719C173.111 214.853 173.048 214.977 172.948 215.067C172.848 215.157 172.718 215.207 172.583 215.206V215.206Z" fill="#231F20"/>
<path d="M183.969 164.309H183.81C183.677 164.266 183.566 164.171 183.502 164.046C183.439 163.92 183.427 163.775 183.471 163.641L202.49 103.86C202.534 103.727 202.628 103.615 202.753 103.55C202.877 103.484 203.023 103.47 203.158 103.51C203.291 103.554 203.402 103.649 203.465 103.774C203.529 103.899 203.54 104.045 203.497 104.178L184.478 163.959C184.44 164.064 184.371 164.153 184.28 164.216C184.188 164.279 184.08 164.311 183.969 164.309V164.309Z" fill="#231F20"/>
<path d="M209.37 57.8609C209.286 57.8614 209.204 57.8414 209.13 57.8026C209.056 57.7638 208.993 57.7073 208.946 57.6383C208.903 57.5825 208.872 57.5186 208.855 57.4505C208.838 57.3825 208.834 57.3116 208.845 57.2423C208.856 57.1729 208.881 57.1065 208.918 57.047C208.956 56.9875 209.004 56.9362 209.062 56.8962L229.989 41.7256C230.046 41.6845 230.11 41.655 230.177 41.6386C230.245 41.6222 230.316 41.6194 230.384 41.6302C230.453 41.641 230.519 41.6653 230.579 41.7017C230.638 41.7381 230.69 41.7858 230.731 41.8422C230.772 41.8986 230.802 41.9625 230.818 42.0303C230.835 42.0981 230.838 42.1685 230.827 42.2374C230.816 42.3063 230.792 42.3724 230.755 42.432C230.719 42.4915 230.671 42.5432 230.615 42.5843L209.677 57.7549C209.59 57.8243 209.481 57.8618 209.37 57.8609Z" fill="#D1D3D4"/>
<path d="M213.505 65.2392C213.389 65.2385 213.276 65.1998 213.184 65.129C213.092 65.0581 213.026 64.959 212.996 64.8469C212.977 64.7801 212.971 64.7101 212.979 64.6411C212.988 64.5721 213.01 64.5054 213.044 64.4451C213.079 64.3848 213.125 64.3321 213.181 64.29C213.236 64.2479 213.299 64.2174 213.367 64.2003L233.064 58.8042C233.202 58.7713 233.347 58.7926 233.469 58.8636C233.591 58.9346 233.682 59.05 233.721 59.1858C233.757 59.3207 233.738 59.4643 233.669 59.5854C233.599 59.7065 233.485 59.7953 233.35 59.8325L213.642 65.218L213.505 65.2392Z" fill="#D1D3D4"/>
<path d="M238.153 75.1835H238.079L223.237 73.2328C223.167 73.2238 223.1 73.2011 223.039 73.1661C222.978 73.1311 222.925 73.0845 222.882 73.0288C222.796 72.9165 222.757 72.7744 222.775 72.6338C222.794 72.4933 222.867 72.3657 222.979 72.2792C223.092 72.1927 223.234 72.1544 223.374 72.1727L238.216 74.1233C238.356 74.1419 238.483 74.2143 238.57 74.3253C238.658 74.4362 238.698 74.5768 238.683 74.717C238.665 74.8454 238.602 74.9631 238.504 75.0487C238.407 75.1343 238.282 75.1822 238.153 75.1835Z" fill="#D1D3D4"/>
<path d="M235.439 87.0994C235.365 87.114 235.29 87.114 235.216 87.0994L227.35 83.5267C227.287 83.4982 227.23 83.4573 227.183 83.4065C227.135 83.3556 227.099 83.2958 227.075 83.2306C227.052 83.1654 227.041 83.0961 227.045 83.0267C227.048 82.9574 227.066 82.8895 227.096 82.827C227.154 82.6993 227.26 82.5997 227.391 82.55C227.522 82.5003 227.667 82.5046 227.795 82.562L235.693 86.0392C235.834 86.0674 235.958 86.1502 236.037 86.2695C236.117 86.3887 236.146 86.5347 236.117 86.6753C236.089 86.8159 236.007 86.9396 235.887 87.0191C235.768 87.0986 235.622 87.1275 235.481 87.0994H235.439Z" fill="#D1D3D4"/>
</g>
<defs>
<clipPath id="clip0">
<rect width="250" height="250" fill="white"/>
</clipPath>
</defs>
</svg>
