<svg width="250" height="250" viewBox="0 0 250 250" fill="none" xmlns="http://www.w3.org/2000/svg">
<g clip-path="url(#clip0)">
<path d="M55.0134 91.9169C54.5752 91.9159 54.143 91.8148 53.7497 91.6215C29.9026 79.8949 2.30541 63.4663 6.40848 51.8135C8.18921 46.6765 15.0988 44.2557 27.5311 44.428C38.1252 44.5511 52.6829 46.578 69.6286 50.2872C70.0111 50.3532 70.3762 50.496 70.702 50.707C71.0278 50.918 71.3074 51.1929 71.524 51.515C71.7406 51.8371 71.8896 52.1998 71.9621 52.5812C72.0346 52.9625 72.0291 53.3545 71.9458 53.7337C71.8626 54.1128 71.7033 54.4711 71.4777 54.787C71.2521 55.1028 70.9648 55.3697 70.6332 55.5714C70.3015 55.7731 69.9325 55.9055 69.5482 55.9606C69.164 56.0157 68.7726 55.9924 68.3976 55.892C29.3118 47.3412 13.1621 49.9097 11.8409 53.7256C10.5198 57.5414 21.319 69.3172 56.3182 86.4927C56.9042 86.7765 57.3764 87.251 57.6574 87.8384C57.9383 88.4258 58.0113 89.0913 57.8644 89.7256C57.7175 90.36 57.3594 90.9256 56.8489 91.3297C56.3383 91.7338 55.7056 91.9524 55.0545 91.9498L55.0134 91.9169Z" fill="#231F20"/>
<path d="M222.361 141.342C210.487 141.342 195.33 138.881 181.782 135.976C181.037 135.817 180.385 135.368 179.97 134.729C179.555 134.089 179.412 133.311 179.57 132.566C179.729 131.821 180.178 131.169 180.817 130.754C181.457 130.339 182.235 130.196 182.98 130.354C220.531 138.339 236.074 135.738 237.354 132.045C238.634 128.352 227.769 116.371 192.393 99.0563C192.054 98.8903 191.751 98.6592 191.501 98.3762C191.251 98.0932 191.06 97.7638 190.938 97.4068C190.815 97.0498 190.765 96.6722 190.788 96.2955C190.812 95.9189 190.91 95.5506 191.075 95.2117C191.241 94.8728 191.473 94.5699 191.756 94.3202C192.039 94.0706 192.368 93.8792 192.725 93.7569C193.082 93.6346 193.46 93.5838 193.836 93.6074C194.213 93.6311 194.581 93.7286 194.92 93.8946C219.005 105.687 246.848 122.181 242.786 133.924C240.891 139.365 232.898 141.342 222.361 141.342Z" fill="#231F20"/>
<path d="M87.1078 31.093C87.3129 31.569 87.3622 40.9404 87.3622 40.9404C87.3622 40.9404 75.2581 39.5618 74.5524 39.7587C73.8467 39.9556 60.1835 47.5299 63.3756 48.6377C66.5678 49.7456 74.9955 46.857 74.9955 46.857C74.9955 46.857 100.147 54.9893 104.964 51.9038C109.781 48.8183 102.322 31.9136 102.322 31.9136L87.1078 31.093Z" fill="white"/>
<path d="M101.231 53.2495C93.1393 53.2495 77.7692 48.4407 74.9709 47.5544C73.6415 47.9894 66.256 50.3445 63.1459 49.2613C62.8857 49.1992 62.6548 49.0496 62.4919 48.8374C62.329 48.6252 62.2441 48.3634 62.2514 48.096C62.3417 45.3634 74.2406 39.2334 74.3637 39.2006C75.0448 39.0118 82.1021 39.775 86.6729 40.292C86.6729 36.1889 86.5662 31.7822 86.4513 31.2652C86.4123 31.1728 86.3987 31.0716 86.4116 30.9721C86.4246 30.8727 86.4638 30.7784 86.5252 30.699C86.5888 30.6161 86.673 30.5512 86.7695 30.5109C86.8659 30.4706 86.9713 30.4562 87.075 30.4693L102.289 31.2899C102.402 31.2971 102.511 31.3354 102.604 31.4006C102.696 31.4658 102.769 31.5552 102.814 31.6591C104.065 34.5588 105.121 37.5388 105.974 40.5792C107.73 46.9882 107.484 50.9682 105.227 52.4043C103.992 53.0317 102.614 53.3232 101.231 53.2495ZM74.9709 46.2825C75.0332 46.2701 75.0974 46.2701 75.1597 46.2825C82.0774 48.5146 100.853 53.7911 104.603 51.3949C108.107 49.1546 103.955 37.3378 101.879 32.5208L87.7643 31.7002C87.871 33.1362 87.9284 36.2218 87.953 40.9157C87.9531 41.0024 87.9349 41.0882 87.8996 41.1674C87.8642 41.2466 87.8125 41.3174 87.7479 41.3752C87.6855 41.4354 87.6102 41.4808 87.5278 41.5078C87.4453 41.5348 87.3579 41.5428 87.2719 41.5311C82.775 41.0223 75.3812 40.2428 74.6509 40.333C73.3379 40.809 63.827 46.4302 63.4905 48.0058H63.548C66.0098 48.8264 72.4763 47.0128 74.774 46.225C74.8487 46.2173 74.9243 46.2257 74.9955 46.2497L74.9709 46.2825Z" fill="#231F20"/>
<path d="M193.672 95.1832C193.685 109.16 189.479 122.816 181.605 134.364C173.732 145.912 162.556 154.815 149.541 159.909C136.525 165.003 122.275 166.051 108.655 162.916C95.0338 159.781 82.6762 152.608 73.1979 142.336V142.336C71.5986 140.62 70.092 138.82 68.6845 136.944C62.5777 128.793 58.3377 119.399 56.2647 109.428C54.1918 99.4562 54.3367 89.1508 56.6891 79.2414C59.0415 69.332 63.544 60.061 69.8775 52.085C76.2111 44.109 84.2209 37.6232 93.3396 33.0867C102.458 28.5503 112.463 26.0743 122.645 25.834C132.827 25.5938 142.937 27.5952 152.26 31.6965C161.582 35.7977 169.889 41.8986 176.592 49.567C183.294 57.2353 188.229 66.2836 191.046 76.0711C192.818 82.2869 193.713 88.7197 193.705 95.1832H193.672Z" fill="white"/>
<path d="M124.207 25.7098C139.305 25.7118 153.992 30.6266 166.049 39.7118C178.107 48.7971 186.881 61.5593 191.046 76.0709C193.991 86.4113 194.498 97.2939 192.528 107.863C190.557 118.433 186.161 128.401 179.687 136.985C173.213 145.569 164.836 152.535 155.216 157.335C145.595 162.135 134.992 164.638 124.24 164.648C114.657 164.66 105.175 162.683 96.395 158.842C87.6148 155.002 79.7271 149.381 73.2307 142.335V142.335C71.6314 140.62 70.1248 138.82 68.7173 136.944C60.952 126.63 56.2149 114.357 55.0377 101.5C53.8604 88.6439 56.2896 75.7139 62.0526 64.1614C67.8156 52.609 76.6844 42.8914 87.6634 36.0993C98.6424 29.3072 111.297 25.7094 124.207 25.7098ZM124.207 24.364C111.048 24.3621 98.1491 28.0265 86.9565 34.9461C75.7639 41.8658 66.7205 51.7671 60.8408 63.5393C54.961 75.3115 52.4775 88.4891 53.6687 101.594C54.86 114.699 59.6789 127.213 67.5849 137.732C68.9999 139.627 70.5176 141.443 72.1311 143.172C72.1483 143.203 72.1705 143.231 72.1967 143.255V143.255C75.946 147.311 80.1539 150.919 84.7357 154.005C95.397 161.153 107.8 165.269 120.62 165.915C133.439 166.561 146.193 163.711 157.519 157.67C168.844 151.629 178.316 142.625 184.921 131.619C191.525 120.613 195.016 108.019 195.018 95.183C195.019 91.0765 194.668 86.9775 193.968 82.9312C191.08 66.5273 182.505 51.6653 169.749 40.9548C156.993 30.2443 140.872 24.3702 124.215 24.364H124.207Z" fill="#231F20"/>
<path d="M193.672 95.1832C193.67 107.773 190.246 120.126 183.768 130.922C177.289 141.718 167.999 150.55 156.89 156.475C145.781 162.4 133.271 165.196 120.697 164.563C108.123 163.93 95.9565 159.892 85.499 152.881C89.9946 151.841 94.2005 149.808 97.8082 146.931C99.8598 145.29 101.772 143.312 104.225 142.336C111.028 139.628 118.233 145.405 125.561 145.618C131.79 145.774 137.477 141.753 141.227 136.764C144.977 131.774 147.193 125.858 149.876 120.237C151.517 116.757 153.881 112.99 157.68 112.342C161.48 111.694 165.312 117.069 162.267 119.424C164.524 121.467 168.11 119.342 169.948 116.921C174.322 111.177 175.824 103.791 178.614 97.1362C181.273 90.7929 186 84.4331 192.671 83.1858C193.349 87.1487 193.684 91.1627 193.672 95.1832Z" fill="#E6E7E8"/>
<path d="M92.6303 105.367C90.07 111.727 96.7333 118.817 94.8541 125.423C93.5411 130.092 88.5272 132.595 83.8825 134.006C78.929 135.521 73.8293 136.509 68.6683 136.952C62.9046 129.288 58.7898 120.513 56.583 111.181C54.3762 101.849 54.1251 92.1604 55.8456 82.7262C57.5661 73.292 61.2209 64.3162 66.5799 56.3635C71.939 48.4109 78.8862 41.6537 86.9844 36.5173C88.6718 37.927 90.0612 39.6589 91.0714 41.6118C92.0817 43.5647 92.6925 45.6994 92.8682 47.891C93.3688 53.1594 91.7276 58.4441 89.2904 63.1462C87.0255 67.5201 84.0138 71.6314 82.9798 76.4484C81.9459 81.2654 83.702 87.2231 88.3467 88.8725C91.8015 90.0952 96.5528 88.9874 98.5141 92.0647C99.9173 94.2393 98.8587 97.1771 97.2832 99.2122C95.7076 101.247 93.5986 102.971 92.6303 105.367Z" fill="#E6E7E8"/>
<path d="M191.046 76.0708C188.158 76.7273 185.212 77.2115 182.348 77.9829C177.285 79.3451 172.115 81.9382 169.776 86.6321C168.135 89.9146 167.823 94.1818 164.737 96.1512C162.276 97.7268 159.059 97.1032 156.146 97.4068C150.623 97.9812 146.085 102.002 142.597 106.327C139.11 110.651 136.18 115.526 131.855 119.005C127.531 122.485 121.187 124.274 116.403 121.418C120.884 120.151 125.022 117.893 128.512 114.81C132.002 111.728 134.755 107.9 136.566 103.611C138.749 98.3341 139.988 91.7938 145.125 89.2909C148.407 87.6497 152.592 88.2734 155.637 86.2054C161.381 82.3075 158.862 72.5586 163.564 67.4462C165.369 65.4931 167.979 64.5248 170.49 63.6303C173.617 62.5143 178.187 60.233 183.029 58.165C186.538 63.7226 189.238 69.7517 191.046 76.0708V76.0708Z" fill="#E6E7E8"/>
<path d="M174.716 47.5052C171.86 50.0829 168.689 52.2887 165.279 54.0701C154.472 59.6503 140.398 61.6608 134.498 72.2959C131.675 77.3919 131.421 83.5465 129.008 88.8477C126.595 94.1489 120.178 98.6951 115.148 95.7327C110.848 93.2216 110.561 87.0752 111.808 82.25C113.055 77.4248 115.312 72.5421 114.229 67.6759C113.408 63.8764 110.618 60.8402 108.164 57.8285C103.7 52.3222 99.8844 46.1101 98.3171 39.2006C97.6953 36.529 97.4604 33.782 97.6195 31.0437C110.634 25.6523 124.979 24.3426 138.755 27.2883C152.53 30.2339 165.086 37.2957 174.757 47.538L174.716 47.5052Z" fill="#E6E7E8"/>
<path d="M113.31 35.6394C113.31 35.6394 123.444 51.9942 117.602 55.3916C111.759 58.7889 75.34 61.5298 75.34 61.5298C75.34 61.5298 67.9545 71.6315 66.1901 67.668C64.4258 63.7044 74.2732 52.8969 74.2732 52.8969L95.8799 48.8759L86.9763 38.7906L113.31 35.6394Z" fill="white"/>
<path d="M67.4868 69.2023H67.2816C66.9167 69.1642 66.5698 69.0249 66.2798 68.8002C65.9898 68.5754 65.7684 68.2742 65.6404 67.9303C63.7284 63.7124 72.7962 53.586 73.8465 52.4453C73.9381 52.3469 74.059 52.2807 74.1912 52.2566L94.7066 48.4407L86.5004 39.1678C86.4264 39.0838 86.3767 38.9813 86.3567 38.8711C86.3367 38.761 86.3471 38.6475 86.3867 38.5429C86.4264 38.4382 86.4939 38.3463 86.5819 38.2772C86.6698 38.208 86.775 38.1641 86.8861 38.1503L113.187 35.0319C113.304 35.0185 113.422 35.0383 113.528 35.0891C113.634 35.1399 113.723 35.2197 113.786 35.3191C114.089 35.8115 121.237 47.4478 119.785 53.2578C119.667 53.8121 119.435 54.336 119.105 54.7964C118.774 55.2569 118.352 55.6438 117.864 55.933C112.177 59.2154 79.2954 61.8496 75.6519 62.1368C74.5195 63.7534 70.2523 69.2023 67.4868 69.2023ZM74.6179 53.4219C71.8689 56.4828 65.4681 64.5166 66.7811 67.3723C66.9944 67.8319 67.2242 67.9139 67.4129 67.9303C69.128 68.1027 72.8946 63.8273 74.8805 61.1356C74.9323 61.0626 74.9997 61.0019 75.0777 60.9579C75.1557 60.9139 75.2425 60.8877 75.3319 60.8813C75.6929 60.8813 111.644 58.1076 117.29 54.8251C117.636 54.6211 117.935 54.3459 118.167 54.0177C118.399 53.6895 118.559 53.3158 118.636 52.9213C119.834 48.1207 114.147 38.2077 112.99 36.2628L88.2483 39.1924L96.3724 48.3997C96.4455 48.4806 96.4956 48.5796 96.5172 48.6865C96.5389 48.7933 96.5314 48.904 96.4955 49.007C96.4584 49.1098 96.3949 49.2011 96.3113 49.2717C96.2278 49.3423 96.1272 49.3897 96.0195 49.4091L74.6179 53.4219Z" fill="#231F20"/>
<path d="M178.934 29.2961C178.655 30.4121 184.408 36.1072 181.946 48.5559C181.946 48.5559 187.297 52.5687 185.097 54.9402C182.898 57.3118 137.813 57.9847 136.172 55.7609C134.318 53.299 140.448 46.6767 140.448 46.6767C140.448 46.6767 137.518 15.0748 140.965 13.4582C144.411 11.8416 183.276 13.9916 183.234 16.3057C183.193 18.6199 177.818 20.8027 178.065 22.6901C178.311 24.5775 178.934 29.2961 178.934 29.2961Z" fill="white"/>
<path d="M154.694 57.7301C150.287 57.7301 146.241 57.648 143.205 57.4839C136.377 57.1146 135.918 56.491 135.664 56.1545C133.694 53.5121 138.61 47.7925 139.767 46.4795C139.053 38.6672 137.141 14.5822 140.661 12.9246C144.436 11.1603 179.878 13.2774 183.276 15.4767C183.428 15.5551 183.558 15.6721 183.651 15.816C183.745 15.96 183.799 16.1259 183.809 16.2973C183.809 17.7744 182.266 19.0053 180.797 20.1952C179.804 21.0158 178.565 22.0088 178.639 22.5914C178.885 24.4788 179.509 29.1563 179.509 29.1563C179.517 29.2162 179.517 29.277 179.509 29.3369C179.658 29.755 179.845 30.1588 180.067 30.5432C181.47 33.2266 184.359 38.7493 182.586 48.2438C183.505 48.9906 186 51.1816 186.189 53.2988C186.226 53.6619 186.184 54.0288 186.067 54.3743C185.949 54.7199 185.759 55.036 185.508 55.3011C184.039 56.9833 167.799 57.7301 154.694 57.7301ZM148.67 13.4744C144.887 13.4744 142.105 13.6467 141.227 14.0406C139.726 14.7463 139.258 27.1704 141.063 46.6436C141.071 46.7301 141.061 46.8173 141.033 46.8994C141.004 46.9815 140.959 47.0566 140.899 47.1196C138.503 49.7045 135.606 53.9799 136.673 55.416C139.217 57.4265 182.291 56.6469 184.646 54.5133C184.781 54.3765 184.883 54.2108 184.944 54.0288C185.005 53.8468 185.024 53.6533 184.999 53.4629C184.859 51.8217 182.48 49.7291 181.577 49.048C181.485 48.9786 181.414 48.8851 181.372 48.778C181.33 48.6708 181.319 48.5541 181.339 48.4407C183.177 39.1514 180.371 33.76 179.017 31.2079C178.626 30.6483 178.383 29.999 178.311 29.3204C178.229 28.6722 177.679 24.5609 177.49 22.8294C177.318 21.5656 178.672 20.466 180.1 19.309C181.216 18.3981 182.48 17.3805 182.635 16.5107C180.518 15.0254 160.126 13.4744 148.67 13.4744V13.4744Z" fill="#231F20"/>
<path d="M143.164 51.8628C142.375 52.0249 141.629 52.3491 140.973 52.8147C140.759 52.9624 140.538 53.184 140.579 53.4466C140.718 54.3903 143.196 54.9237 143.935 55.0304C149.31 55.851 154.857 55.5474 160.265 55.4981C165.845 55.4483 171.413 54.982 176.924 54.1031C178.901 53.783 179.016 52.2239 176.924 51.8792C173.567 51.3212 170.301 51.4689 166.961 51.313C163.4 51.1407 159.855 51.0832 156.293 51.1653C153.498 51.2255 150.7 51.3349 147.899 51.4935C146.313 51.4876 144.729 51.6111 143.164 51.8628Z" fill="#D1D3D4"/>
<path d="M149.195 44.904C148.109 44.9118 147.036 44.6674 146.061 44.19C143.779 43.0996 141.863 41.3713 140.543 39.2144C139.224 37.0575 138.558 34.5644 138.626 32.0368C138.79 28.2291 142.212 24.9877 145.117 22.8459C151.797 17.9222 162.095 17.2903 168.652 22.8459C171.024 24.8318 173.576 26.5304 174.117 29.8211C174.307 31.0142 174.231 32.2344 173.895 33.3948C173.559 34.5552 172.971 35.627 172.173 36.5337C170.195 38.7412 167.191 39.6849 164.278 40.2347C161.365 40.7845 158.362 41.0553 155.678 42.3108C153.208 43.4515 151.46 44.8547 149.195 44.904Z" fill="#231F20"/>
<path d="M149.056 45.5276C147.914 45.4998 146.793 45.2196 145.773 44.707C143.376 43.572 141.362 41.7627 139.977 39.5007C138.593 37.2387 137.898 34.622 137.977 31.9711C138.117 28.746 140.382 25.4964 144.723 22.3042C152.108 16.8718 162.563 16.8636 169.021 22.3042L169.842 22.9853C171.959 24.7168 174.15 26.514 174.692 29.6487C174.908 30.9412 174.832 32.2657 174.47 33.5251C174.108 34.7845 173.468 35.9471 172.599 36.9276C170.342 39.4386 166.855 40.3495 164.393 40.8173C163.728 40.9486 163.063 41.0553 162.399 41.1701C160.18 41.4269 158.005 41.9788 155.932 42.8114C155.243 43.1314 154.611 43.4679 154.004 43.7961C152.437 44.6167 150.959 45.4373 149.203 45.4373H149.039L149.056 45.5276ZM157.262 19.5552C153.032 19.5414 148.906 20.8687 145.478 23.3464C141.457 26.3006 139.356 29.2302 139.233 32.0613C139.161 34.4685 139.793 36.8443 141.051 38.898C142.309 40.9516 144.138 42.5939 146.315 43.6238C147.203 44.063 148.18 44.2906 149.171 44.2885C150.639 44.2885 151.928 43.5663 153.413 42.7621C154.045 42.4257 154.693 42.081 155.407 41.7446C157.582 40.858 159.863 40.262 162.194 39.972C162.85 39.8654 163.507 39.7587 164.155 39.6356C166.617 39.1596 169.719 38.339 171.705 36.1234C172.446 35.2797 172.991 34.2819 173.301 33.202C173.61 32.1221 173.676 30.9869 173.493 29.8785C173.034 27.2033 171.114 25.6277 169.079 23.9619L168.258 23.2726C165.143 20.7917 161.259 19.4769 157.278 19.5552H157.262Z" fill="#231F20"/>
<path d="M146.364 12.2189C146.364 12.2189 135.491 1.18161 113.72 0.648214C91.9489 0.114815 71.7536 14.9761 77.8425 30.8796C82.3231 42.5652 88.371 45.2568 88.371 45.2568L116.436 39.1514L115.057 35.1961C115.057 35.1961 136.147 40.768 142.039 35.1961C147.931 29.6241 156.58 20.2363 146.364 12.2189Z" fill="#754EE4"/>
<path d="M147.135 32.5048L140.201 32.6771C140.201 32.6771 138.174 31.7006 139.848 26.0301C141.522 20.3597 144.173 20.4253 144.173 20.4253H157.139C157.82 20.4253 164.524 20.8356 170.457 20.8028C170.457 27.7288 170.974 33.9326 170.974 33.9326C170.31 33.2515 170.154 35.7134 170.154 35.7052C170.153 36.8215 169.97 37.9303 169.612 38.9876C165.624 39.3323 154.554 41.1951 152.248 40.6863C147.866 39.6523 147.135 32.5048 147.135 32.5048Z" fill="white"/>
<path d="M153.438 41.277C153.004 41.2863 152.569 41.2533 152.141 41.1785C148.038 40.2759 146.914 34.8188 146.643 33.0791L140.21 33.2432C140.122 33.2417 140.035 33.2222 139.955 33.1858C139.701 33.0627 137.551 31.8317 139.307 25.8659C141.063 19.9 144.05 19.8672 144.231 19.8672H157.213H157.295C159.543 19.9903 165.304 20.2611 170.499 20.2447C170.649 20.2446 170.793 20.3036 170.901 20.4088C170.953 20.4599 170.995 20.5212 171.023 20.5889C171.051 20.6566 171.065 20.7293 171.065 20.8027C171.065 27.622 171.574 33.8094 171.574 33.8669C171.583 33.9488 171.573 34.0318 171.546 34.1096C171.519 34.1874 171.474 34.2581 171.416 34.3165C171.358 34.3748 171.287 34.4192 171.209 34.4465C171.131 34.4738 171.048 34.4832 170.966 34.4741C170.861 34.8795 170.797 35.2948 170.778 35.7132C170.768 36.8831 170.572 38.044 170.195 39.1516C170.158 39.2512 170.093 39.3384 170.009 39.4036C169.925 39.4688 169.825 39.5094 169.719 39.5209C168.447 39.6276 166.387 39.8984 164.213 40.1938C160.642 40.738 157.046 41.0996 153.438 41.277V41.277ZM147.136 31.9138C147.276 31.9133 147.41 31.9652 147.514 32.0595C147.617 32.1537 147.681 32.2833 147.694 32.4226C147.694 32.4882 148.44 39.1762 152.388 40.0543C153.856 40.3743 159.773 39.5947 164.024 39.0285C166.018 38.7577 167.905 38.5033 169.21 38.3802C169.468 37.4838 169.601 36.5559 169.604 35.623V35.623C169.604 35.0814 169.752 33.6617 170.343 33.2924C170.22 31.6512 169.908 26.7275 169.875 21.3197C164.82 21.3197 159.346 21.0571 157.172 20.9422H157.081H144.149C144.149 20.9422 141.867 21.0407 140.366 26.1367C139.085 30.4695 140.054 31.7825 140.366 32.0615L147.111 31.8892L147.136 31.9138Z" fill="#231F20"/>
<path d="M159.1 32.2091C157.771 32.9313 156.195 33.6534 155.818 33.2513C155.046 32.5209 155.588 30.5269 155.588 30.5269" fill="white"/>
<path d="M156.129 33.9897C155.987 33.9955 155.845 33.9731 155.711 33.9238C155.577 33.8745 155.454 33.7993 155.35 33.7025C154.357 32.767 154.841 30.7565 154.948 30.3626C155.002 30.2167 155.109 30.0966 155.248 30.0257C155.386 29.9548 155.547 29.9383 155.697 29.9794C155.847 30.0206 155.976 30.1164 156.059 30.248C156.142 30.3796 156.173 30.5376 156.146 30.6908C155.918 31.3584 155.918 32.0829 156.146 32.7505V32.7505C156.318 32.7505 156.966 32.6603 158.796 31.6673C158.938 31.5937 159.103 31.5783 159.257 31.6242C159.41 31.6702 159.539 31.7739 159.617 31.9135C159.689 32.0559 159.703 32.2202 159.657 32.3728C159.611 32.5254 159.509 32.6547 159.371 32.7341C157.68 33.686 156.72 33.9897 156.129 33.9897Z" fill="#231F20"/>
<path d="M143.763 24.1999C142.71 23.6874 141.8 22.9237 141.112 21.976C139.773 20.1517 138.864 18.0475 138.454 15.8214C137.854 13.0396 137.74 10.0771 138.856 7.42656C139.881 4.96472 142.425 2.42082 145.248 3.03628C148.268 3.70098 151.501 5.0632 154.455 6.08896C163.696 9.28115 178.007 11.0126 179.977 22.5833C181.462 31.2818 179.295 36.903 174.757 40.3742C169.218 44.6086 161.833 42.9591 165.493 34.8761C166.002 33.7731 166.754 32.799 167.692 32.0262C168.629 31.2534 169.729 30.7016 170.909 30.412C168.524 29.4424 166.447 27.8426 164.902 25.7837C164.432 25.0448 163.857 24.3785 163.195 23.806C159.822 21.3442 154.923 22.5177 151.214 23.3629C148.202 24.0522 145.987 25.16 143.763 24.1999Z" fill="white"/>
<path d="M168.759 43.2628C167.58 43.296 166.424 42.9318 165.476 42.2288C164.393 41.359 162.875 39.2254 164.959 34.6218C165.846 32.7154 167.386 31.1897 169.3 30.3217C167.384 29.3158 165.713 27.8978 164.41 26.1694L164.106 25.7591C163.759 25.2175 163.33 24.7331 162.834 24.3231C159.724 22.0828 155.161 23.1168 151.485 23.9538H151.345C150.64 24.1097 149.975 24.2984 149.343 24.4708C147.234 25.0616 145.412 25.5704 143.517 24.7498C142.37 24.1961 141.377 23.3673 140.628 22.3372C139.217 20.4453 138.264 18.2512 137.846 15.9282C137.116 12.5226 137.264 9.57662 138.281 7.17222C139.496 4.30007 142.319 1.74797 145.38 2.42087C147.686 2.98818 149.95 3.71199 152.158 4.58729C152.978 4.89912 153.799 5.20275 154.62 5.48996C156.261 6.04798 158.025 6.56497 159.913 7.13119C168.792 9.69971 178.861 12.6211 180.543 22.4849C181.971 30.8223 180.133 37.0097 175.086 40.8666C173.285 42.3179 171.069 43.1572 168.759 43.2628V43.2628ZM157.968 21.7299C159.951 21.6474 161.908 22.1993 163.556 23.3055C164.161 23.7909 164.685 24.3699 165.107 25.0206L165.394 25.4145C166.871 27.3839 168.857 28.9131 171.139 29.8376C171.257 29.8896 171.356 29.9771 171.423 30.0879C171.489 30.1987 171.519 30.3275 171.509 30.4563C171.499 30.5851 171.45 30.7077 171.367 30.8071C171.285 30.9065 171.173 30.9777 171.048 31.0111C169.961 31.2778 168.946 31.7848 168.08 32.4948C167.214 33.2049 166.518 34.0999 166.043 35.1141C164.754 37.9617 164.812 40.1363 166.207 41.2441C167.987 42.6556 171.5 42.0647 174.372 39.8737C179.09 36.263 180.723 30.6336 179.361 22.6408C177.802 13.5402 168.135 10.7419 159.601 8.26364C157.705 7.71383 155.908 7.19684 154.242 6.62241C153.422 6.3352 152.601 6.02336 151.723 5.71153C149.562 4.87372 147.347 4.18284 145.092 3.64358C142.729 3.11839 140.398 5.32584 139.406 7.66459C138.486 9.83922 138.363 12.5308 139.036 15.6902C139.422 17.8256 140.292 19.8441 141.58 21.5904C142.206 22.4579 143.034 23.1593 143.993 23.6337V23.6337C145.486 24.282 147.037 23.8471 148.998 23.2973C149.647 23.1167 150.328 22.928 151.058 22.7639H151.198C153.41 22.1729 155.68 21.8261 157.968 21.7299V21.7299Z" fill="#231F20"/>
<path d="M154.718 36.8374C154.585 36.8368 154.456 36.7936 154.349 36.7143C154.242 36.6404 151.723 34.7694 151.592 31.9957C151.51 30.3053 152.322 28.7133 154.004 27.1787C154.065 27.1249 154.135 27.0834 154.211 27.0567C154.288 27.03 154.369 27.0186 154.449 27.0232C154.53 27.0278 154.609 27.0482 154.682 27.0833C154.755 27.1185 154.82 27.1676 154.874 27.228C154.928 27.2883 154.969 27.3587 154.996 27.4351C155.023 27.5114 155.034 27.5923 155.03 27.6731C155.025 27.7539 155.005 27.8329 154.969 27.9058C154.934 27.9787 154.885 28.0439 154.825 28.0978C153.438 29.3369 152.765 30.6253 152.823 31.9219C152.929 34.1047 155.063 35.7049 155.079 35.7213C155.185 35.7973 155.265 35.9051 155.306 36.0292C155.347 36.1532 155.347 36.2871 155.307 36.4114C155.267 36.5356 155.188 36.6439 155.082 36.7205C154.976 36.7971 154.849 36.838 154.718 36.8374V36.8374Z" fill="#231F20"/>
<path d="M147.136 32.5046C147.136 32.5046 147.136 27.8764 148.777 26.1531C148.777 26.1531 146.504 27.7943 143.533 32.718L147.136 32.5046Z" fill="#231F20"/>
<path d="M143.508 33.3415C143.403 33.3414 143.299 33.3142 143.207 33.2625C143.115 33.2107 143.038 33.1362 142.983 33.0461C142.923 32.9503 142.891 32.8394 142.891 32.7261C142.891 32.6128 142.923 32.5018 142.983 32.406C145.979 27.4823 148.293 25.7262 148.391 25.6524C148.514 25.5612 148.667 25.5199 148.819 25.5366C148.971 25.5533 149.112 25.6269 149.212 25.7426C149.313 25.8555 149.368 26.0016 149.368 26.1529C149.368 26.3043 149.313 26.4504 149.212 26.5633C148.03 27.8352 147.759 31.2736 147.759 32.4963C147.757 32.6526 147.696 32.8023 147.588 32.9151C147.48 33.0278 147.333 33.0952 147.177 33.1035L143.549 33.3333L143.508 33.3415ZM146.906 28.9512C146.101 29.9441 145.351 30.9796 144.657 32.0532L146.537 31.9383C146.579 30.9288 146.703 29.9245 146.906 28.9348V28.9512Z" fill="#231F20"/>
<path d="M161.307 37.5758C161.205 37.5768 161.103 37.5518 161.013 37.503C160.923 37.4542 160.846 37.3832 160.79 37.2968C160.71 37.1636 160.683 37.0049 160.715 36.8526C160.747 36.7004 160.836 36.5659 160.963 36.4762V36.4762C161.135 36.3695 161.611 35.9592 161.595 35.5653C161.578 35.1714 161.225 34.8842 160.585 34.5231C160.447 34.4438 160.345 34.3139 160.301 34.1608C160.256 34.0078 160.273 33.8435 160.347 33.7025C160.428 33.5658 160.558 33.4651 160.71 33.4209C160.863 33.3767 161.027 33.3923 161.168 33.4645C162.227 34.0554 162.809 34.7529 162.809 35.5407C162.784 35.9416 162.663 36.3308 162.458 36.6761C162.252 37.0213 161.968 37.3128 161.627 37.5266C161.527 37.5701 161.417 37.5871 161.307 37.5758V37.5758Z" fill="#231F20"/>
<path d="M161.406 30.2726C161.303 30.2736 161.202 30.2485 161.112 30.1998C161.021 30.151 160.945 30.08 160.889 29.9936C160.809 29.8603 160.782 29.7016 160.814 29.5494C160.846 29.3971 160.934 29.2626 161.061 29.173C161.234 29.0581 161.71 28.656 161.693 28.2621C161.677 27.8682 161.324 27.5728 160.692 27.2199C160.552 27.142 160.449 27.0122 160.404 26.8585C160.36 26.7049 160.378 26.5398 160.454 26.3993C160.534 26.2611 160.663 26.1591 160.816 26.1147C160.969 26.0703 161.134 26.087 161.275 26.1613C162.333 26.7521 162.916 27.4497 162.916 28.2375C162.889 28.6381 162.768 29.0267 162.563 29.3718C162.357 29.7169 162.074 30.0086 161.734 30.2233C161.631 30.2683 161.518 30.2853 161.406 30.2726V30.2726Z" fill="#231F20"/>
<path d="M171.901 45.6999C171.829 45.6437 171.746 45.6025 171.657 45.5785C171.568 45.5546 171.476 45.5484 171.384 45.5604C167.905 45.6178 164.27 46.1102 161.078 44.7397L163.096 43.4103C163.597 43.0821 164.155 42.4995 163.835 41.9989C163.515 41.4983 163.014 41.6706 162.546 41.7937C160.559 42.2545 158.615 42.8859 156.736 43.6811V43.6155C156.736 43.6155 140.751 40.7762 135.835 35.4094C133.48 32.8162 132.996 28.8445 132.881 25.562C132.766 22.2795 134.522 18.6853 132.061 15.8788C130.198 13.7205 126.398 13.3431 123.92 14.6314C121.245 16.0183 119.76 19.629 119.202 22.4026C118.349 27.3797 118.695 32.4884 120.211 37.305C121.327 41.4389 123.965 44.9977 127.596 47.2672C136.024 52.3222 152.568 51.4277 157.253 51.0503C158.386 51.4205 159.576 51.5791 160.766 51.518C163.876 51.518 167.093 51.0995 169.735 49.4583C170.908 48.7361 172.025 47.6119 172.057 46.2251C172.076 46.1314 172.071 46.0348 172.044 45.9433C172.017 45.8518 171.968 45.7683 171.901 45.6999V45.6999Z" fill="white"/>
<path d="M160.503 52.0682C159.36 52.1044 158.22 51.9462 157.13 51.6004C152.092 52.0025 135.721 52.8149 127.252 47.7271C123.501 45.3743 120.785 41.6841 119.653 37.4038C118.102 32.4926 117.75 27.2812 118.627 22.206C118.923 20.7453 120.162 15.8217 123.666 13.9999C126.234 12.6705 130.419 12.9167 132.561 15.395C134.424 17.545 134.088 20.0478 133.767 22.4686C133.602 23.4555 133.522 24.455 133.53 25.4557C133.636 28.5658 134.063 32.4555 136.328 34.9502C140.858 39.9313 155.522 42.7378 156.786 42.9758C158.381 42.2987 160.027 41.7499 161.709 41.3346L162.407 41.1458C163.638 40.8094 164.171 41.2935 164.376 41.6136C164.836 42.3193 164.475 43.2138 163.465 43.8785L162.473 44.5267C164.738 45.0341 167.07 45.1837 169.382 44.9699C170.055 44.9699 170.728 44.9124 171.393 44.9042C171.57 44.8886 171.75 44.9097 171.919 44.9662C172.088 45.0227 172.244 45.1133 172.377 45.2325C172.591 45.4826 172.697 45.8071 172.673 46.1351C172.615 48.0061 171.032 49.2781 170.047 49.8689C167.011 51.7563 163.293 52.0025 160.766 52.0189L160.503 52.0682ZM157.221 50.3613C157.294 50.3489 157.369 50.3489 157.442 50.3613C158.502 50.7001 159.614 50.8447 160.725 50.788C163.104 50.788 166.592 50.5418 169.366 48.8185C170.104 48.3672 171.335 47.4153 171.401 46.1351L169.415 46.2008C166.535 46.3157 163.548 46.4306 160.84 45.2571C160.737 45.2126 160.648 45.141 160.583 45.0499C160.518 44.9588 160.479 44.8517 160.47 44.7401C160.46 44.6292 160.481 44.5177 160.53 44.4179C160.58 44.318 160.655 44.2336 160.749 44.1739L162.768 42.8445C163.012 42.7155 163.208 42.5111 163.326 42.2618H163.219C163.047 42.2635 162.876 42.2884 162.711 42.3357L162.013 42.5244C160.305 42.924 158.635 43.4732 157.024 44.1657C156.94 44.204 156.849 44.2239 156.757 44.2239C156.665 44.2239 156.574 44.204 156.49 44.1657L156.392 44.1082C154.299 43.7143 140.111 40.916 135.384 35.7216C132.84 32.9397 132.381 28.7628 132.258 25.4475C132.253 24.3758 132.336 23.3055 132.504 22.2471C132.807 19.9986 133.095 17.8732 131.593 16.1417C129.861 14.1312 126.308 13.9507 124.207 15.0421C121.811 16.2812 120.367 19.6457 119.809 22.4276C118.973 27.304 119.317 32.3096 120.81 37.0263C121.849 41.0238 124.369 44.4766 127.859 46.685C136.065 51.6086 152.363 50.788 157.147 50.3777L157.221 50.3613Z" fill="#231F20"/>
<path d="M95.913 49.4583C95.7667 49.454 95.6265 49.3984 95.5171 49.3012C95.4077 49.204 95.3359 49.0714 95.3144 48.9266C95.2929 48.7818 95.323 48.6341 95.3994 48.5093C95.4758 48.3845 95.5937 48.2905 95.7324 48.2438C96.0443 48.1535 103.512 45.8969 106.901 45.5932C106.981 45.5853 107.063 45.5936 107.14 45.6175C107.217 45.6414 107.289 45.6805 107.351 45.7325C107.413 45.7845 107.463 45.8483 107.5 45.9202C107.537 45.9921 107.56 46.0706 107.566 46.1512C107.574 46.2321 107.565 46.3138 107.542 46.3915C107.518 46.4692 107.479 46.5414 107.427 46.604C107.375 46.6665 107.311 46.7182 107.239 46.756C107.167 46.7938 107.089 46.8169 107.008 46.8241C103.725 47.1114 96.1673 49.4009 96.0853 49.4255C96.0307 49.4482 95.9721 49.4594 95.913 49.4583V49.4583Z" fill="#231F20"/>
<path d="M115.058 35.8445C114.926 35.8437 114.798 35.8012 114.691 35.7231C114.585 35.6449 114.507 35.5352 114.467 35.4095C114.303 34.8844 110.47 22.4356 111.964 18.0946C111.991 18.0146 112.035 17.941 112.091 17.8781C112.148 17.8151 112.216 17.7642 112.293 17.7282C112.369 17.6923 112.452 17.672 112.537 17.6687C112.621 17.6654 112.705 17.6791 112.785 17.7089C112.865 17.7352 112.939 17.778 113.003 17.8344C113.066 17.8908 113.117 17.9597 113.153 18.0367C113.188 18.1138 113.207 18.1973 113.209 18.2821C113.21 18.3669 113.194 18.4512 113.162 18.5295C111.8 22.4931 115.624 34.9418 115.681 35.0813C115.728 35.238 115.711 35.4066 115.634 35.5508C115.557 35.6951 115.427 35.8035 115.271 35.8527C115.2 35.8612 115.128 35.8584 115.058 35.8445V35.8445Z" fill="#231F20"/>
<path d="M182.381 136.041C182.18 136.039 181.979 136.017 181.782 135.976C159.541 131.07 137.617 124.82 116.133 117.257C94.852 109.963 74.026 101.402 53.7666 91.6214C53.0821 91.2863 52.5588 90.6929 52.3118 89.9719C52.0648 89.2509 52.1144 88.4614 52.4495 87.7769C52.7847 87.0924 53.3781 86.5691 54.0991 86.3221C54.82 86.0751 55.6096 86.1246 56.2941 86.4598C76.3431 96.1394 96.9526 104.612 118.012 111.833C139.272 119.33 160.968 125.526 182.98 130.387C183.681 130.529 184.303 130.927 184.726 131.503C185.148 132.079 185.341 132.792 185.266 133.503C185.191 134.214 184.854 134.871 184.321 135.346C183.787 135.822 183.096 136.081 182.381 136.074V136.041Z" fill="#231F20"/>
<path d="M73.4855 142.032C73.387 142.13 73.2885 142.229 73.1982 142.335L73.4855 142.032Z" fill="#E6E7E8"/>
<path d="M36.8371 127.663L29.2382 124.479L22.3122 128.935L22.9934 120.729L16.6172 115.518L24.6264 113.622L27.6216 105.949L31.897 112.99L40.1114 113.458L34.7445 119.695L36.8371 127.663Z" fill="white"/>
<path d="M22.3118 129.304C22.2604 129.304 22.2095 129.294 22.1624 129.273C22.1153 129.253 22.0731 129.223 22.0383 129.185C22.0036 129.147 21.9771 129.102 21.9606 129.053C21.9441 129.005 21.9379 128.953 21.9425 128.902L22.6072 120.893L16.3787 115.797C16.3251 115.754 16.285 115.696 16.2632 115.63C16.2413 115.565 16.2387 115.494 16.2556 115.428C16.2725 115.362 16.3065 115.303 16.3541 115.255C16.4018 115.208 16.4612 115.174 16.5264 115.157L24.3551 113.31L27.2683 105.818C27.2942 105.755 27.337 105.699 27.3921 105.658C27.4471 105.617 27.5124 105.592 27.5808 105.585C27.6492 105.578 27.7182 105.59 27.7802 105.62C27.8423 105.649 27.8951 105.695 27.933 105.753L32.1099 112.629L40.1355 113.089C40.2037 113.094 40.2693 113.117 40.3255 113.156C40.3818 113.195 40.4266 113.248 40.4555 113.31C40.4829 113.374 40.492 113.443 40.4819 113.511C40.4717 113.58 40.4427 113.644 40.3981 113.696L35.1298 119.793L37.1731 127.573C37.192 127.639 37.1911 127.709 37.1707 127.774C37.1503 127.84 37.1112 127.898 37.0582 127.942C37.0056 127.986 36.9421 128.016 36.8743 128.027C36.8065 128.039 36.7368 128.032 36.6725 128.008L29.287 124.897L22.5169 129.247C22.4563 129.287 22.3845 129.307 22.3118 129.304ZM17.4291 115.698L23.2226 120.442C23.2698 120.478 23.3073 120.526 23.3316 120.58C23.3559 120.634 23.3664 120.694 23.3622 120.753L22.7385 128.213L29.0408 124.167C29.0939 124.139 29.1531 124.124 29.2131 124.124C29.2732 124.124 29.3323 124.139 29.3855 124.167L36.2868 127.056L34.383 119.818C34.3684 119.76 34.3675 119.699 34.3803 119.641C34.3931 119.583 34.4193 119.528 34.4568 119.481L39.3395 113.811L31.8719 113.384C31.8117 113.381 31.7532 113.362 31.7017 113.331C31.6502 113.299 31.6072 113.256 31.5765 113.204L27.6868 106.811L24.9788 113.786C24.9546 113.841 24.9184 113.889 24.8729 113.927C24.8274 113.966 24.7738 113.993 24.7162 114.008L17.4291 115.698Z" fill="#D1D3D4"/>
<path d="M223.387 75.3239L218.332 70.6136L211.587 72.0989L214.508 65.8376L211.004 59.88L217.864 60.7252L222.443 55.5471L223.764 62.3336L230.1 65.0908L224.052 68.4472L223.387 75.3239Z" fill="white"/>
<path d="M223.387 75.636C223.309 75.6337 223.234 75.6047 223.174 75.5539L218.25 70.9503L211.685 72.4027C211.628 72.4158 211.569 72.4127 211.514 72.3937C211.459 72.3747 211.41 72.3406 211.373 72.2953C211.336 72.25 211.313 72.1953 211.306 72.1374C211.299 72.0795 211.308 72.0208 211.332 71.9678L214.188 65.8542L210.742 60.0361C210.711 59.9868 210.695 59.93 210.695 59.872C210.695 59.814 210.711 59.7571 210.742 59.7078C210.774 59.6608 210.819 59.6232 210.871 59.5987C210.922 59.5743 210.98 59.5638 211.037 59.5683L217.741 60.389L222.214 55.334C222.252 55.291 222.301 55.2596 222.357 55.2437C222.412 55.2277 222.47 55.2277 222.526 55.2437C222.582 55.2578 222.634 55.2876 222.675 55.3297C222.715 55.3718 222.743 55.4245 222.755 55.4817L224.035 62.104L230.223 64.8039C230.278 64.8251 230.325 64.8622 230.359 64.9104C230.392 64.9587 230.411 65.0159 230.412 65.0747C230.414 65.1321 230.401 65.1891 230.373 65.2397C230.346 65.2902 230.305 65.3324 230.256 65.3619L224.347 68.6443L223.699 75.3652C223.692 75.4224 223.669 75.4765 223.632 75.5214C223.596 75.5663 223.548 75.6003 223.494 75.6195C223.46 75.6334 223.424 75.639 223.387 75.636ZM218.332 70.302C218.371 70.3003 218.411 70.3067 218.447 70.3209C218.484 70.335 218.517 70.3565 218.546 70.384L223.141 74.6676L223.748 68.4146C223.753 68.3652 223.769 68.3177 223.797 68.2762C223.824 68.2347 223.861 68.2005 223.904 68.1766L229.402 65.1239L223.658 62.621C223.611 62.601 223.57 62.5695 223.538 62.5293C223.507 62.4891 223.486 62.4416 223.477 62.3913L222.23 56.2284L218.127 60.9306C218.094 60.9681 218.051 60.9968 218.004 61.014C217.957 61.0312 217.906 61.0363 217.856 61.029L211.62 60.2659L214.804 65.6819C214.828 65.7258 214.841 65.7753 214.841 65.8255C214.841 65.8758 214.828 65.9252 214.804 65.9691L212.153 71.6642L218.283 70.3102L218.332 70.302Z" fill="#D1D3D4"/>
<path d="M200.533 61.0375L197.226 57.952L192.811 58.9285L194.723 54.8337L192.434 50.9276L196.922 51.4856L199.918 48.0964L200.787 52.536L204.932 54.3413L200.976 56.5406L200.533 61.0375Z" fill="white"/>
<path d="M200.533 61.2423C200.508 61.2433 200.483 61.2386 200.461 61.2287C200.438 61.2187 200.418 61.2037 200.402 61.1848L197.168 58.1732L192.852 59.1333C192.816 59.1383 192.779 59.1341 192.744 59.1212C192.71 59.1084 192.679 59.0871 192.655 59.0595C192.635 59.0273 192.625 58.9904 192.625 58.9528C192.625 58.9151 192.635 58.8782 192.655 58.8461L194.518 54.8415L192.277 51.0339C192.257 51.002 192.246 50.965 192.246 50.9272C192.246 50.8893 192.257 50.8523 192.277 50.8205C192.299 50.7886 192.328 50.7632 192.363 50.7472C192.398 50.7313 192.436 50.7254 192.474 50.7302L196.857 51.2636L199.786 47.9812C199.811 47.953 199.844 47.9321 199.88 47.9206C199.916 47.909 199.954 47.9073 199.991 47.9155C200.027 47.9269 200.059 47.9471 200.085 47.9744C200.111 48.0017 200.13 48.0351 200.139 48.0714L200.96 52.4125L205.013 54.1768C205.047 54.193 205.075 54.2172 205.097 54.2473C205.118 54.2774 205.132 54.3124 205.137 54.3491C205.138 54.3874 205.129 54.4254 205.11 54.4587C205.091 54.4921 205.063 54.5195 205.03 54.5379L201.165 56.6797L200.738 61.0782C200.734 61.116 200.719 61.1519 200.696 61.1822C200.673 61.2125 200.642 61.2361 200.607 61.2505L200.533 61.2423ZM197.25 57.7547C197.302 57.7523 197.352 57.77 197.39 57.8039L200.402 60.6104L200.795 56.5073C200.8 56.4749 200.812 56.444 200.831 56.4169C200.849 56.3899 200.874 56.3675 200.902 56.3514L204.496 54.3573L200.73 52.7161C200.699 52.7034 200.671 52.6833 200.65 52.6576C200.628 52.6318 200.614 52.6012 200.607 52.5684L199.827 48.531L197.07 51.6083C197.05 51.6344 197.024 51.6545 196.993 51.6661C196.963 51.6777 196.93 51.6804 196.898 51.6739L192.794 51.1734L194.871 54.7184C194.886 54.7474 194.895 54.7798 194.895 54.8128C194.895 54.8458 194.886 54.8782 194.871 54.9071L193.131 58.6327L197.144 57.7465L197.25 57.7547Z" fill="#D1D3D4"/>
<path d="M41.3913 24.4788L35.1792 23.4285L30.7971 27.95L29.8698 21.7216L24.2158 18.9561L29.8534 16.1496L30.7397 9.92114L35.1546 14.4099L41.3502 13.3267L38.4371 18.9151L41.3913 24.4788Z" fill="white"/>
<path d="M30.7968 28.2371H30.7147C30.6638 28.2209 30.6183 28.1909 30.5835 28.1503C30.5487 28.1097 30.526 28.0602 30.5178 28.0073L29.6151 21.9266L24.0924 19.2268C24.0459 19.2025 24.0071 19.1659 23.9799 19.121C23.9528 19.0762 23.9385 19.0248 23.9385 18.9724C23.9385 18.92 23.9528 18.8686 23.9799 18.8237C24.0071 18.7789 24.0459 18.7423 24.0924 18.718L29.5987 15.9854L30.4193 9.8964C30.4268 9.84452 30.4483 9.79569 30.4816 9.75519C30.5149 9.71468 30.5586 9.68406 30.608 9.66663C30.6591 9.64899 30.7143 9.64659 30.7667 9.6597C30.8191 9.67281 30.8667 9.70088 30.9035 9.74049L35.2035 14.1226L41.3006 13.0394C41.3532 13.0307 41.4072 13.0369 41.4564 13.0572C41.5057 13.0775 41.5484 13.1111 41.5796 13.1542C41.6073 13.1985 41.6219 13.2497 41.6219 13.3019C41.6219 13.3542 41.6073 13.4054 41.5796 13.4497L38.7321 18.8985L41.6125 24.331C41.6383 24.3774 41.6519 24.4297 41.6519 24.4828C41.6519 24.5359 41.6383 24.5882 41.6125 24.6346C41.5806 24.6771 41.5378 24.7102 41.4887 24.7304C41.4396 24.7506 41.386 24.7572 41.3335 24.7495L35.2773 23.7073L31.0265 28.1469C30.997 28.1776 30.9612 28.2016 30.9215 28.2171C30.8819 28.2327 30.8393 28.2395 30.7968 28.2371V28.2371ZM24.8555 18.956L30.0008 21.4671C30.0415 21.4881 30.0769 21.5183 30.1039 21.5553C30.131 21.5924 30.1491 21.6352 30.1567 21.6804L30.9773 27.3426L34.9573 23.2396C34.9899 23.2063 35.03 23.1815 35.0743 23.1672C35.1187 23.1529 35.1658 23.1496 35.2117 23.1575L40.8739 24.1012L38.1987 19.0462C38.1785 19.0054 38.1679 18.9605 38.1679 18.9149C38.1679 18.8694 38.1785 18.8245 38.1987 18.7836L40.8739 13.704L35.1953 14.6806C35.1513 14.6896 35.1058 14.6876 35.0628 14.6747C35.0199 14.6618 34.9808 14.6385 34.9491 14.6067L30.9445 10.5037L30.1239 16.1659C30.1162 16.2111 30.0982 16.2539 30.0711 16.291C30.044 16.328 30.0087 16.3582 29.968 16.3792L24.8555 18.956Z" fill="#D1D3D4"/>
<path d="M190.226 23.5435H193.36C194.115 23.5435 194.493 23.6994 194.493 24.0276C194.265 24.7656 193.903 25.4554 193.426 26.0627C192.917 27.0365 192.318 28.2374 191.629 29.6652C192.794 29.6078 193.754 29.5832 194.493 29.5832C194.548 29.5874 194.599 29.6128 194.636 29.6542C194.673 29.6955 194.692 29.7495 194.69 29.8047V29.8047C194.69 30.2233 194.55 30.4366 194.394 30.4366C192.606 30.4858 191.473 30.5105 190.989 30.5105C190.505 30.5105 190.168 30.3956 189.996 30.1658V30.0427C189.996 29.9771 190.316 29.2221 190.956 27.786C191.826 26.1448 192.439 25.0124 192.794 24.3887H190.628C190.119 24.3887 189.856 24.2984 189.856 24.1261V24.0851C189.878 23.724 190.001 23.5435 190.226 23.5435Z" fill="black"/>
<path d="M203.643 11.2588H208.805C210.052 11.2588 210.676 11.5296 210.676 12.0794C210.676 12.6292 210.085 13.6304 208.912 15.4357C208.091 17.0769 207.082 19.0218 205.949 21.3688C207.878 21.2785 209.453 21.2292 210.676 21.2292C210.767 21.2376 210.852 21.2804 210.913 21.3489C210.974 21.4175 211.007 21.5068 211.004 21.5985C210.938 22.296 210.774 22.6407 210.512 22.6407C207.558 22.731 205.695 22.772 204.907 22.772C204.119 22.772 203.487 22.5833 203.266 22.2058V22.0006C203.266 21.8857 203.796 20.6466 204.858 18.2832C206.286 15.5342 207.32 13.6632 207.878 12.6867H204.308C203.487 12.6867 203.044 12.5389 203.044 12.2517V12.2189C203.036 11.5706 203.241 11.2588 203.643 11.2588Z" fill="black"/>
<path d="M217.905 4.25903H226.456C228.524 4.25903 229.549 4.70217 229.549 5.59663C229.549 6.31057 228.581 8.15695 226.644 11.1522C225.244 13.8219 223.603 17.1044 221.721 20.9996C224.932 20.8518 227.542 20.778 229.549 20.778C229.703 20.7885 229.847 20.8588 229.95 20.9738C230.052 21.0888 230.106 21.2394 230.099 21.3935V21.4509C229.993 22.5998 229.722 23.1742 229.279 23.1742C224.393 23.3219 221.299 23.3957 219.997 23.3957C218.553 23.3957 217.642 23.0757 217.265 22.452V22.0664C217.265 21.8694 218.143 19.8179 219.907 15.8953C222.271 11.3382 223.939 8.24448 224.913 6.61419H218.996C217.601 6.61419 216.896 6.37622 216.896 5.89206V5.8182C216.896 4.77602 217.232 4.25903 217.905 4.25903Z" fill="black"/>
<path d="M43.6072 68.1517C45.5334 68.1517 47.0948 66.5903 47.0948 64.6641C47.0948 62.738 45.5334 61.1765 43.6072 61.1765C41.6811 61.1765 40.1196 62.738 40.1196 64.6641C40.1196 66.5903 41.6811 68.1517 43.6072 68.1517Z" fill="white"/>
<path d="M43.6068 68.431C42.8595 68.4326 42.1285 68.2124 41.5065 67.7982C40.8845 67.3841 40.3994 66.7946 40.1126 66.1045C39.8259 65.4144 39.7505 64.6548 39.8959 63.9218C40.0413 63.1888 40.4009 62.5154 40.9294 61.987C41.4578 61.4586 42.1311 61.0989 42.8641 60.9535C43.5971 60.8081 44.3568 60.8835 45.0469 61.1703C45.737 61.457 46.3265 61.9421 46.7406 62.5641C47.1548 63.1861 47.375 63.9171 47.3734 64.6644C47.3712 65.6627 46.9737 66.6195 46.2678 67.3254C45.5618 68.0313 44.6051 68.4288 43.6068 68.431ZM43.6068 61.4558C42.9718 61.4541 42.3506 61.6409 41.8219 61.9925C41.2932 62.3441 40.8807 62.8446 40.6365 63.4308C40.3924 64.017 40.3277 64.6623 40.4506 65.2853C40.5735 65.9082 40.8784 66.4807 41.3268 66.9303C41.7752 67.3798 42.3469 67.6862 42.9696 67.8107C43.5922 67.9352 44.2377 67.8721 44.8245 67.6295C45.4113 67.3869 45.9129 66.9757 46.2658 66.4478C46.6188 65.92 46.8071 65.2993 46.8071 64.6644C46.8071 63.8148 46.4702 62.9999 45.8703 62.3984C45.2703 61.797 44.4563 61.4579 43.6068 61.4558V61.4558Z" fill="#D1D3D4"/>
<path d="M183.037 154.891C184.47 154.891 185.631 153.73 185.631 152.298C185.631 150.866 184.47 149.705 183.037 149.705C181.605 149.705 180.444 150.866 180.444 152.298C180.444 153.73 181.605 154.891 183.037 154.891Z" fill="white"/>
<path d="M183.037 155.178C182.467 155.18 181.909 155.012 181.435 154.696C180.96 154.381 180.589 153.932 180.37 153.406C180.151 152.879 180.093 152.3 180.203 151.741C180.313 151.181 180.587 150.667 180.989 150.264C181.392 149.86 181.905 149.585 182.464 149.473C183.023 149.361 183.602 149.418 184.129 149.636C184.656 149.853 185.106 150.223 185.423 150.696C185.74 151.17 185.909 151.728 185.909 152.298C185.909 153.06 185.607 153.791 185.068 154.331C184.53 154.871 183.799 155.176 183.037 155.178V155.178ZM183.037 149.992C182.579 149.99 182.13 150.125 181.748 150.378C181.366 150.632 181.069 150.993 180.892 151.416C180.716 151.84 180.67 152.306 180.759 152.755C180.848 153.205 181.068 153.618 181.392 153.942C181.717 154.266 182.13 154.487 182.579 154.576C183.029 154.665 183.495 154.618 183.918 154.442C184.341 154.266 184.703 153.968 184.956 153.586C185.21 153.205 185.345 152.756 185.343 152.298C185.341 151.687 185.097 151.101 184.665 150.669C184.233 150.237 183.648 149.994 183.037 149.992V149.992Z" fill="#D1D3D4"/>
<path d="M43.607 161.004C49.8477 161.004 54.9068 155.945 54.9068 149.705C54.9068 143.464 49.8477 138.405 43.607 138.405C37.3662 138.405 32.3071 143.464 32.3071 149.705C32.3071 155.945 37.3662 161.004 43.607 161.004Z" fill="white"/>
<path d="M43.607 161.292C41.3149 161.293 39.0739 160.615 37.1673 159.343C35.2608 158.071 33.7744 156.261 32.8961 154.144C32.0178 152.027 31.7872 149.697 32.2334 147.449C32.6795 145.201 33.7824 143.135 35.4026 141.514C37.0227 139.893 39.0874 138.788 41.3352 138.341C43.5831 137.893 45.9133 138.122 48.0311 138.999C50.1488 139.875 51.9589 141.361 53.2325 143.266C54.5061 145.172 55.1859 147.412 55.1859 149.704C55.1837 152.775 53.9633 155.72 51.7926 157.893C49.6218 160.065 46.678 161.287 43.607 161.292V161.292ZM43.607 138.692C41.4266 138.69 39.2947 139.335 37.4811 140.546C35.6674 141.756 34.2536 143.477 33.4184 145.491C32.5833 147.506 32.3643 149.722 32.7893 151.861C33.2143 153.999 34.2641 155.964 35.8059 157.506C37.3477 159.047 39.3121 160.097 41.4507 160.522C43.5893 160.947 45.8059 160.728 47.8201 159.893C49.8342 159.058 51.5553 157.644 52.7657 155.83C53.9761 154.017 54.6213 151.885 54.6196 149.704C54.6153 146.785 53.4536 143.987 51.3893 141.922C49.325 139.858 46.5264 138.696 43.607 138.692V138.692Z" fill="#D1D3D4"/>
<path d="M216.814 90.4972C217.857 90.4972 218.702 89.6522 218.702 88.6098C218.702 87.5674 217.857 86.7224 216.814 86.7224C215.772 86.7224 214.927 87.5674 214.927 88.6098C214.927 89.6522 215.772 90.4972 216.814 90.4972Z" fill="white"/>
<path d="M216.814 90.7843C216.384 90.7843 215.963 90.6568 215.606 90.4178C215.248 90.1789 214.969 89.8392 214.805 89.4419C214.64 89.0445 214.597 88.6073 214.681 88.1854C214.765 87.7636 214.972 87.3761 215.276 87.072C215.58 86.7679 215.968 86.5608 216.39 86.4768C216.811 86.3929 217.249 86.436 217.646 86.6006C218.043 86.7652 218.383 87.0439 218.622 87.4015C218.861 87.7591 218.988 88.1796 218.988 88.6097C218.988 89.1864 218.759 89.7396 218.351 90.1474C217.944 90.5552 217.391 90.7843 216.814 90.7843V90.7843ZM216.814 87.0095C216.489 87.0095 216.172 87.1057 215.902 87.2861C215.632 87.4664 215.422 87.7227 215.297 88.0226C215.173 88.3225 215.141 88.6525 215.204 88.9709C215.267 89.2893 215.424 89.5817 215.653 89.8112C215.883 90.0408 216.175 90.1971 216.494 90.2604C216.812 90.3237 217.142 90.2912 217.442 90.167C217.742 90.0428 217.998 89.8324 218.178 89.5625C218.359 89.2926 218.455 88.9753 218.455 88.6507C218.455 88.4352 218.413 88.2218 218.33 88.0226C218.248 87.8235 218.127 87.6426 217.974 87.4902C217.822 87.3378 217.641 87.2169 217.442 87.1344C217.243 87.0519 217.029 87.0095 216.814 87.0095V87.0095Z" fill="#D1D3D4"/>
<path d="M168.225 164.656C169.231 164.656 170.047 163.84 170.047 162.834C170.047 161.828 169.231 161.012 168.225 161.012C167.219 161.012 166.403 161.828 166.403 162.834C166.403 163.84 167.219 164.656 168.225 164.656Z" fill="white"/>
<path d="M168.226 164.853C167.824 164.853 167.432 164.734 167.099 164.511C166.765 164.288 166.505 163.971 166.352 163.6C166.199 163.229 166.159 162.821 166.238 162.428C166.317 162.034 166.511 161.673 166.795 161.39C167.08 161.107 167.442 160.915 167.835 160.837C168.229 160.76 168.637 160.801 169.007 160.956C169.377 161.111 169.693 161.372 169.915 161.706C170.137 162.041 170.254 162.433 170.253 162.834C170.25 163.371 170.036 163.884 169.656 164.262C169.276 164.641 168.762 164.853 168.226 164.853ZM168.226 161.21C167.901 161.21 167.584 161.306 167.314 161.486C167.044 161.667 166.834 161.923 166.709 162.223C166.585 162.523 166.553 162.853 166.616 163.171C166.679 163.489 166.836 163.782 167.065 164.011C167.295 164.241 167.587 164.397 167.905 164.461C168.224 164.524 168.554 164.491 168.854 164.367C169.154 164.243 169.41 164.033 169.59 163.763C169.771 163.493 169.867 163.175 169.867 162.851C169.867 162.416 169.694 161.998 169.386 161.69C169.078 161.383 168.661 161.21 168.226 161.21Z" fill="#D1D3D4"/>
<path d="M204.447 152.667C204.349 152.667 204.255 152.628 204.186 152.559C204.117 152.49 204.078 152.396 204.078 152.298V149.705C204.078 149.607 204.117 149.513 204.186 149.444C204.255 149.374 204.349 149.335 204.447 149.335C204.546 149.335 204.64 149.374 204.711 149.443C204.782 149.512 204.822 149.606 204.824 149.705V152.298C204.822 152.397 204.782 152.49 204.711 152.56C204.64 152.629 204.546 152.667 204.447 152.667Z" fill="#D1D3D4"/>
<path d="M204.447 157.853C204.349 157.853 204.255 157.814 204.186 157.745C204.117 157.676 204.078 157.582 204.078 157.484V154.891C204.078 154.793 204.117 154.699 204.186 154.63C204.255 154.56 204.349 154.521 204.447 154.521C204.546 154.521 204.64 154.56 204.711 154.629C204.782 154.698 204.822 154.792 204.824 154.891V157.467C204.825 157.518 204.817 157.568 204.798 157.614C204.78 157.661 204.752 157.704 204.717 157.74C204.682 157.776 204.64 157.804 204.593 157.824C204.547 157.843 204.497 157.853 204.447 157.853V157.853Z" fill="#D1D3D4"/>
<path d="M208.337 153.964H205.744C205.646 153.964 205.552 153.925 205.483 153.855C205.413 153.786 205.375 153.692 205.375 153.594C205.375 153.496 205.413 153.403 205.483 153.333C205.552 153.264 205.646 153.225 205.744 153.225H208.337C208.435 153.225 208.529 153.264 208.598 153.333C208.667 153.403 208.706 153.496 208.706 153.594C208.706 153.692 208.667 153.786 208.598 153.855C208.529 153.925 208.435 153.964 208.337 153.964V153.964Z" fill="#D1D3D4"/>
<path d="M203.151 153.964H200.566C200.468 153.964 200.374 153.925 200.304 153.855C200.235 153.786 200.196 153.692 200.196 153.594C200.196 153.496 200.235 153.403 200.304 153.333C200.374 153.264 200.468 153.225 200.566 153.225H203.151C203.248 153.225 203.342 153.264 203.412 153.333C203.481 153.403 203.52 153.496 203.52 153.594C203.52 153.692 203.481 153.786 203.412 153.855C203.342 153.925 203.248 153.964 203.151 153.964V153.964Z" fill="#D1D3D4"/>
<path d="M67.6754 156.557C67.5775 156.557 67.4836 156.518 67.4143 156.449C67.345 156.379 67.3062 156.285 67.3062 156.188V153.594C67.3062 153.496 67.345 153.403 67.4143 153.333C67.4836 153.264 67.5775 153.225 67.6754 153.225C67.7734 153.225 67.8673 153.264 67.9365 153.333C68.0058 153.403 68.0447 153.496 68.0447 153.594V156.188C68.0447 156.236 68.0351 156.284 68.0166 156.329C67.998 156.374 67.9708 156.414 67.9365 156.449C67.9022 156.483 67.8615 156.51 67.8167 156.529C67.7719 156.547 67.7239 156.557 67.6754 156.557Z" fill="#D1D3D4"/>
<path d="M67.6754 161.743C67.5775 161.743 67.4836 161.704 67.4143 161.635C67.345 161.566 67.3062 161.472 67.3062 161.374V158.781C67.3062 158.683 67.345 158.589 67.4143 158.52C67.4836 158.45 67.5775 158.411 67.6754 158.411C67.7734 158.411 67.8673 158.45 67.9365 158.52C68.0058 158.589 68.0447 158.683 68.0447 158.781V161.374C68.0447 161.422 68.0351 161.47 68.0166 161.515C67.998 161.56 67.9708 161.601 67.9365 161.635C67.9022 161.669 67.8615 161.696 67.8167 161.715C67.7719 161.734 67.7239 161.743 67.6754 161.743Z" fill="#D1D3D4"/>
<path d="M71.5654 157.853H68.9723C68.8744 157.853 68.7804 157.814 68.7112 157.745C68.6419 157.676 68.603 157.582 68.603 157.484C68.603 157.386 68.6419 157.292 68.7112 157.223C68.7804 157.154 68.8744 157.115 68.9723 157.115H71.5654C71.6634 157.115 71.7573 157.154 71.8266 157.223C71.8958 157.292 71.9347 157.386 71.9347 157.484C71.9347 157.582 71.8958 157.676 71.8266 157.745C71.7573 157.814 71.6634 157.853 71.5654 157.853V157.853Z" fill="#D1D3D4"/>
<path d="M66.3784 157.853H63.7853C63.6874 157.853 63.5934 157.814 63.5242 157.745C63.4549 157.676 63.416 157.582 63.416 157.484C63.416 157.386 63.4549 157.292 63.5242 157.223C63.5934 157.154 63.6874 157.115 63.7853 157.115H66.3784C66.4764 157.115 66.5703 157.154 66.6395 157.223C66.7088 157.292 66.7477 157.386 66.7477 157.484C66.7477 157.582 66.7088 157.676 66.6395 157.745C66.5703 157.814 66.4764 157.853 66.3784 157.853V157.853Z" fill="#D1D3D4"/>
<path d="M68.9723 3.33169C68.8744 3.33169 68.7804 3.29278 68.7112 3.22353C68.6419 3.15428 68.603 3.06035 68.603 2.96242V0.369277C68.603 0.271339 68.6419 0.177411 68.7112 0.108158C68.7804 0.0389055 68.8744 0 68.9723 0C69.0703 0 69.1642 0.0389055 69.2334 0.108158C69.3027 0.177411 69.3416 0.271339 69.3416 0.369277V2.96242C69.3416 3.06035 69.3027 3.15428 69.2334 3.22353C69.1642 3.29278 69.0703 3.33169 68.9723 3.33169Z" fill="#D1D3D4"/>
<path d="M68.9723 8.51797C68.8744 8.51797 68.7804 8.47906 68.7112 8.40981C68.6419 8.34056 68.603 8.24663 68.603 8.1487V5.55556C68.603 5.45762 68.6419 5.36369 68.7112 5.29444C68.7804 5.22518 68.8744 5.18628 68.9723 5.18628C69.0703 5.18628 69.1642 5.22518 69.2334 5.29444C69.3027 5.36369 69.3416 5.45762 69.3416 5.55556V8.11587C69.3462 8.16705 69.34 8.21862 69.3235 8.26728C69.307 8.31595 69.2805 8.36063 69.2458 8.39848C69.211 8.43633 69.1687 8.4665 69.1216 8.48708C69.0745 8.50765 69.0237 8.51818 68.9723 8.51797Z" fill="#D1D3D4"/>
<path d="M72.8784 4.6282H70.2853C70.1874 4.6282 70.0934 4.5893 70.0242 4.52004C69.9549 4.45079 69.916 4.35686 69.916 4.25893C69.916 4.16099 69.9549 4.06706 70.0242 3.99781C70.0934 3.92855 70.1874 3.88965 70.2853 3.88965H72.8784C72.9764 3.88965 73.0703 3.92855 73.1395 3.99781C73.2088 4.06706 73.2477 4.16099 73.2477 4.25893C73.2477 4.35686 73.2088 4.45079 73.1395 4.52004C73.0703 4.5893 72.9764 4.6282 72.8784 4.6282V4.6282Z" fill="#D1D3D4"/>
<path d="M67.6758 4.6282H65.0827C64.9847 4.6282 64.8908 4.5893 64.8215 4.52004C64.7523 4.45079 64.7134 4.35686 64.7134 4.25893C64.7134 4.16099 64.7523 4.06706 64.8215 3.99781C64.8908 3.92855 64.9847 3.88965 65.0827 3.88965H67.6758C67.7737 3.88965 67.8677 3.92855 67.9369 3.99781C68.0062 4.06706 68.0451 4.16099 68.0451 4.25893C68.0451 4.35686 68.0062 4.45079 67.9369 4.52004C67.8677 4.5893 67.7737 4.6282 67.6758 4.6282V4.6282Z" fill="#D1D3D4"/>
<path d="M16.6173 87.7155C16.5194 87.7155 16.4255 87.6766 16.3562 87.6073C16.287 87.5381 16.248 87.4441 16.248 87.3462V84.7531C16.248 84.6551 16.287 84.5612 16.3562 84.492C16.4255 84.4227 16.5194 84.3838 16.6173 84.3838C16.7153 84.3838 16.8092 84.4227 16.8784 84.492C16.9477 84.5612 16.9866 84.6551 16.9866 84.7531V87.3462C16.9866 87.4441 16.9477 87.5381 16.8784 87.6073C16.8092 87.6766 16.7153 87.7155 16.6173 87.7155V87.7155Z" fill="#D1D3D4"/>
<path d="M16.6173 92.8688C16.5194 92.8688 16.4255 92.8299 16.3562 92.7606C16.287 92.6914 16.248 92.5975 16.248 92.4995V89.9064C16.248 89.8084 16.287 89.7145 16.3562 89.6453C16.4255 89.576 16.5194 89.5371 16.6173 89.5371C16.7153 89.5371 16.8092 89.576 16.8784 89.6453C16.9477 89.7145 16.9866 89.8084 16.9866 89.9064V92.4995C16.9866 92.5975 16.9477 92.6914 16.8784 92.7606C16.8092 92.8299 16.7153 92.8688 16.6173 92.8688V92.8688Z" fill="#D1D3D4"/>
<path d="M20.498 88.9875H17.8967C17.8072 88.9742 17.7254 88.9291 17.6663 88.8606C17.6072 88.7921 17.5747 88.7046 17.5747 88.6141C17.5747 88.5236 17.6072 88.4361 17.6663 88.3676C17.7254 88.2991 17.8072 88.254 17.8967 88.2407H20.4816C20.5711 88.254 20.6529 88.2991 20.712 88.3676C20.7711 88.4361 20.8036 88.5236 20.8036 88.6141C20.8036 88.7046 20.7711 88.7921 20.712 88.8606C20.6529 88.9291 20.5711 88.9742 20.4816 88.9875H20.498Z" fill="#D1D3D4"/>
<path d="M15.3204 88.9875H12.7273C12.6377 88.9742 12.556 88.9291 12.4969 88.8606C12.4378 88.7921 12.4053 88.7046 12.4053 88.6141C12.4053 88.5236 12.4378 88.4361 12.4969 88.3676C12.556 88.2991 12.6377 88.254 12.7273 88.2407H15.3204C15.4099 88.254 15.4917 88.2991 15.5508 88.3676C15.6099 88.4361 15.6424 88.5236 15.6424 88.6141C15.6424 88.7046 15.6099 88.7921 15.5508 88.8606C15.4917 88.9291 15.4099 88.9742 15.3204 88.9875Z" fill="#D1D3D4"/>
<path d="M43.607 106.319C43.5083 106.319 43.4135 106.28 43.3429 106.211C43.2724 106.142 43.2316 106.048 43.2295 105.95V99.3354C43.2428 99.2459 43.2878 99.1641 43.3564 99.105C43.4249 99.0459 43.5124 99.0134 43.6029 99.0134C43.6934 99.0134 43.7809 99.0459 43.8494 99.105C43.9179 99.1641 43.9629 99.2459 43.9762 99.3354V105.95C43.9762 106.047 43.9373 106.141 43.8681 106.211C43.7988 106.28 43.7049 106.319 43.607 106.319Z" fill="#D1D3D4"/>
<path d="M46.9054 103.012H40.3405C40.2425 103.012 40.1486 102.973 40.0793 102.904C40.0101 102.834 39.9712 102.74 39.9712 102.642C39.9712 102.545 40.0101 102.451 40.0793 102.381C40.1486 102.312 40.2425 102.273 40.3405 102.273H46.9054C47.0033 102.273 47.0972 102.312 47.1665 102.381C47.2357 102.451 47.2747 102.545 47.2747 102.642C47.2747 102.74 47.2357 102.834 47.1665 102.904C47.0972 102.973 47.0033 103.012 46.9054 103.012V103.012Z" fill="#D1D3D4"/>
<path d="M62.8913 30.4367C62.8428 30.4367 62.7947 30.4271 62.7499 30.4086C62.7051 30.39 62.6644 30.3628 62.6301 30.3285C62.5958 30.2942 62.5686 30.2535 62.5501 30.2087C62.5315 30.1639 62.522 30.1159 62.522 30.0674V23.4533C62.522 23.3553 62.5609 23.2614 62.6301 23.1921C62.6994 23.1229 62.7933 23.084 62.8913 23.084C62.9892 23.084 63.0831 23.1229 63.1524 23.1921C63.2216 23.2614 63.2605 23.3553 63.2605 23.4533V30.0674C63.2605 30.1653 63.2216 30.2593 63.1524 30.3285C63.0831 30.3978 62.9892 30.4367 62.8913 30.4367V30.4367Z" fill="#D1D3D4"/>
<path d="M66.1983 27.1294H59.5841C59.4862 27.1294 59.3923 27.0905 59.323 27.0213C59.2538 26.952 59.2148 26.8581 59.2148 26.7601C59.2148 26.6622 59.2538 26.5683 59.323 26.499C59.3923 26.4298 59.4862 26.3909 59.5841 26.3909H66.1983C66.2962 26.3909 66.3901 26.4298 66.4594 26.499C66.5286 26.5683 66.5675 26.6622 66.5675 26.7601C66.5675 26.8581 66.5286 26.952 66.4594 27.0213C66.3901 27.0905 66.2962 27.1294 66.1983 27.1294V27.1294Z" fill="#D1D3D4"/>
<path d="M205.744 127.581C205.646 127.581 205.552 127.542 205.483 127.473C205.413 127.403 205.375 127.309 205.375 127.212V120.647C205.375 120.549 205.413 120.455 205.483 120.386C205.552 120.316 205.646 120.277 205.744 120.277C205.842 120.277 205.936 120.316 206.005 120.386C206.074 120.455 206.113 120.549 206.113 120.647V127.212C206.113 127.309 206.074 127.403 206.005 127.473C205.936 127.542 205.842 127.581 205.744 127.581Z" fill="#D1D3D4"/>
<path d="M209.051 124.282H202.445C202.391 124.29 202.336 124.286 202.284 124.271C202.232 124.256 202.184 124.23 202.143 124.194C202.102 124.159 202.069 124.115 202.046 124.066C202.023 124.016 202.012 123.963 202.012 123.908C202.012 123.854 202.023 123.801 202.046 123.751C202.069 123.702 202.102 123.658 202.143 123.623C202.184 123.587 202.232 123.561 202.284 123.546C202.336 123.531 202.391 123.527 202.445 123.535H209.051C209.14 123.548 209.222 123.593 209.281 123.662C209.34 123.731 209.373 123.818 209.373 123.908C209.373 123.999 209.34 124.086 209.281 124.155C209.222 124.224 209.14 124.269 209.051 124.282V124.282Z" fill="#D1D3D4"/>
<path d="M215.87 124.733C216.392 124.733 216.814 124.311 216.814 123.79C216.814 123.268 216.392 122.846 215.87 122.846C215.349 122.846 214.927 123.268 214.927 123.79C214.927 124.311 215.349 124.733 215.87 124.733Z" fill="#D1D3D4"/>
<path d="M86.4427 172.37C86.9639 172.37 87.3864 171.947 87.3864 171.426C87.3864 170.905 86.9639 170.482 86.4427 170.482C85.9215 170.482 85.499 170.905 85.499 171.426C85.499 171.947 85.9215 172.37 86.4427 172.37Z" fill="#D1D3D4"/>
</g>
<defs>
<clipPath id="clip0">
<rect width="250" height="250" fill="white"/>
</clipPath>
</defs>
</svg>
