<svg width="257" height="259" viewBox="0 0 257 259" fill="none" xmlns="http://www.w3.org/2000/svg">
<path fill-rule="evenodd" clip-rule="evenodd" d="M0 30.75V61.5H30.75H61.5V30.75V0H30.75H0V30.75ZM88.8945 4.375L88.75 8.75L79.875 8.8865L71 9.023V12.992V16.961L75.375 17.1055L79.75 17.25L79.8945 21.625L80.039 26H88.7695H97.5V30.4805V34.961L101.875 35.1055L106.25 35.25L106.383 48.375L106.516 61.5H110.758H115V57.25V53H119.25H123.5V48.75V44.5H119.231H114.962L115.106 39.875L115.25 35.25H119.75H124.25L124.395 39.625L124.539 44H128.5H132.461L132.605 39.625L132.75 35.25L137.125 35.1055L141.5 34.961V30.7305V26.5H137H132.5V22.0095C132.5 16.7705 132.41 16.8475 138.26 17.0995L141.75 17.25L141.895 21.625L142.039 26H146.25H150.461L150.605 21.625L150.75 17.25L159.184 17.1125C169.329 16.9475 169 16.782 169 22.061V26H172.98H176.961L177.105 21.625L177.25 17.25L181.625 17.1055L186 16.961V12.9805V9H181.5H177V4.5V0H159.5H142V4.5V9H133.25H124.5V13.25V17.5H120H115.5V22V26.5H110.77H106.039L105.895 22.125L105.75 17.75L101.356 17.6055L96.9615 17.4605L97.106 13.1055L97.25 8.75L101.5 8.5L105.75 8.25L105.895 4.125L106.04 0H97.5395H89.039L88.8945 4.375ZM115.5 4.25V8.5H119.5H123.5V4.25V0H119.5H115.5V4.25ZM195.5 30.75V61.5H226.25H257V30.75V0H226.25H195.5V30.75ZM53 31.005V53.5105L30.625 53.38L8.25 53.25L8.1195 31.5C8.048 19.5375 8.097 9.469 8.229 9.125C8.4155 8.638 13.383 8.5 30.7345 8.5H53V31.005ZM248.75 31V53.25L226.375 53.38L204 53.5105V31V8.4895L226.375 8.62L248.75 8.75V31ZM17.8465 17.82C17.656 18.0105 17.5 23.979 17.5 31.0835V44H30.5H43.5V30.7805V17.5615L30.8465 17.5175C23.8875 17.493 18.0375 17.6295 17.8465 17.82ZM213.5 30.8015V44H226.509H239.517L239.384 30.875L239.25 17.75L226.375 17.6765L213.5 17.603V30.8015ZM71 39.75V44H75.5H80V48.5V53H84.5H89V57.25V61.5H93H97V53V44.5H92.5H88V40V35.5H79.5H71V39.75ZM151 39.7305V43.961L155.375 44.1055L159.75 44.25L159.887 53.375L160.023 62.5H155.262H150.5V58V53.5H146.25H142V62V70.5H146.5H151V88.75V107H146.5H142V111.5V116H137.75H133.5V120.25V124.5H129H124.5V129V133.5H120H115.5V137.75V142H120H124.5V150.75V159.5H133H141.5V155.25V151H146.25H151V155.25V159.5H155.25H159.5V150.75V142H164.25H169V146.5V151H173.25H177.5V155.25V159.5H182.012H186.523L186.387 168.625L186.25 177.75L182 178L177.75 178.25L177.5 182.5L177.25 186.75L173.125 186.895L169 187.04V195.77V204.5H173.25H177.5V213.25V222H191H204.5V235.447C204.5 250.86 205.014 249.5 199.189 249.5H195.46L195.605 253.625L195.75 257.75L204.125 257.887L212.5 258.024V253.512V249H217H221.5V244.5V240H226H230.5V235.75V231.5H226H221.5V222.25V213H226H230.5V204.5V196H226H221.5V186.75V177.5H226H230.5V173.52V169.539L226.125 169.395L221.75 169.25L221.605 164.875L221.461 160.5H212.98H204.5V164.4C204.5 169.335 204.327 169.5 199.15 169.5H195V164.5V159.5H199.512H204.024L203.887 151.125L203.75 142.75L194.875 142.613L186 142.477V137.988V133.5H172.77H159.539L159.395 129.125L159.25 124.75L154.875 124.605L150.5 124.461V119.73V115H168.5H186.5V119.5V124H195.25H204V115.5V107H199.5H195V102.231V97.4625L199.625 97.606L204.25 97.75L204.395 101.875L204.54 106H213.02H221.5V97.5V89H212.77H204.039L203.895 84.625L203.75 80.25L199.625 80.105L195.5 79.9595V84.48V89H190.75H186V79.98V70.9595L181.875 71.105L177.75 71.25L177.618 89.1435L177.488 107.038L172.868 106.893L168.25 106.75L168.113 97.875L167.977 89H163.738H159.5V84.25V79.5H163.75H168V66.25V53H172.75H177.5V57.25V61.5H181.75H186V53V44.5H181.5H177V40V35.5H164H151V39.7305ZM71 57.5V61.5H75.25H79.5V57.5V53.5H75.25H71V57.5ZM124.395 57.875L124.25 62.25L119.875 62.3945L115.5 62.539V66.5V70.461L119.875 70.6055L124.25 70.75L124.387 79.625L124.523 88.5H133.012H141.5V79.75V71H137H132.5V62.25V53.5H128.52H124.539L124.395 57.875ZM80 66.5V70.5H84H88V66.5V62.5H84H80V66.5ZM97.5 66.5V70.5H101.75H106V66.5V62.5H101.75H97.5V66.5ZM0 84.25V97.5H4.25H8.5V101.75V106H12.75H17V97.5V89H12.5H8V80V71H4H0V84.25ZM17.8525 71.314C17.6585 71.508 17.5 73.429 17.5 75.5835V79.5H21.77H26.0405L25.895 75.375L25.75 71.25L21.9775 71.106C19.9025 71.0265 18.0465 71.1205 17.8525 71.314ZM35.5 75.5V80H31H26.5V84.25V88.5H39.5H52.5V84.2695V80.039L48.125 79.8945L43.75 79.75L43.6055 75.375L43.461 71H39.4805H35.5V75.5ZM53.3525 71.314C53.1585 71.508 53 73.429 53 75.5835V79.5H57.27H61.5405L61.395 75.375L61.25 71.25L57.4775 71.106C55.4025 71.0265 53.5465 71.1205 53.3525 71.314ZM106.852 71.314C106.658 71.508 106.5 73.5415 106.5 75.8335V80H97.75H89V88.75V97.5H92.9805H96.961L97.1055 93.125L97.25 88.75L106 88.5L114.75 88.25V79.75V71.25L110.977 71.106C108.902 71.0265 107.046 71.1205 106.852 71.314ZM213.5 75.25V79.5H217.5H221.5V75.25V71H217.5H213.5V75.25ZM240.353 71.314C240.159 71.508 240 73.429 240 75.5835V79.5H244.27H248.54L248.395 75.375L248.25 71.25L244.478 71.106C242.403 71.0265 240.547 71.1205 240.353 71.314ZM62 84.25V88.5405L66.125 88.395L70.25 88.25V84.25V80.25L66.125 80.105L62 79.9595V84.25ZM222.21 80.6745C222.068 81.0455 222.018 82.902 222.1 84.7995L222.25 88.25L226.375 88.395L230.5 88.5405V84.27V80H226.484C223.575 80 222.398 80.186 222.21 80.6745ZM249 84.5V89H240H231V93.2305V97.461L235.375 97.6055L239.75 97.75L239.887 106.375L240.023 115H244.253C249.192 115 249.151 114.949 248.901 120.76L248.75 124.25L244.5 124.5L240.25 124.75V137.75V150.75L244.5 151L248.75 151.25L248.897 155.173C249.089 160.285 248.888 160.5 243.939 160.5H240V169V177.5H244.25H248.5V173V168.5H252.75H257V155.5V142.5H252.792C247.947 142.5 248.201 142.804 248.411 137.262L248.573 133H252.786H257V120V107H252.75H248.5V102.25V97.5H252.75H257V88.75V80H253H249V84.5ZM53.2095 89.6745C53.0675 90.0455 53.018 91.902 53.1005 93.7995L53.25 97.25L57.375 97.395L61.5 97.5405V93.27V89H57.4845C54.5755 89 53.3975 89.186 53.2095 89.6745ZM71 93.25V97.5405L75.125 97.395L79.25 97.25V93.25V89.25L75.125 89.105L71 88.9595V93.25ZM115.5 93.25V97.5H119.5H123.5V93.25V89H119.5H115.5V93.25ZM26.5 101.988V105.977L35.375 106.113L44.25 106.25V111V115.75L35.375 115.887L26.5 116.023V120.012V124H35.5H44.5V128.5V133H57.52H70.5405L70.395 128.875L70.25 124.75L61.3565 124.613L52.463 124.477L52.6065 119.863L52.75 115.25L61.625 115.113L70.5 114.977V110.988V107H61.5H52.5V102.5V98H39.5H26.5V101.988ZM80 107V116H75.5H71V120V124H80H89V133V142H93H97V137.5V133H106.02H115.04L114.895 128.875L114.75 124.75L110.375 124.605L106 124.461V119.73V115H110.5H115V106.5V98H106.25H97.5V107.019V116.038L92.875 115.894L88.25 115.75L88.1135 106.875L87.977 98H83.9885H80V107ZM133.5 102V106H137.5H141.5V102V98H137.5H133.5V102ZM0 111V115H4H8V111V107H4H0V111ZM222 120.25V133.5H217.25H212.5V129V124.5H208.5H204.5V133.25V142H213.25H222V150.75V159.5H230.75H239.5V155.5V151.5H235H230.5V129.25V107H226.25H222V120.25ZM8.6165 128.875L8.75 141.75L17.6055 141.887L26.4615 142.023L26.6055 146.387L26.75 150.75H30.75H34.75L34.8945 146.375L35.039 142H39.2695H43.5V137.762V133.523L34.875 133.387L26.25 133.25L26 129L25.75 124.75L21.5 124.5L17.25 124.25L17.105 120.125L16.9595 116H12.7215H8.483L8.6165 128.875ZM115.5 120V124H119.5H123.5V120V116H119.5H115.5V120ZM142 137.75V142.5H137.25H132.5V137.75V133H137.25H142V137.75ZM71 137.75V142.04L75.125 141.895L79.25 141.75V137.75V133.75L75.125 133.605L71 133.46V137.75ZM0 151V159.5H4H8V151V142.5H4H0V151ZM53.2095 143.174C53.0675 143.545 53.018 145.402 53.1005 147.299L53.25 150.75H61.75H70.25L70.395 146.625L70.5405 142.5H62.0045C55.3025 142.5 53.413 142.645 53.2095 143.174ZM80 146.75V151H84H88V146.75V142.5H84H80V146.75ZM97.605 146.625L97.75 150.75H101.75H105.75L105.895 146.625L106.04 142.5H101.75H97.4595L97.605 146.625ZM44.5 160V168.5H53.25H62V173V177.5H66.25H70.5V169.012V160.523L61.625 160.387L52.75 160.25L52.6055 155.875L52.461 151.5H48.4805H44.5V160ZM88.8945 155.875L88.75 160.25L84.375 160.395L80 160.539V169.02V177.5H83.9805H87.961L88.1055 173.125L88.25 168.75L92.875 168.606L97.5 168.462V172.981V177.5H102H106.5V182V186.5H110.75H115V177.5V168.5H119.25H123.5V164.5V160.5H119.25H115V156V151.5H110.75H106.5V156.019V160.538L101.875 160.394L97.25 160.25L97.1055 155.875L96.961 151.5H93H89.039L88.8945 155.875ZM8.761 160.982C8.597 161.247 8.503 163.047 8.5515 164.982L8.6405 168.5H12.82H17V164.5V160.5H13.0295C10.8455 160.5 8.925 160.717 8.761 160.982ZM26.5 164.5V168.5H30.75H35V164.5V160.5H30.75H26.5V164.5ZM142 169.25V178H137.75H133.5V182.25V186.5H137.73H141.961L142.105 190.875L142.25 195.25H150.75H159.25L159.383 182.395L159.517 169.539L155.133 169.395L150.75 169.25L150.605 164.875L150.461 160.5H146.23H142V169.25ZM0 173.5V177.5H4H8V173.5V169.5H4H0V173.5ZM169 173.5V177.5H173H177V173.5V169.5H173H169V173.5ZM8.833 178.375C8.7085 178.581 8.639 180.438 8.6785 182.5L8.75 186.25L12.875 186.395L17 186.54V182.27V178H13.0295C10.8455 178 8.957 178.169 8.833 178.375ZM35.5 182.25V186.5H39.5H43.5V182.25V178H39.5H35.5V182.25ZM53.2095 178.674C53.0675 179.045 53.018 180.902 53.1005 182.799L53.25 186.25L57.375 186.395L61.5 186.54V182.27V178H57.4845C54.5755 178 53.3975 178.186 53.2095 178.674ZM71 186.73V195.5H84H97V191.262V187.023L88.375 186.887L79.75 186.75L79.5 182.5L79.25 178.25L75.125 178.105L71 177.96V186.73ZM213.384 199.689C213.551 215.842 215.33 214.046 199.307 213.883L186.25 213.75L186.117 200.117L185.984 186.484L199.617 186.617L213.25 186.75L213.384 199.689ZM115.5 191.25V195.5H119.5H123.5V191.25V187H119.5H115.5V191.25ZM231.105 191.125L231.25 195.25L235.625 195.395L240 195.539V204.27V213H244.25H248.5V208.75V204.5H252.75H257V195.75V187H243.98H230.96L231.105 191.125ZM0 227.004V258.008L30.625 257.879L61.25 257.75L61.379 226.875L61.5075 196H30.754H0V227.004ZM106.5 204.488V212.977L115.375 213.113L124.25 213.25L124.383 226.625L124.516 240H128.508H132.5V218V196H128.5H124.5V200.5V205H119.75H115V200.5V196H110.75H106.5V204.488ZM195.605 200.125L195.75 204.25H199.75H203.75L203.895 200.125L204.04 196H199.75H195.46L195.605 200.125ZM53 227V249.5H31.1C4.5025 249.5 8 252.997 8 226.4V204.5H30.5H53V227ZM142 218V231H146.512H151.023L150.887 240.125L150.75 249.25H146.25H141.75L141.605 244.875L141.461 240.5H137.48H133.5V244.209C133.5 249.616 133.606 249.5 128.697 249.5H124.5V253.75V258H141.209C161.278 258 159.5 258.467 159.5 253.197V249H164.25H169V253.5V258H177.5H186V249V240H190.5H195V235.758V231.517L181.625 231.383L168.25 231.25L168.105 226.875L167.961 222.5H163.73H159.5V217.75V213H163.75H168V209V205H155H142V218ZM17.5 227V240H30.5H43.5V227V214H30.5H17.5V227ZM71 218V222H75.5H80V226.5V231H84.5H89V235.5V240H93.2305H97.461L97.6055 244.375L97.75 248.75L101.875 248.895L106 249.04V240.289V231.539L101.625 231.395L97.25 231.25L97.1055 226.875L96.961 222.5H93.2715C87.918 222.5 88 222.571 88 217.947V214H79.5H71V218ZM97.5 218V222H101.75H106V218V214H101.75H97.5V218ZM249 217.947C249 222.798 249.64 222.5 239.209 222.5H231V226.75V231H240H249V235.5V240H253H257V227V214H253H249V217.947ZM106.852 222.814C106.658 223.008 106.5 224.929 106.5 227.083V231H110.77H115.04L114.895 226.875L114.75 222.75L110.977 222.606C108.902 222.526 107.046 222.62 106.852 222.814ZM71 235.75V240.04L75.125 239.895L79.25 239.75V235.75V231.75L75.125 231.605L71 231.46V235.75ZM115.5 244.75V249H119.5H123.5V244.75V240.5H119.5H115.5V244.75ZM240.113 249.104L240.25 257.75L248.625 257.887L257 258.024V253.762V249.5H252.75C249.054 249.5 248.494 249.386 248.452 248.625C248.425 248.144 248.369 246.175 248.327 244.25L248.25 240.75L244.113 240.604L239.976 240.459L240.113 249.104ZM71 253.75V258H84H97V253.75V249.5H84H71V253.75Z" fill="black"/>
</svg>
